<svg width="582" height="119" viewBox="0 0 582 119" fill="none" xmlns="http://www.w3.org/2000/svg" preserveAspectRatio="none">
<path d="M48.9579 101.089C29.8387 101.089 20.5058 118.379 0 118.249V0.25H582V118.249C561.675 118.249 553.866 101.153 533.542 101.089C513.035 101.025 505.089 118.379 484.584 118.249C464.441 118.122 456.768 101.153 436.625 101.089C416.301 101.024 408.491 118.249 388.167 118.249C367.842 118.249 360.033 101.089 339.708 101.089C319.384 101.089 311.574 118.249 291.25 118.249C270.925 118.249 263.116 101.089 242.791 101.089C222.467 101.089 214.658 118.249 194.333 118.249C174.009 118.249 166.199 101.153 145.875 101.089C125.369 101.025 117.423 118.379 96.9167 118.249C76.7743 118.122 67.687 101.089 48.9579 101.089Z" fill="white"/>
</svg>
