<svg width="7439" height="603" viewBox="0 0 7439 603" fill="none" xmlns="http://www.w3.org/2000/svg">
<path d="M3159 55.7155C2997 55.716 2936.5 92.2155 2848 135.215C2759.5 178.215 2600.23 182.349 2440 179.215C2204.83 174.616 2085.56 47.389 1850.5 55.7155C1649.31 62.8423 1551.31 177.806 1350 179.215C1142.8 180.665 1041.14 50.5915 834 55.7155C658.166 60.0652 572.39 151.495 397 164.715C241.974 176.4 0 135.215 0 135.215V602.715H2848H4723H7439V135.215C7439 135.215 7364 135.215 7188 19.215C7068.19 -59.7488 6899.39 129.835 6756 135.215C6592.34 141.356 6514.2 23.2762 6350.5 28.2147C6203.53 32.6486 6132.49 102.089 5985.5 106C5852.39 109.541 5789.16 64.9282 5656 64.2147C5519.4 63.4829 5449.75 144.971 5313.5 135.215C5185.2 126.029 5117.54 81.4552 4989 86C4872.38 90.1232 4890 91.5 4723 135.215C4556 178.93 4490 191.715 4387 164.715C4284 137.715 4094.5 162.215 4023.5 179.215C3952.5 196.215 3743.5 208.715 3631 179.215C3518.5 149.715 3321 55.715 3159 55.7155Z" fill="url(#paint0_linear_107_8)"/>
<defs>
<linearGradient id="paint0_linear_107_8" x1="3773" y1="148.372" x2="3773" y2="603.06" gradientUnits="userSpaceOnUse">
<stop stop-color="#73BAE4"/>
<stop offset="1" stop-color="#6ED3D1"/>
</linearGradient>
</defs>
</svg>
