<svg width="7442" height="265" viewBox="0 0 7442 265" fill="none" xmlns="http://www.w3.org/2000/svg">
<path d="M3207 169.54C3125.4 160.74 3006 113.872 3006 113.872C3006 113.872 2783.72 -7.56053 2617 0.37242C2425.53 9.48306 2157.03 196.019 1966 211.872C1780.59 227.259 1546.51 93.3216 1360.5 89.8721C1132.98 85.6528 984.907 249.682 757.5 241.372C502.783 232.064 253.807 112.819 0 89.3721V140.872C255 184.372 427.731 248.431 681 263.872C905.144 277.538 1056.95 137.471 1281.5 135.872C1464.16 134.572 1784.19 238.519 1966 220.872C2151.39 202.877 2407.79 65.9753 2594 61.3721C2760.3 57.2611 3006 159.372 3006 159.372C3006 159.372 3105.4 194.84 3207 202.04C3334 211.04 3437.5 181.04 3666 155.54C3894.5 130.04 4059 139.54 4173 155.54C4287 171.54 4339 191.04 4468 236.54C4571.2 272.94 4728.83 257.707 4791.5 241.04C4863.5 227.04 4864 223.04 4992.5 168.54C5095.3 124.94 5153.5 151.04 5210.5 169.54C5210.5 169.54 5349.63 223.2 5461 239.872C5668.24 270.896 5777.07 147.305 5986.5 140.372C6217.96 132.709 6371.33 252.212 6602.5 238.372C6777.26 227.909 6911.99 123.914 7087 119.372C7243.96 115.298 7441.5 140.872 7441.5 140.872V89.3721C7441.5 89.3721 7209.5 68.3721 7042.5 104.706C6869.5 142.346 6791.12 214.042 6614.5 226.372C6382.08 242.598 6246.47 121.855 6013.5 119.082C5805.43 116.606 5691.33 205.701 5484.5 182.872C5375.25 170.814 5210.5 118.54 5210.5 118.54C5142.5 99.0403 5046 118.54 4986.5 152.54C4962.5 166.255 4870 209.54 4785 223.04C4629.65 247.712 4510.5 209.04 4468 186.54C4425.5 164.04 4323.5 135.54 4173 118.54C4022.5 101.54 3788 138.04 3666 152.54C3544 167.04 3309 180.54 3207 169.54Z" fill="url(#paint0_linear_107_11)"/>
<defs>
<linearGradient id="paint0_linear_107_11" x1="4108.25" y1="258.888" x2="4108.25" y2="-464.209" gradientUnits="userSpaceOnUse">
<stop offset="0.0182283" stop-color="#74C6F3" stop-opacity="0.8"/>
<stop offset="0.493968" stop-color="#2AA0E4"/>
</linearGradient>
</defs>
</svg>
