<svg width="7437" height="506" viewBox="0 0 7437 506" fill="none" xmlns="http://www.w3.org/2000/svg">
<path d="M2997 43.6466C2885.8 52.8466 2854 79.8193 2739 101.859C2624 123.899 2572.92 46.4138 2419.5 43.6466C2247.57 40.5456 2155.93 111.454 1984 108.647C1805.56 105.733 1712.88 38.0389 1535 23.6466C1262.77 1.62001 1110.96 90.7564 838 81.2529C645.83 74.5623 540.693 8.54584 349 23.6466C209.758 34.6156 0 107.188 0 107.188V505.147H2807H4830H7437V108.188C7437 108.188 7185.79 186.406 7023 171.107C6854.14 155.237 6783.34 39.7617 6614.5 23.6466C6429.97 6.03354 6330.79 136.376 6147.5 108.647C6046.27 93.3316 6001.67 30.1363 5899.5 23.6466C5787.85 16.5554 5732.19 82.2473 5620.5 88.6067C5451.66 98.2199 5365.34 -8.97361 5196.5 0.606692C5047.52 9.05995 4830 108.647 4830 108.647C4719.5 173.647 4629.25 129.738 4549.5 108.647C4368 60.6466 4368.5 43.6465 4190 23.6466C3955.62 -2.61457 3777.5 64.2529 3701 81.2529C3624.5 98.2529 3454.5 115.753 3369 101.859C3283.5 87.9655 3136 32.1466 2997 43.6466Z" fill="white" fill-opacity="0.22"/>
</svg>
