<svg width="2204" height="148" viewBox="0 0 2204 148" fill="none" xmlns="http://www.w3.org/2000/svg" preserveAspectRatio="none">
<path d="M200.954 58.7108C119.373 49.9165 32.9925 21.0687 0 7.74407V58.7108C24.6611 66.539 99.3775 83.9942 200.954 91.1896C327.926 100.184 431.402 70.2032 659.85 44.7199C888.298 19.2365 1052.76 28.7303 1166.74 44.7199C1280.71 60.7094 1332.7 80.1967 1461.67 125.667C1564.84 162.043 1722.44 146.82 1785.1 130.164C1857.08 116.173 1857.58 112.176 1986.05 57.7114C2088.83 14.1399 2147.01 40.2232 2204 58.7109V7.74421C2136.02 -11.743 2039.54 7.74369 1980.05 41.7219C1956.06 55.4274 1863.58 98.6849 1778.6 112.176C1623.29 136.832 1504.16 98.1849 1461.67 75.6996C1419.18 53.2143 1317.2 24.733 1166.74 7.74407C1016.27 -9.24483 781.823 27.2313 659.85 41.7219C537.878 56.2124 302.931 69.7036 200.954 58.7108Z" fill="url(#paint0_linear_58_18)"/>
<defs>
<linearGradient id="paint0_linear_58_18" x1="1102" y1="148" x2="1102" y2="-574.625" gradientUnits="userSpaceOnUse">
<stop offset="0.0182283" stop-color="#74C6F3" stop-opacity="0.8"/>
<stop offset="0.493968" stop-color="#2AA0E4"/>
</linearGradient>
</defs>
</svg>
