<svg width="7434" height="559" viewBox="0 0 7434 559" fill="none" xmlns="http://www.w3.org/2000/svg">
<path d="M4480 558.993H3018H0V111.707C0 111.707 303.566 160.708 499.5 158.493C723.667 155.958 844.33 80.2115 1068.5 82.4927C1276.81 84.6125 1388.18 158.521 1596.5 158.493C1895.96 158.453 2047.56 4.50153 2347 1.20653C2612.51 -1.71513 3018 110.993 3018 110.993C3232 156.993 3322 172.493 3520.5 158.493C3741.99 142.872 3761 112.493 3963.5 82.4927C4125.5 58.4927 4301 37.4928 4480 110.993C4659 184.493 4885.5 175.435 5145.5 158.493C5329.69 146.49 5427.54 89.1964 5612 82.4927C5849.58 73.8584 5978.89 175.697 6216 158.493C6448.75 141.605 6559.52 14.7041 6792.5 1.20653C7046.24 -13.4939 7434 110.993 7434 110.993V558.993H4480Z" fill="white"/>
</svg>
