<svg width="7434" height="571" viewBox="0 0 7434 571" fill="none" xmlns="http://www.w3.org/2000/svg">
<path d="M3072 52.196C3010 62.196 2845.5 -33.609 2641.5 36.196C2437.5 106.001 2414 50.7588 2278.5 15.9495C1934 -72.5509 2016 244.926 1441.5 53.1149C1169.56 -37.6775 1123.93 116.174 859 150.615C673 174.795 514.77 23.2313 350 10.6148C145.524 -5.04206 0 107.95 0 107.95V570.449H2770H4529.5H5071.5H7433.5V107.95C7433.5 107.95 7239.95 189.533 7108.5 198.615C6893.85 213.445 6792.1 47.9365 6577 53.4496C6380.29 58.4913 6291.27 199.295 6094.5 198.615C5876.13 197.861 5783.97 29.1392 5566 15.9495C5369.93 4.08523 5313.5 34.3495 5071.5 107.95C4829.5 181.55 4714.5 173.116 4529.5 107.95C4294.5 15.9495 4097 38.4496 4019.5 53.4496C3942 68.4496 3864.5 85.4495 3694.5 78.4495C3524.5 71.4495 3509.5 30.9495 3382 15.9495C3254.5 0.949499 3149.5 39.696 3072 52.196Z" fill="url(#paint0_linear_107_7)"/>
<defs>
<linearGradient id="paint0_linear_107_7" x1="3636" y1="570.45" x2="3636" y2="5.61534" gradientUnits="userSpaceOnUse">
<stop offset="0.583694" stop-color="#90BEED"/>
<stop offset="1" stop-color="#479CE2"/>
</linearGradient>
</defs>
</svg>
