<svg width="3655" height="572" viewBox="0 0 3655 572" fill="none" xmlns="http://www.w3.org/2000/svg" preserveAspectRatio="xMinYMax meet">
<path fill-rule="evenodd" clip-rule="evenodd" d="M1367.84 64.7984C1227.39 32.3742 1087.16 0 903.736 0C712.893 0 575.595 33.6354 458.841 62.2378C399.856 76.6879 346.114 89.8534 293.361 96.7483C136.19 117.291 0 121.929 0 121.929V382.134L1827.31 382.134H3655V121.93C3655 121.93 3518.81 117.291 3361.64 96.7487C3308.81 89.8439 3255.46 76.7251 3197.01 62.3498C3081.55 33.9573 2946.16 0.663086 2755.46 0.663086C2572.02 0.663086 2430.73 32.874 2289.22 65.1338C2149.21 97.0515 2009 129.017 1827.54 129.881C1646.04 129.027 1506.83 96.8879 1367.84 64.7984Z" fill="white"/>
<path fill-rule="evenodd" clip-rule="evenodd" d="M1373.03 75.836C1234.99 47.6112 1097.2 19.4395 913.655 19.4395C717.84 19.4395 573.787 50.7447 452.132 77.1824C395.32 89.5285 343.394 100.813 293.361 107.352C136.19 127.895 0 132.533 0 132.533V571.738H1827.31H1827.69H3655V132.533C3655 132.533 3518.81 127.895 3361.64 107.352C3311.61 100.813 3259.68 89.5285 3202.87 77.1825C3081.21 50.7447 2937.16 19.4395 2741.35 19.4395C2557.8 19.4395 2420.02 47.6112 2281.97 75.836C2145.55 103.731 2008.86 131.677 1827.5 132.532C1646.14 131.677 1509.46 103.731 1373.03 75.836Z" fill="url(#paint0_linear_166_315)"/>
<defs>
<linearGradient id="paint0_linear_166_315" x1="1827.5" y1="571.738" x2="1827.5" y2="19.4395" gradientUnits="userSpaceOnUse">
<stop stop-color="white"/>
<stop offset="0.955" stop-color="#FFD1E4"/>
</linearGradient>
</defs>
</svg>
