<svg width="3655" height="572" viewBox="0 0 3655 572" fill="none" xmlns="http://www.w3.org/2000/svg" preserveAspectRatio="none">
<path fill-rule="evenodd" clip-rule="evenodd" d="M1367.77 64.7984C1227.34 32.3742 1087.11 0 903.695 0C712.861 0 575.569 33.6354 458.82 62.2378C399.837 76.6879 346.099 89.8534 293.348 96.7483C136.184 117.291 0 121.929 0 121.929V382.134H1827.23H1827.61H3655V122C3655 122 3518.65 117.291 3361.49 96.7484C3308.66 89.8435 3255.31 76.7248 3196.86 62.3495C3081.41 33.957 2946.03 0.662724 2755.33 0.662724C2571.9 0.662724 2430.62 32.8737 2289.11 65.1335C2149.1 97.0533 2008.88 129.021 1827.42 129.88C1645.94 129.022 1506.75 96.8856 1367.77 64.7984Z" fill="white"/>
<path fill-rule="evenodd" clip-rule="evenodd" d="M1372.97 75.836C1234.93 47.6112 1097.15 19.4395 913.613 19.4395C717.807 19.4395 573.76 50.7447 452.111 77.1824C395.302 89.5285 343.378 100.813 293.348 107.352C136.184 127.895 0 132.533 0 132.533V571.738H1827.23H1827.61H3655V132.5C3655 132.5 3518.65 127.895 3361.49 107.352C3311.46 100.813 3259.53 89.5285 3202.72 77.1825C3081.07 50.7448 2937.03 19.4395 2741.22 19.4395C2557.68 19.4395 2419.9 47.6112 2281.87 75.836C2145.45 103.731 2008.77 131.677 1827.42 132.532C1646.06 131.677 1509.39 103.731 1372.97 75.836Z" fill="url(#paint0_linear_166_314)"/>
<defs>
<linearGradient id="paint0_linear_166_314" x1="1827.5" y1="571.738" x2="1827.5" y2="19.4395" gradientUnits="userSpaceOnUse">
<stop stop-color="white"/>
<stop offset="0.955" stop-color="#37AFBC"/>
</linearGradient>
</defs>
</svg>
