<svg width="203" height="168" viewBox="0 0 203 168" fill="none" xmlns="http://www.w3.org/2000/svg">
<path d="M47 55L97.1547 3L149 55" stroke="white" stroke-width="4"/>
<path d="M62.1799 128V96.56H51.5239V92.816H77.2999V96.56H66.6439V128H62.1799ZM99.9721 128.624C97.0281 128.624 94.4201 127.888 92.1481 126.416C89.9081 124.912 88.1481 122.784 86.8681 120.032C85.5881 117.28 84.9481 114.032 84.9481 110.288C84.9481 106.512 85.5881 103.28 86.8681 100.592C88.1481 97.872 89.9081 95.792 92.1481 94.352C94.4201 92.912 97.0281 92.192 99.9721 92.192C102.916 92.192 105.508 92.928 107.748 94.4C110.02 95.84 111.796 97.904 113.076 100.592C114.356 103.28 114.996 106.512 114.996 110.288C114.996 114.032 114.356 117.28 113.076 120.032C111.796 122.784 110.02 124.912 107.748 126.416C105.508 127.888 102.916 128.624 99.9721 128.624ZM99.9721 124.736C102.084 124.736 103.924 124.144 105.492 122.96C107.06 121.776 108.276 120.096 109.14 117.92C110.004 115.744 110.436 113.2 110.436 110.288C110.436 107.344 110.004 104.816 109.14 102.704C108.276 100.56 107.06 98.928 105.492 97.808C103.924 96.656 102.084 96.08 99.9721 96.08C97.8921 96.08 96.0521 96.656 94.4521 97.808C92.8841 98.928 91.6681 100.56 90.8041 102.704C89.9401 104.816 89.5081 107.344 89.5081 110.288C89.5081 113.2 89.9401 115.744 90.8041 117.92C91.6681 120.096 92.8841 121.776 94.4521 122.96C96.0521 124.144 97.8921 124.736 99.9721 124.736ZM127.437 128V92.816H137.469C140.093 92.816 142.397 93.152 144.381 93.824C146.365 94.464 147.901 95.536 148.989 97.04C150.077 98.544 150.621 100.576 150.621 103.136C150.621 105.6 150.077 107.632 148.989 109.232C147.901 110.832 146.381 112.032 144.429 112.832C142.477 113.6 140.221 113.984 137.661 113.984H131.853V128H127.437ZM131.853 110.384H137.085C140.157 110.384 142.445 109.808 143.949 108.656C145.453 107.504 146.205 105.664 146.205 103.136C146.205 100.576 145.421 98.816 143.853 97.856C142.317 96.896 139.997 96.416 136.893 96.416H131.853V110.384Z" fill="white"/>
</svg>
