<svg width="3655" height="374" viewBox="0 0 3655 374" fill="none" xmlns="http://www.w3.org/2000/svg" preserveAspectRatio="none">
<path fill-rule="evenodd" clip-rule="evenodd" d="M1373.03 56.3966C1234.99 28.1717 1097.2 0 913.654 0C717.839 0 573.786 31.3053 452.131 57.743C395.32 70.089 343.394 81.3736 293.361 87.9129C136.19 108.455 0 113.094 0 113.094V373.298H1827.31H1827.69H3655V113.094C3655 113.094 3518.81 108.455 3361.64 87.9129C3311.61 81.3736 3259.68 70.089 3202.87 57.743C3081.21 31.3053 2937.16 0 2741.35 0C2557.8 0 2420.02 28.1717 2281.97 56.3966C2145.55 84.2911 2008.86 112.238 1827.5 113.093C1646.14 112.238 1509.46 84.2911 1373.03 56.3966Z" fill="url(#paint0_linear_166_270)"/>
<defs>
<linearGradient id="paint0_linear_166_270" x1="1827.5" y1="373.298" x2="1827.5" y2="0" gradientUnits="userSpaceOnUse">
<stop offset="0.07" stop-color="#72CFDE"/>
<stop offset="1" stop-color="#2D6CB3"/>
</linearGradient>
</defs>
</svg>
