<svg width="7434" height="811" viewBox="0 0 7434 811" fill="none" xmlns="http://www.w3.org/2000/svg" preserveAspectRatio="none">
<path d="M2831 7.69026C2715.87 17.5304 2586.5 97.1899 2542 115.19C2497.5 133.19 2398.22 188.044 2240.96 178C2017.57 163.732 1989.96 7.69026 1580 7.69026C1394.01 7.69026 1293.99 134.708 1108 134.69C864.264 134.667 737.022 15.2917 493.5 25.4999C296.288 33.7669 0 134.69 0 134.69V810.19H2542H4855H7434V134.69C7434 134.69 7139.19 207.029 6948 198C6739.78 188.166 6637.36 86.8927 6429.5 71.1903C6227.06 55.8972 6114.26 125.495 5911.5 115.19C5689.47 103.905 5575.62 -6.71926 5353.5 2.5C5152.27 10.8522 4927 113.524 4855 134.69C4783 155.857 4586.4 172.79 4376 71.1903C4113 -55.8098 3814 14.6895 3636.5 71.1903C3548.02 99.3531 3380 125.19 3254 115.19C3050.04 99.0025 2996.48 -6.45276 2831 7.69026Z" fill="url(#paint0_linear_111_16)"/>
<defs>
<linearGradient id="paint0_linear_111_16" x1="3698.5" y1="810.19" x2="3698.5" y2="6.13512" gradientUnits="userSpaceOnUse">
<stop stop-color="#74D3DF"/>
<stop offset="1" stop-color="#1042A2"/>
</linearGradient>
</defs>
</svg>
