<svg width="7435" height="809" viewBox="0 0 7435 809" fill="none" xmlns="http://www.w3.org/2000/svg" preserveAspectRatio="none">
<path d="M2938.34 14.029C2737.64 14.0293 2662.68 35.7019 2553.04 61.234C2443.39 86.7661 2240.91 90.5835 2040.54 87.3602C1791.65 83.3565 1655.2 22.8576 1406.29 24.1315C1186.65 25.2556 1066.17 79.8477 846.535 78.7504C618.628 77.6118 493.625 -5.29089 266.535 14.029C161.221 22.9888 0.0351562 61.0293 0.0351562 61.0293V808.529L2553.04 807.029H4876.04H7434.04V61.0293C7434.04 61.0293 7130.29 157.266 6933.54 149.029C6695.48 139.064 6578.36 24.6171 6341.04 3.52913C6064.14 -21.0749 5908.9 91.9151 5632.04 66.9267C5493.69 54.4403 5420.88 7.76219 5282.04 3.52913C5121.96 -1.35114 4970.19 33.6234 4876.04 61.234C4781.88 88.8446 4587.36 94.7824 4459.75 78.7504C4332.14 62.7185 4097.37 77.266 4009.4 87.3602C3921.44 97.4544 3662.5 104.877 3523.12 87.3602C3383.74 69.8438 3139.05 14.0288 2938.34 14.029Z" fill="url(#paint0_linear_111_15)"/>
<defs>
<linearGradient id="paint0_linear_111_15" x1="3699.05" y1="339.71" x2="3699.05" y2="68.3648" gradientUnits="userSpaceOnUse">
<stop stop-color="#73BAE4"/>
<stop offset="1" stop-color="#6ED3D1"/>
</linearGradient>
</defs>
</svg>
