<svg width="7434" height="873" viewBox="0 0 7434 873" fill="none" xmlns="http://www.w3.org/2000/svg">
<path d="M2899 819.955H4181H7434V116.455C7434 116.455 7199.5 116.822 6960.5 80.9551C6734.74 47.0758 6624.68 196.995 6398 169.955C6195.26 145.771 6097.29 13.6179 5893.5 0.95487C5635.62 -15.0695 5515.34 175.96 5257 171.454C5016.7 167.263 4899.82 2.92151 4659.5 6.45497C4468.62 9.26152 4393.15 63.3857 4205.5 113.455C4017.85 163.525 3910.56 189.194 3736.5 173.955C3542.28 156.952 3320.5 89.5 3320.5 89.5C3320.5 89.5 3055.96 36.4528 2899 116.455C2742.04 196.457 2514.08 236.767 2297.5 233.955C2049.23 230.731 1960.76 78.9723 1712.5 75.4551C1429.88 71.4512 1277.97 176.952 995.5 166.955C785.504 159.523 678.049 94.5699 468 88.8219C287.435 83.8808 0 116.455 0 116.455V819.955H2899Z" fill="white"/>
<path d="M2899 872.521H4181H7434V141.388C7434 141.388 7194.5 141.388 6955.5 105.521C6729.74 71.6422 6627.18 211.061 6400.5 184.021C6197.76 159.837 6103.29 47.184 5899.5 34.5209C5641.62 18.4966 5513.34 188.527 5255 184.021C5014.7 179.829 4898.32 30.9875 4658 34.5209C4467.12 37.3275 4368.65 91.3189 4181 141.388C3993.35 191.458 3910.56 199.259 3736.5 184.021C3542.28 167.018 3529.48 143.021 3351.91 110.367C3209.85 84.2437 3055.96 61.3861 2899 141.388C2742.04 221.391 2509.08 246.833 2292.5 244.021C2044.23 240.797 1962.76 113.884 1714.5 110.367C1431.88 106.363 1276.97 194.018 994.5 184.021C784.504 176.589 671.549 116.115 461.5 110.367C280.934 105.426 0 141.388 0 141.388V872.521H2899Z" fill="url(#paint0_linear_111_17)"/>
<defs>
<linearGradient id="paint0_linear_111_17" x1="3540" y1="872.521" x2="3540" y2="86.0213" gradientUnits="userSpaceOnUse">
<stop stop-color="white"/>
<stop offset="1" stop-color="#79D7F0"/>
</linearGradient>
</defs>
</svg>
