<svg width="7435" height="443" viewBox="0 0 7435 443" fill="none" xmlns="http://www.w3.org/2000/svg">
<path opacity="0.8" d="M4269.04 442.5H2807.04H0.0351562V30.1819C0.0351562 30.1819 199.793 56.2994 328.535 58.3657C524.565 61.512 632.531 8.82729 828.535 13.2714C1049.25 18.2757 1166.77 98.5814 1387.54 97.5C1601.35 96.4526 1714.76 8.88689 1928.54 13.2714C2117.47 17.1464 2216.08 99.4289 2405.04 97.5C2564.2 95.8752 2593.04 2.88805 2807.04 30.1819C3021.04 57.4757 3111.04 66.6725 3309.54 58.3657C3531.02 49.097 3550.04 31.0718 3752.54 13.2714C3914.54 -0.968841 4090.04 -13.4289 4269.04 30.1819C4269.04 30.1819 4543.71 118.938 4726.04 140.5C5085.96 183.066 5285.2 21.654 5647.54 30.1819C5878.21 35.611 6003.8 96.3935 6234.54 97.5C6503.28 98.7887 6649.16 27.4004 6917.54 13.2714C7118.96 2.66713 7434.04 30.1914 7434.04 30.1914V442.5H4269.04Z" fill="url(#paint0_linear_111_14)"/>
<defs>
<linearGradient id="paint0_linear_111_14" x1="3538.04" y1="442.5" x2="3538.04" y2="5.27501e-05" gradientUnits="userSpaceOnUse">
<stop offset="0.309796" stop-color="white" stop-opacity="0"/>
<stop offset="1" stop-color="#B8EAF7"/>
</linearGradient>
</defs>
</svg>
