<svg width="904" height="616" viewBox="0 0 904 616" fill="none" xmlns="http://www.w3.org/2000/svg">
<path d="M0 614.385C9.40867 614.245 18.8207 614.135 28.236 614.055L56.477 613.79L84.718 613.6L112.954 613.46L169.446 613.31C188.267 613.27 207.097 613.293 225.938 613.38L282.43 613.76L310.671 613.96L338.912 614.075C357.739 614.115 376.57 614.115 395.404 614.075L423.645 613.95L451.886 613.79C489.547 613.53 527.199 613.352 564.84 613.255L621.332 613.115L677.824 613.08C753.129 613.22 828.433 613.535 903.737 614.405V614.68C828.433 615.55 753.129 615.865 677.824 616.005L621.332 615.97L564.84 615.83C527.179 615.75 489.527 615.57 451.886 615.29L423.645 615.13L395.404 615.005C376.577 614.952 357.746 614.952 338.912 615.005L310.671 615.125L282.43 615.325L225.938 615.7C207.111 615.783 188.28 615.808 169.446 615.775L112.954 615.625L84.718 615.48L56.477 615.29L28.236 615.025C18.824 614.935 9.412 614.827 0 614.7V614.385Z" fill="url(#paint0_linear_302_7)"/>
<path d="M0 1.43001C9.40867 1.27334 18.8207 1.15334 28.236 1.07001L56.477 0.779999L84.718 0.570007L112.954 0.415009L141.195 0.305008L169.436 0.25C188.257 0.21 207.087 0.236668 225.928 0.330002L282.42 0.744995L310.661 0.960007L338.902 1.09C357.729 1.13333 376.56 1.13333 395.394 1.09L423.635 0.955002L451.876 0.775009C489.537 0.488342 527.189 0.291664 564.83 0.184998L621.322 0.0350037L677.814 0C753.118 0.15 828.423 0.499997 903.727 1.45V1.75C828.423 2.7 753.118 3.045 677.814 3.2L621.322 3.16L564.83 3.01001C527.169 2.92001 489.517 2.72333 451.876 2.42L423.635 2.245L395.394 2.11C376.567 2.04667 357.736 2.03834 338.902 2.08501L310.661 2.215L282.42 2.435L225.928 2.845C207.101 2.935 188.27 2.96167 169.436 2.925L141.195 2.87L112.954 2.76001L84.718 2.605L56.477 2.395L28.236 2.11C18.824 2.00333 9.412 1.88333 0 1.75V1.43001Z" fill="url(#paint1_linear_302_7)"/>
<path d="M0 483.625C9.40867 483.471 18.8207 483.351 28.236 483.265L56.477 482.975L84.718 482.765L112.954 482.61L141.195 482.5L169.436 482.445C188.257 482.405 207.087 482.432 225.928 482.525L282.42 482.94L310.661 483.155L338.902 483.285C357.729 483.328 376.56 483.328 395.394 483.285L423.635 483.145L451.876 482.97C489.537 482.683 527.189 482.486 564.83 482.38L621.322 482.23L677.814 482.195C753.118 482.345 828.423 482.695 903.727 483.645V483.945C828.423 484.895 753.118 485.24 677.814 485.395L621.322 485.355L564.83 485.205C527.169 485.115 489.517 484.918 451.876 484.615L423.635 484.44L395.394 484.3C376.567 484.24 357.736 484.24 338.902 484.3L310.661 484.43L282.42 484.65L225.928 485.06C207.101 485.15 188.27 485.176 169.436 485.14L141.195 485.085L112.954 484.975L84.718 484.82L56.477 484.61L28.236 484.325C18.824 484.218 9.412 484.098 0 483.965V483.625Z" fill="url(#paint2_linear_302_7)"/>
<path d="M0 363.12C9.40867 362.97 18.8207 362.85 28.236 362.76L56.477 362.475L84.718 362.265L112.954 362.11L141.195 361.995L169.436 361.945C188.257 361.901 207.087 361.928 225.928 362.025L282.42 362.435L310.661 362.655L338.902 362.785C357.729 362.828 376.56 362.828 395.394 362.785L423.635 362.65L451.876 362.475C489.537 362.185 527.189 361.988 564.83 361.885L621.322 361.735L677.814 361.695C753.118 361.85 828.423 362.195 903.727 363.145V363.445C828.423 364.4 753.118 364.745 677.814 364.895L621.322 364.86L564.83 364.71C527.169 364.62 489.517 364.423 451.876 364.12L423.635 363.94L395.394 363.805C376.567 363.738 357.736 363.738 338.902 363.805L310.661 363.935L282.42 364.15L225.928 364.565C207.101 364.655 188.27 364.682 169.436 364.645L141.195 364.59L112.954 364.48L84.718 364.325L56.477 364.115L28.236 363.825C18.824 363.725 9.412 363.605 0 363.465V363.12Z" fill="url(#paint3_linear_302_7)"/>
<path d="M0 242.43C9.40867 242.28 18.8207 242.16 28.236 242.07L56.477 241.78L84.718 241.575L112.954 241.42L141.195 241.305L169.436 241.25C188.257 241.21 207.087 241.237 225.928 241.33L282.42 241.745L310.661 241.965L338.902 242.095C357.729 242.135 376.56 242.135 395.394 242.095L423.635 241.96L451.876 241.785C489.537 241.495 527.189 241.298 564.83 241.195L621.322 241.04L677.814 241.005C753.118 241.155 828.423 241.505 903.727 242.455V242.755C828.423 243.71 753.118 244.055 677.814 244.205L621.322 244.17L564.83 244.015C527.169 243.928 489.517 243.732 451.876 243.425L423.635 243.25L395.394 243.115C376.567 243.052 357.736 243.052 338.902 243.115L310.661 243.245L282.42 243.465L225.928 243.88C207.101 243.97 188.27 243.997 169.436 243.96L141.195 243.905L112.954 243.795L84.718 243.64L56.477 243.43L28.236 243.14C18.824 243.04 9.412 242.92 0 242.78V242.43Z" fill="url(#paint4_linear_302_7)"/>
<path d="M0 121.93C9.40867 121.773 18.8207 121.653 28.236 121.57L56.477 121.28L84.718 121.07L112.954 120.915L141.195 120.805L169.436 120.75C188.257 120.71 207.087 120.737 225.928 120.83L282.42 121.245L310.661 121.465L338.902 121.595C357.729 121.635 376.56 121.635 395.394 121.595L423.635 121.46L451.876 121.285C489.537 120.995 527.189 120.798 564.83 120.695L621.322 120.54L677.814 120.505C753.118 120.655 828.423 121.005 903.727 121.955V122.255C828.423 123.205 753.118 123.555 677.814 123.705L621.322 123.67L564.83 123.515C527.169 123.428 489.517 123.232 451.876 122.925L423.635 122.75L395.394 122.615C376.567 122.552 357.736 122.552 338.902 122.615L310.661 122.745L282.42 122.965L225.928 123.38C207.101 123.467 188.27 123.493 169.436 123.46L141.195 123.405L112.954 123.29L84.718 123.135L56.477 122.93L28.236 122.64C18.824 122.537 9.412 122.417 0 122.28V121.93Z" fill="url(#paint5_linear_302_7)"/>
<path d="M184.709 544.12C187.452 543.641 190.219 543.318 192.998 543.15C195.757 542.97 198.52 542.882 201.287 542.885C204.053 542.888 206.816 542.977 209.575 543.15C212.355 543.313 215.122 543.637 217.864 544.12C215.122 544.6 212.355 544.924 209.575 545.09C206.813 545.27 204.05 545.356 201.287 545.35C198.524 545.343 195.761 545.255 192.998 545.085C190.219 544.921 187.451 544.599 184.709 544.12Z" fill="url(#paint6_linear_302_7)"/>
<path d="M184.709 61.7351C187.452 61.2566 190.219 60.9328 192.998 60.7651C195.757 60.5851 198.52 60.4968 201.287 60.5001C204.053 60.5034 206.816 60.5918 209.575 60.7651C212.355 60.9281 215.122 61.252 217.864 61.7351C215.122 62.2182 212.355 62.542 209.575 62.7051C206.813 62.8851 204.05 62.9718 201.287 62.9651C198.524 62.9584 195.761 62.8701 192.998 62.7001C190.219 62.5365 187.451 62.2144 184.709 61.7351Z" fill="url(#paint7_linear_302_7)"/>
<path d="M170.846 1.57995C175.9 1.07995 180.949 0.79994 186.004 0.61994C191.058 0.43994 196.107 0.349946 201.156 0.344946C206.206 0.339946 211.26 0.419951 216.314 0.614951C221.369 0.809951 226.418 1.06495 231.467 1.57995C226.418 2.07995 221.364 2.35995 216.314 2.53995C211.265 2.71995 206.211 2.80994 201.156 2.80994C196.102 2.80994 191.053 2.73495 186.004 2.53495C180.954 2.33495 175.9 2.08995 170.846 1.57995Z" fill="url(#paint8_linear_302_7)"/>
<path d="M184.709 483.775C187.452 483.297 190.219 482.973 192.998 482.805C195.757 482.625 198.52 482.537 201.287 482.54C204.046 482.54 206.786 482.62 209.575 482.805C212.355 482.968 215.122 483.292 217.864 483.775C215.122 484.253 212.354 484.577 209.575 484.745C206.813 484.925 204.05 485.012 201.287 485.005C198.524 484.998 195.761 484.91 192.998 484.74C190.219 484.577 187.451 484.254 184.709 483.775Z" fill="url(#paint9_linear_302_7)"/>
<path d="M184.709 423.425C187.451 422.946 190.219 422.623 192.998 422.46C195.757 422.28 198.52 422.192 201.287 422.195C204.046 422.195 206.786 422.275 209.575 422.46C212.355 422.624 215.122 422.946 217.864 423.425C215.122 423.908 212.355 424.232 209.575 424.395C206.811 424.58 204.046 424.66 201.287 424.66C198.527 424.66 195.757 424.575 192.998 424.395C190.218 424.232 187.451 423.908 184.709 423.425Z" fill="url(#paint10_linear_302_7)"/>
<path d="M184.709 363.27C187.451 362.791 190.219 362.469 192.998 362.305C195.757 362.125 198.52 362.037 201.287 362.04C204.053 362.043 206.816 362.13 209.575 362.3C212.355 362.466 215.122 362.79 217.864 363.27C215.122 363.753 212.355 364.077 209.575 364.24C206.813 364.42 204.05 364.508 201.287 364.505C198.524 364.502 195.761 364.413 192.998 364.24C190.219 364.072 187.452 363.749 184.709 363.27Z" fill="url(#paint11_linear_302_7)"/>
<path d="M184.709 302.925C187.451 302.446 190.219 302.123 192.998 301.96C195.757 301.78 198.52 301.692 201.287 301.695C204.053 301.698 206.816 301.785 209.575 301.955C212.355 302.12 215.122 302.444 217.864 302.925C215.122 303.408 212.355 303.732 209.575 303.895C206.813 304.075 204.05 304.163 201.287 304.16C198.524 304.157 195.761 304.068 192.998 303.895C190.219 303.727 187.452 303.403 184.709 302.925Z" fill="url(#paint12_linear_302_7)"/>
<path d="M184.709 242.58C187.451 242.101 190.219 241.779 192.998 241.615C195.757 241.435 198.52 241.347 201.287 241.35C204.053 241.354 206.816 241.44 209.575 241.61C212.355 241.773 215.122 242.097 217.864 242.58C215.122 243.063 212.355 243.387 209.575 243.55C206.813 243.73 204.05 243.819 201.287 243.815C198.522 243.815 195.757 243.73 192.998 243.545C190.219 243.382 187.451 243.059 184.709 242.58Z" fill="url(#paint13_linear_302_7)"/>
<path d="M184.709 182.425C187.451 181.946 190.219 181.624 192.998 181.46C195.757 181.28 198.497 181.195 201.287 181.19C204.076 181.185 206.786 181.275 209.575 181.455C212.355 181.618 215.122 181.942 217.864 182.425C215.122 182.908 212.355 183.232 209.575 183.395C206.813 183.575 204.05 183.663 201.287 183.66C198.522 183.66 195.757 183.57 192.998 183.39C190.219 183.227 187.451 182.904 184.709 182.425Z" fill="url(#paint14_linear_302_7)"/>
<path d="M184.709 122.08C187.451 121.601 190.219 121.278 192.998 121.115C195.757 120.93 198.497 120.85 201.287 120.845C204.076 120.84 206.786 120.93 209.575 121.11C212.355 121.273 215.122 121.597 217.864 122.08C215.122 122.563 212.355 122.887 209.575 123.05C206.813 123.23 204.05 123.317 201.287 123.31C198.524 123.303 195.761 123.215 192.998 123.045C190.219 122.881 187.451 122.559 184.709 122.08Z" fill="url(#paint15_linear_302_7)"/>
<path d="M435.379 544.12C438.121 543.641 440.889 543.318 443.668 543.15C446.431 542.97 449.194 542.882 451.957 542.885C454.72 542.888 457.482 542.977 460.245 543.15C463.025 543.313 465.792 543.637 468.534 544.12C465.792 544.6 463.025 544.924 460.245 545.09C457.479 545.27 454.716 545.356 451.957 545.35C449.197 545.343 446.434 545.255 443.668 545.085C440.889 544.921 438.121 544.599 435.379 544.12Z" fill="url(#paint16_linear_302_7)"/>
<path d="M435.379 61.7351C438.121 61.2566 440.889 60.9328 443.668 60.7651C446.431 60.5851 449.194 60.4968 451.957 60.5001C454.72 60.5034 457.482 60.5918 460.245 60.7651C463.025 60.9281 465.792 61.252 468.534 61.7351C465.792 62.2182 463.025 62.542 460.245 62.7051C457.479 62.8851 454.716 62.9718 451.957 62.9651C449.197 62.9584 446.434 62.8701 443.668 62.7001C440.889 62.5365 438.121 62.2144 435.379 61.7351Z" fill="url(#paint17_linear_302_7)"/>
<path d="M421.516 1.57995C426.57 1.07995 431.619 0.79994 436.674 0.61994C441.728 0.43994 446.777 0.349946 451.831 0.344946C456.886 0.339946 461.935 0.419951 466.984 0.614951C472.034 0.809951 477.088 1.06495 482.142 1.57995C477.088 2.07995 472.039 2.35995 466.984 2.53995C461.93 2.71995 456.881 2.80994 451.831 2.80994C446.782 2.80994 441.723 2.73495 436.674 2.53495C431.624 2.33495 426.57 2.08995 421.516 1.57995Z" fill="url(#paint18_linear_302_7)"/>
<path d="M435.379 483.775C438.121 483.297 440.889 482.973 443.668 482.805C446.431 482.625 449.194 482.537 451.957 482.54C454.721 482.54 457.481 482.62 460.245 482.805C463.025 482.968 465.792 483.292 468.534 483.775C465.792 484.253 463.024 484.577 460.245 484.745C457.479 484.925 454.716 485.012 451.957 485.005C449.197 484.998 446.434 484.91 443.668 484.74C440.889 484.577 438.121 484.254 435.379 483.775Z" fill="url(#paint19_linear_302_7)"/>
<path d="M435.379 423.425C438.121 422.946 440.889 422.623 443.668 422.46C446.431 422.28 449.194 422.192 451.957 422.195C454.721 422.195 457.481 422.275 460.245 422.46C463.024 422.624 465.792 422.946 468.534 423.425C465.792 423.908 463.025 424.232 460.245 424.395C457.481 424.58 454.746 424.66 451.957 424.66C449.167 424.66 446.457 424.575 443.668 424.395C440.888 424.232 438.121 423.908 435.379 423.425Z" fill="url(#paint20_linear_302_7)"/>
<path d="M435.379 363.27C438.121 362.791 440.889 362.469 443.668 362.305C446.431 362.125 449.194 362.037 451.957 362.04C454.72 362.043 457.482 362.13 460.245 362.3C463.025 362.466 465.792 362.79 468.534 363.27C465.792 363.753 463.025 364.077 460.245 364.24C457.479 364.42 454.716 364.508 451.957 364.505C449.197 364.502 446.434 364.413 443.668 364.24C440.889 364.072 438.121 363.749 435.379 363.27Z" fill="url(#paint21_linear_302_7)"/>
<path d="M435.379 302.925C438.121 302.446 440.889 302.123 443.668 301.96C446.431 301.78 449.194 301.692 451.957 301.695C454.72 301.698 457.482 301.785 460.245 301.955C463.025 302.12 465.792 302.444 468.534 302.925C465.792 303.408 463.025 303.732 460.245 303.895C457.479 304.075 454.716 304.163 451.957 304.16C449.197 304.157 446.434 304.068 443.668 303.895C440.889 303.727 438.121 303.403 435.379 302.925Z" fill="url(#paint22_linear_302_7)"/>
<path d="M435.379 242.58C438.121 242.101 440.889 241.779 443.668 241.615C446.431 241.435 449.194 241.347 451.957 241.35C454.72 241.354 457.482 241.44 460.245 241.61C463.025 241.773 465.792 242.097 468.534 242.58C465.792 243.063 463.025 243.387 460.245 243.55C457.479 243.73 454.716 243.819 451.957 243.815C449.192 243.815 446.457 243.73 443.668 243.545C440.889 243.382 438.121 243.059 435.379 242.58Z" fill="url(#paint23_linear_302_7)"/>
<path d="M435.379 182.425C438.121 181.946 440.889 181.624 443.668 181.46C446.432 181.28 449.167 181.195 451.957 181.19C454.746 181.185 457.481 181.275 460.245 181.455C463.025 181.618 465.792 181.942 468.534 182.425C465.792 182.908 463.025 183.232 460.245 183.395C457.479 183.575 454.716 183.663 451.957 183.66C449.192 183.66 446.457 183.57 443.668 183.39C440.889 183.227 438.121 182.904 435.379 182.425Z" fill="url(#paint24_linear_302_7)"/>
<path d="M435.379 122.08C438.121 121.601 440.889 121.278 443.668 121.115C446.432 120.93 449.167 120.85 451.957 120.845C454.746 120.84 457.481 120.93 460.245 121.11C463.025 121.273 465.792 121.597 468.534 122.08C465.792 122.563 463.025 122.887 460.245 123.05C457.479 123.23 454.716 123.317 451.957 123.31C449.197 123.303 446.434 123.215 443.668 123.045C440.889 122.881 438.121 122.559 435.379 122.08Z" fill="url(#paint25_linear_302_7)"/>
<path d="M686.049 544.12C688.791 543.642 691.559 543.318 694.338 543.15C697.104 542.97 699.867 542.882 702.626 542.885C705.386 542.888 708.149 542.977 710.915 543.15C713.695 543.313 716.462 543.636 719.204 544.12C716.462 544.601 713.694 544.925 710.915 545.09C708.149 545.27 705.386 545.356 702.626 545.35C699.867 545.343 697.104 545.255 694.338 545.085C691.559 544.921 688.791 544.599 686.049 544.12Z" fill="url(#paint26_linear_302_7)"/>
<path d="M686.049 61.7351C688.791 61.2569 691.559 60.9331 694.338 60.7651C697.104 60.5851 699.867 60.4968 702.626 60.5001C705.386 60.5034 708.149 60.5918 710.915 60.7651C713.695 60.9278 716.462 61.2517 719.204 61.7351C716.462 62.2185 713.695 62.5423 710.915 62.7051C708.149 62.8851 705.386 62.9718 702.626 62.9651C699.867 62.9584 697.104 62.8701 694.338 62.7001C691.559 62.5363 688.791 62.2141 686.049 61.7351Z" fill="url(#paint27_linear_302_7)"/>
<path d="M672.189 1.57995C677.239 1.07995 682.293 0.79994 687.342 0.61994C692.392 0.43994 697.446 0.349946 702.5 0.344946C707.554 0.339946 712.604 0.419951 717.653 0.614951C722.702 0.809951 727.757 1.06495 732.811 1.57995C727.757 2.07995 722.707 2.35995 717.653 2.53995C712.599 2.71995 707.549 2.80994 702.5 2.80994C697.451 2.80994 692.397 2.73495 687.342 2.53495C682.288 2.33495 677.244 2.08995 672.189 1.57995Z" fill="url(#paint28_linear_302_7)"/>
<path d="M686.049 483.775C688.791 483.297 691.559 482.973 694.338 482.805C697.104 482.625 699.867 482.537 702.626 482.54C705.391 482.54 708.126 482.62 710.915 482.805C713.695 482.968 716.462 483.292 719.204 483.775C716.462 484.254 713.694 484.577 710.915 484.745C708.149 484.925 705.386 485.012 702.626 485.005C699.867 484.998 697.104 484.91 694.338 484.74C691.559 484.576 688.791 484.254 686.049 483.775Z" fill="url(#paint29_linear_302_7)"/>
<path d="M686.049 423.425C688.791 422.946 691.559 422.624 694.338 422.46C697.104 422.28 699.867 422.192 702.626 422.195C705.391 422.195 708.126 422.275 710.915 422.46C713.694 422.623 716.462 422.946 719.204 423.425C716.462 423.908 713.695 424.232 710.915 424.395C708.151 424.58 705.416 424.66 702.626 424.66C699.837 424.66 697.127 424.575 694.338 424.395C691.558 424.232 688.791 423.908 686.049 423.425Z" fill="url(#paint30_linear_302_7)"/>
<path d="M686.049 363.27C688.791 362.791 691.559 362.469 694.338 362.305C697.104 362.125 699.867 362.037 702.626 362.04C705.386 362.043 708.149 362.13 710.915 362.3C713.694 362.465 716.462 362.789 719.204 363.27C716.462 363.754 713.695 364.077 710.915 364.24C708.149 364.42 705.386 364.508 702.626 364.505C699.867 364.502 697.104 364.413 694.338 364.24C691.559 364.072 688.791 363.748 686.049 363.27Z" fill="url(#paint31_linear_302_7)"/>
<path d="M686.049 302.925C688.791 302.446 691.559 302.124 694.338 301.96C697.104 301.78 699.867 301.692 702.626 301.695C705.386 301.698 708.149 301.785 710.915 301.955C713.694 302.12 716.462 302.444 719.204 302.925C716.462 303.408 713.695 303.732 710.915 303.895C708.149 304.075 705.386 304.163 702.626 304.16C699.867 304.157 697.104 304.068 694.338 303.895C691.559 303.727 688.791 303.403 686.049 302.925Z" fill="url(#paint32_linear_302_7)"/>
<path d="M686.049 242.58C688.791 242.101 691.559 241.779 694.338 241.615C697.104 241.435 699.867 241.347 702.626 241.35C705.386 241.354 708.149 241.44 710.915 241.61C713.695 241.773 716.462 242.097 719.204 242.58C716.462 243.064 713.695 243.387 710.915 243.55C708.149 243.73 705.386 243.819 702.626 243.815C699.867 243.815 697.127 243.73 694.338 243.545C691.559 243.381 688.791 243.059 686.049 242.58Z" fill="url(#paint33_linear_302_7)"/>
<path d="M686.049 182.425C688.791 181.946 691.559 181.624 694.338 181.46C697.102 181.28 699.867 181.195 702.626 181.19C705.386 181.185 708.126 181.275 710.915 181.455C713.695 181.618 716.462 181.942 719.204 182.425C716.462 182.908 713.695 183.232 710.915 183.395C708.149 183.575 705.386 183.663 702.626 183.66C699.867 183.66 697.127 183.57 694.338 183.39C691.559 183.226 688.791 182.904 686.049 182.425Z" fill="url(#paint34_linear_302_7)"/>
<path d="M686.049 122.08C688.791 121.601 691.559 121.279 694.338 121.115C697.102 120.93 699.867 120.85 702.626 120.845C705.386 120.84 708.126 120.93 710.915 121.11C713.695 121.273 716.462 121.597 719.204 122.08C716.462 122.563 713.695 122.887 710.915 123.05C708.149 123.23 705.386 123.317 702.626 123.31C699.867 123.303 697.104 123.215 694.338 123.045C691.559 122.881 688.791 122.559 686.049 122.08Z" fill="url(#paint35_linear_302_7)"/>
<defs>
<linearGradient id="paint0_linear_302_7" x1="0" y1="614.52" x2="903.657" y2="614.52" gradientUnits="userSpaceOnUse">
<stop stop-color="#89D0F4" stop-opacity="0.3"/>
<stop offset="0.39" stop-color="#9BC7EF"/>
<stop offset="1" stop-color="#36ADE8"/>
</linearGradient>
<linearGradient id="paint1_linear_302_7" x1="0" y1="1.58" x2="903.657" y2="1.58" gradientUnits="userSpaceOnUse">
<stop stop-color="#73BCE3"/>
<stop offset="0.49" stop-color="#9BC7EF"/>
<stop offset="1" stop-color="#51ADE8"/>
</linearGradient>
<linearGradient id="paint2_linear_302_7" x1="0" y1="483.775" x2="903.657" y2="483.775" gradientUnits="userSpaceOnUse">
<stop stop-color="#73BCE3"/>
<stop offset="0.49" stop-color="#9BC7EF"/>
<stop offset="1" stop-color="#51ADE8"/>
</linearGradient>
<linearGradient id="paint3_linear_302_7" x1="0" y1="363.27" x2="903.657" y2="363.27" gradientUnits="userSpaceOnUse">
<stop stop-color="#73BCE3"/>
<stop offset="0.49" stop-color="#9BC7EF"/>
<stop offset="1" stop-color="#51ADE8"/>
</linearGradient>
<linearGradient id="paint4_linear_302_7" x1="0" y1="242.58" x2="903.657" y2="242.58" gradientUnits="userSpaceOnUse">
<stop stop-color="#73BCE3"/>
<stop offset="0.49" stop-color="#9BC7EF"/>
<stop offset="1" stop-color="#51ADE8"/>
</linearGradient>
<linearGradient id="paint5_linear_302_7" x1="0" y1="122.08" x2="903.657" y2="122.08" gradientUnits="userSpaceOnUse">
<stop stop-color="#73BCE3"/>
<stop offset="0.49" stop-color="#9BC7EF"/>
<stop offset="1" stop-color="#51ADE8"/>
</linearGradient>
<linearGradient id="paint6_linear_302_7" x1="184.709" y1="544.12" x2="217.864" y2="544.12" gradientUnits="userSpaceOnUse">
<stop stop-color="#ABE1F5"/>
<stop offset="0.52" stop-color="white"/>
<stop offset="1" stop-color="#B8E9F7"/>
</linearGradient>
<linearGradient id="paint7_linear_302_7" x1="184.709" y1="61.7351" x2="217.864" y2="61.7351" gradientUnits="userSpaceOnUse">
<stop stop-color="#ABE1F5"/>
<stop offset="0.52" stop-color="white"/>
<stop offset="1" stop-color="#B8E9F7"/>
</linearGradient>
<linearGradient id="paint8_linear_302_7" x1="170.846" y1="1.57994" x2="231.467" y2="1.57994" gradientUnits="userSpaceOnUse">
<stop stop-color="#ABE1F5"/>
<stop offset="0.52" stop-color="white"/>
<stop offset="1" stop-color="#B8E9F7"/>
</linearGradient>
<linearGradient id="paint9_linear_302_7" x1="184.709" y1="483.775" x2="217.864" y2="483.775" gradientUnits="userSpaceOnUse">
<stop stop-color="#ABE1F5"/>
<stop offset="0.52" stop-color="white"/>
<stop offset="1" stop-color="#B8E9F7"/>
</linearGradient>
<linearGradient id="paint10_linear_302_7" x1="184.709" y1="423.425" x2="217.864" y2="423.425" gradientUnits="userSpaceOnUse">
<stop stop-color="#ABE1F5"/>
<stop offset="0.52" stop-color="white"/>
<stop offset="1" stop-color="#B8E9F7"/>
</linearGradient>
<linearGradient id="paint11_linear_302_7" x1="184.709" y1="363.27" x2="217.864" y2="363.27" gradientUnits="userSpaceOnUse">
<stop stop-color="#ABE1F5"/>
<stop offset="0.52" stop-color="white"/>
<stop offset="1" stop-color="#B8E9F7"/>
</linearGradient>
<linearGradient id="paint12_linear_302_7" x1="184.709" y1="302.925" x2="217.864" y2="302.925" gradientUnits="userSpaceOnUse">
<stop stop-color="#ABE1F5"/>
<stop offset="0.52" stop-color="white"/>
<stop offset="1" stop-color="#B8E9F7"/>
</linearGradient>
<linearGradient id="paint13_linear_302_7" x1="184.709" y1="242.58" x2="217.864" y2="242.58" gradientUnits="userSpaceOnUse">
<stop stop-color="#ABE1F5"/>
<stop offset="0.52" stop-color="white"/>
<stop offset="1" stop-color="#B8E9F7"/>
</linearGradient>
<linearGradient id="paint14_linear_302_7" x1="184.709" y1="182.425" x2="217.864" y2="182.425" gradientUnits="userSpaceOnUse">
<stop stop-color="#ABE1F5"/>
<stop offset="0.52" stop-color="white"/>
<stop offset="1" stop-color="#B8E9F7"/>
</linearGradient>
<linearGradient id="paint15_linear_302_7" x1="184.709" y1="122.08" x2="217.864" y2="122.08" gradientUnits="userSpaceOnUse">
<stop stop-color="#ABE1F5"/>
<stop offset="0.52" stop-color="white"/>
<stop offset="1" stop-color="#B8E9F7"/>
</linearGradient>
<linearGradient id="paint16_linear_302_7" x1="435.379" y1="544.12" x2="468.534" y2="544.12" gradientUnits="userSpaceOnUse">
<stop stop-color="#ABE1F5"/>
<stop offset="0.52" stop-color="white"/>
<stop offset="1" stop-color="#B8E9F7"/>
</linearGradient>
<linearGradient id="paint17_linear_302_7" x1="435.379" y1="61.7351" x2="468.534" y2="61.7351" gradientUnits="userSpaceOnUse">
<stop stop-color="#ABE1F5"/>
<stop offset="0.52" stop-color="white"/>
<stop offset="1" stop-color="#B8E9F7"/>
</linearGradient>
<linearGradient id="paint18_linear_302_7" x1="421.516" y1="1.57995" x2="482.142" y2="1.57995" gradientUnits="userSpaceOnUse">
<stop stop-color="#ABE1F5"/>
<stop offset="0.52" stop-color="white"/>
<stop offset="1" stop-color="#B8E9F7"/>
</linearGradient>
<linearGradient id="paint19_linear_302_7" x1="435.379" y1="483.775" x2="468.534" y2="483.775" gradientUnits="userSpaceOnUse">
<stop stop-color="#ABE1F5"/>
<stop offset="0.52" stop-color="white"/>
<stop offset="1" stop-color="#B8E9F7"/>
</linearGradient>
<linearGradient id="paint20_linear_302_7" x1="435.379" y1="423.425" x2="468.534" y2="423.425" gradientUnits="userSpaceOnUse">
<stop stop-color="#ABE1F5"/>
<stop offset="0.52" stop-color="white"/>
<stop offset="1" stop-color="#B8E9F7"/>
</linearGradient>
<linearGradient id="paint21_linear_302_7" x1="435.379" y1="363.27" x2="468.534" y2="363.27" gradientUnits="userSpaceOnUse">
<stop stop-color="#ABE1F5"/>
<stop offset="0.52" stop-color="white"/>
<stop offset="1" stop-color="#B8E9F7"/>
</linearGradient>
<linearGradient id="paint22_linear_302_7" x1="435.379" y1="302.925" x2="468.534" y2="302.925" gradientUnits="userSpaceOnUse">
<stop stop-color="#ABE1F5"/>
<stop offset="0.52" stop-color="white"/>
<stop offset="1" stop-color="#B8E9F7"/>
</linearGradient>
<linearGradient id="paint23_linear_302_7" x1="435.379" y1="242.58" x2="468.534" y2="242.58" gradientUnits="userSpaceOnUse">
<stop stop-color="#ABE1F5"/>
<stop offset="0.52" stop-color="white"/>
<stop offset="1" stop-color="#B8E9F7"/>
</linearGradient>
<linearGradient id="paint24_linear_302_7" x1="435.379" y1="182.425" x2="468.534" y2="182.425" gradientUnits="userSpaceOnUse">
<stop stop-color="#ABE1F5"/>
<stop offset="0.52" stop-color="white"/>
<stop offset="1" stop-color="#B8E9F7"/>
</linearGradient>
<linearGradient id="paint25_linear_302_7" x1="435.379" y1="122.08" x2="468.534" y2="122.08" gradientUnits="userSpaceOnUse">
<stop stop-color="#ABE1F5"/>
<stop offset="0.52" stop-color="white"/>
<stop offset="1" stop-color="#B8E9F7"/>
</linearGradient>
<linearGradient id="paint26_linear_302_7" x1="686.049" y1="544.12" x2="719.204" y2="544.12" gradientUnits="userSpaceOnUse">
<stop stop-color="#ABE1F5"/>
<stop offset="0.52" stop-color="white"/>
<stop offset="1" stop-color="#B8E9F7"/>
</linearGradient>
<linearGradient id="paint27_linear_302_7" x1="686.049" y1="61.7351" x2="719.204" y2="61.7351" gradientUnits="userSpaceOnUse">
<stop stop-color="#ABE1F5"/>
<stop offset="0.52" stop-color="white"/>
<stop offset="1" stop-color="#B8E9F7"/>
</linearGradient>
<linearGradient id="paint28_linear_302_7" x1="672.189" y1="1.57994" x2="732.811" y2="1.57994" gradientUnits="userSpaceOnUse">
<stop stop-color="#ABE1F5"/>
<stop offset="0.52" stop-color="white"/>
<stop offset="1" stop-color="#B8E9F7"/>
</linearGradient>
<linearGradient id="paint29_linear_302_7" x1="686.049" y1="483.775" x2="719.204" y2="483.775" gradientUnits="userSpaceOnUse">
<stop stop-color="#ABE1F5"/>
<stop offset="0.52" stop-color="white"/>
<stop offset="1" stop-color="#B8E9F7"/>
</linearGradient>
<linearGradient id="paint30_linear_302_7" x1="686.049" y1="423.425" x2="719.204" y2="423.425" gradientUnits="userSpaceOnUse">
<stop stop-color="#ABE1F5"/>
<stop offset="0.52" stop-color="white"/>
<stop offset="1" stop-color="#B8E9F7"/>
</linearGradient>
<linearGradient id="paint31_linear_302_7" x1="686.049" y1="363.27" x2="719.204" y2="363.27" gradientUnits="userSpaceOnUse">
<stop stop-color="#ABE1F5"/>
<stop offset="0.52" stop-color="white"/>
<stop offset="1" stop-color="#B8E9F7"/>
</linearGradient>
<linearGradient id="paint32_linear_302_7" x1="686.049" y1="302.925" x2="719.204" y2="302.925" gradientUnits="userSpaceOnUse">
<stop stop-color="#ABE1F5"/>
<stop offset="0.52" stop-color="white"/>
<stop offset="1" stop-color="#B8E9F7"/>
</linearGradient>
<linearGradient id="paint33_linear_302_7" x1="686.049" y1="242.58" x2="719.204" y2="242.58" gradientUnits="userSpaceOnUse">
<stop stop-color="#ABE1F5"/>
<stop offset="0.52" stop-color="white"/>
<stop offset="1" stop-color="#B8E9F7"/>
</linearGradient>
<linearGradient id="paint34_linear_302_7" x1="686.049" y1="182.425" x2="719.204" y2="182.425" gradientUnits="userSpaceOnUse">
<stop stop-color="#ABE1F5"/>
<stop offset="0.52" stop-color="white"/>
<stop offset="1" stop-color="#B8E9F7"/>
</linearGradient>
<linearGradient id="paint35_linear_302_7" x1="686.049" y1="122.08" x2="719.204" y2="122.08" gradientUnits="userSpaceOnUse">
<stop stop-color="#ABE1F5"/>
<stop offset="0.52" stop-color="white"/>
<stop offset="1" stop-color="#B8E9F7"/>
</linearGradient>
</defs>
</svg>
