<svg width="903" height="194" viewBox="0 0 903 194" fill="none" xmlns="http://www.w3.org/2000/svg">
<path d="M200.107 0C204.413 0.0155261 208.684 0.761111 212.741 2.20502C216.799 3.64449 220.681 5.5382 224.314 7.85004C227.933 10.21 230.943 13.39 233.563 16.795C236.133 20.2513 238.425 23.9061 240.417 27.725C242.416 31.53 244.231 35.44 245.916 39.4C247.601 43.36 249.135 47.37 250.615 51.4C253.57 59.475 256.234 67.645 258.844 75.825C264.078 92.185 268.983 108.65 274.872 124.77C277.811 132.825 281.006 140.77 284.67 148.535C285.595 150.47 286.54 152.39 287.53 154.29C288.03 155.235 288.53 156.185 289.03 157.12C289.29 157.59 289.53 158.065 289.805 158.525L290.64 159.865C291.799 161.627 293.14 163.262 294.639 164.745C296.142 166.244 297.748 167.638 299.443 168.915C302.877 171.447 306.527 173.67 310.352 175.56C314.178 177.467 318.108 179.157 322.125 180.62C326.125 182.12 330.234 183.37 334.358 184.51C336.418 185.095 338.498 185.6 340.578 186.12C342.657 186.64 344.747 187.09 346.852 187.505C363.644 190.95 380.797 192.505 397.939 192.69L449.432 192.85L903 193L449.432 193.345L397.909 193.47C393.61 193.47 389.316 193.32 385.016 193.135C380.717 192.95 376.432 192.635 372.153 192.19C367.874 191.745 363.604 191.275 359.35 190.635C357.22 190.34 355.1 189.965 352.976 189.635C350.851 189.305 348.741 188.875 346.642 188.425C344.542 187.975 342.432 187.515 340.333 187.045C338.233 186.575 336.153 186.045 334.083 185.435C329.934 184.295 325.815 183.025 321.765 181.545C317.712 180.075 313.744 178.377 309.882 176.46C305.999 174.553 302.293 172.304 298.808 169.74C297.077 168.43 295.438 167.002 293.904 165.465C292.35 163.933 290.961 162.242 289.76 160.42L288.9 159.025C288.625 158.555 288.4 158.08 288.12 157.61C287.62 156.665 287.12 155.71 286.62 154.755C285.62 152.845 284.68 150.91 283.761 148.965C280.091 141.18 276.902 133.18 273.967 125.1C268.108 108.93 263.183 92.465 258.069 76.075C255.5 67.885 252.88 59.705 249.975 51.635C248.521 47.6 246.976 43.585 245.351 39.635C243.726 35.685 241.927 31.77 239.952 27.97C238.006 24.1533 235.761 20.4968 233.238 17.035C230.668 13.625 227.713 10.445 224.149 8.07001C220.543 5.73296 216.686 3.8092 212.651 2.33502C208.63 0.857812 204.39 0.0684143 200.107 0Z" fill="white"/>
<path d="M200.042 0.00025815C196.797 0.0371929 193.571 0.502902 190.448 1.38527C188.89 1.82162 187.356 2.34068 185.854 2.94026C184.354 3.55026 182.882 4.21693 181.439 4.94026C178.58 6.44026 175.715 8.00526 173.28 10.1253C172.054 11.1723 170.9 12.3016 169.826 13.5053C168.745 14.7046 167.726 15.9579 166.771 17.2603C162.947 22.4703 159.907 28.2203 157.218 34.1003C154.528 39.9803 152.218 46.0403 150.024 52.1403C141.375 76.5753 134.746 101.705 125.822 126.11C123.578 132.2 121.178 138.24 118.543 144.18C117.21 147.15 115.817 150.089 114.364 152.995C113.634 154.445 112.864 155.885 112.099 157.315C111.694 158.025 111.344 158.745 110.889 159.445C110.475 160.158 110.019 160.846 109.524 161.505C107.555 164.136 105.253 166.501 102.675 168.54C100.13 170.591 97.4211 172.43 94.5766 174.04C88.8929 177.238 82.9228 179.898 76.7441 181.985C70.6015 184.113 64.3401 185.881 57.9918 187.28C51.6577 188.705 45.2586 189.835 38.8245 190.715C25.9539 192.409 12.9811 193.206 0 193.1C12.9692 193.041 25.9186 192.081 38.7545 190.225C45.1686 189.295 51.5427 188.125 57.8518 186.655C64.1626 185.218 70.384 183.414 76.4842 181.25C79.5337 180.18 82.5333 178.97 85.4829 177.66C88.4335 176.354 91.3137 174.893 94.1117 173.285C96.9124 171.694 99.5791 169.878 102.086 167.855C104.595 165.86 106.837 163.549 108.755 160.98C109.229 160.338 109.668 159.671 110.069 158.98C110.499 158.32 110.859 157.58 111.254 156.88C112.024 155.455 112.754 154.025 113.494 152.575C114.949 149.69 116.319 146.76 117.633 143.8C120.243 137.88 122.633 131.85 124.847 125.77C129.347 113.61 133.236 101.27 137.126 88.8703C141.015 76.4703 144.81 64.0853 149.269 51.8703C151.494 45.7753 153.878 39.7253 156.618 33.8303C159.357 27.9353 162.447 22.1803 166.351 16.9603C167.331 15.6588 168.376 14.4072 169.481 13.2103C170.582 12.0072 171.763 10.8797 173.016 9.83528C175.515 7.72028 178.415 6.18528 181.304 4.71528C182.761 3.99528 184.247 3.34026 185.764 2.75026C187.279 2.16794 188.824 1.66723 190.393 1.25026C193.54 0.408396 196.784 -0.0119428 200.042 0.00025815Z" fill="white"/>
<path opacity="0.5" fill-rule="evenodd" clip-rule="evenodd" d="M0.0195312 193.1C53.417 193.1 99.6154 178.76 110.839 158.655C138.055 109.92 147.834 24.855 176.735 7.41504C184.923 2.47004 192.482 0 200.041 0H200.106C207.665 0 215.224 2.47004 223.413 7.41504C252.309 24.855 262.087 109.915 289.304 158.655C300.532 178.76 346.73 193.1 400.123 193.1H500.999" fill="url(#paint0_linear_296_703)"/>
<defs>
<linearGradient id="paint0_linear_296_703" x1="250.509" y1="193.1" x2="250.509" y2="0" gradientUnits="userSpaceOnUse">
<stop stop-color="white" stop-opacity="0.2"/>
<stop offset="0.08" stop-color="#FFF7FA" stop-opacity="0.35"/>
<stop offset="0.19" stop-color="#FFEDF4" stop-opacity="0.52"/>
<stop offset="0.31" stop-color="#FFE4EF" stop-opacity="0.67"/>
<stop offset="0.42" stop-color="#FFDDEB" stop-opacity="0.79"/>
<stop offset="0.55" stop-color="#FFD8E8" stop-opacity="0.88"/>
<stop offset="0.68" stop-color="#FFD4E6" stop-opacity="0.95"/>
<stop offset="0.82" stop-color="#FFD2E4" stop-opacity="0.99"/>
<stop offset="1" stop-color="#FFD1E4"/>
</linearGradient>
</defs>
</svg>
