<svg width="903" height="615" viewBox="0 0 903 615" fill="none" xmlns="http://www.w3.org/2000/svg" preserveAspectRatio="none">
<path d="M200.123 0C201.682 0.00631697 203.224 0.318903 204.662 0.919998C206.09 1.52949 207.434 2.31925 208.662 3.27C211.104 5.21593 213.288 7.46578 215.161 9.965C217.045 12.4412 218.779 15.0275 220.355 17.71C221.145 19.0433 221.912 20.3967 222.655 21.77C223.39 23.14 224.13 24.51 224.78 25.93C227.399 31.585 229.329 37.525 231.049 43.5C232.768 49.475 234.203 55.535 235.548 61.61C238.183 73.765 240.347 86.015 242.262 98.3C244.177 110.585 245.882 122.9 247.476 135.225C250.646 159.885 253.375 184.595 255.975 209.31C258.575 234.025 260.974 258.77 263.424 283.505C268.328 332.965 273.283 382.425 279.422 431.735C282.526 456.385 285.961 481 290.245 505.46C292.403 517.649 295.977 529.545 300.894 540.905C305.804 552.271 312.192 562.939 319.891 572.635C327.584 582.336 336.749 590.771 347.052 597.635C357.374 604.495 368.884 609.37 380.992 612.01C387.043 613.304 393.208 613.987 399.395 614.05H418.027L455.302 614.08L604.406 614.205L902.604 614.485L604.406 614.77L455.302 614.89L418.027 614.925H399.385C393.135 614.896 386.905 614.238 380.787 612.96C368.533 610.353 356.872 605.483 346.402 598.6C335.951 591.711 326.645 583.227 318.821 573.455C314.893 568.595 311.308 563.468 308.093 558.11C304.869 552.759 301.997 547.204 299.494 541.48C294.51 530.015 290.881 518.007 288.681 505.7C284.346 481.2 280.872 456.575 277.717 431.915C271.428 382.585 266.644 333.095 261.804 283.625C259.395 258.888 256.955 234.155 254.485 209.425C251.986 184.7 249.391 159.99 246.342 135.33C244.842 123 243.177 110.685 241.342 98.405C239.507 86.125 237.448 73.865 234.908 61.71C233.628 55.635 232.228 49.585 230.579 43.605C228.929 37.625 227.039 31.695 224.48 26.045C223.845 24.635 223.12 23.265 222.395 21.89C221.67 20.515 220.895 19.165 220.135 17.825C218.588 15.135 216.885 12.5373 215.036 10.045C213.205 7.53923 211.063 5.27613 208.662 3.31C207.438 2.34628 206.093 1.54623 204.662 0.930008C203.225 0.325608 201.682 0.00961478 200.123 0Z" fill="white"/>
<path d="M200.057 0C198.255 0.0350225 196.483 0.474148 194.873 1.285C193.267 2.07852 191.777 3.08786 190.444 4.285C190.089 4.565 189.784 4.89 189.444 5.2C189.104 5.51 188.784 5.81001 188.489 6.15001C187.889 6.81501 187.259 7.45501 186.709 8.15001L185.854 9.185L185.059 10.315C184.789 10.68 184.515 11.03 184.26 11.4L183.495 12.51C181.487 15.4857 179.639 18.5668 177.96 21.74C177.551 22.54 177.106 23.32 176.721 24.13L175.561 26.555L174.511 29.03C174.156 29.855 173.871 30.705 173.546 31.53L173.046 32.79L172.611 34.065L171.746 36.61L170.951 39.185L170.556 40.47L170.192 41.765L169.457 44.36C169.217 45.225 169.002 46.095 168.772 46.965C168.307 48.7 167.887 50.465 167.472 52.19C165.807 59.19 164.382 66.225 163.083 73.295C160.473 87.43 158.338 101.65 156.398 115.895C154.459 130.14 152.749 144.42 151.129 158.71C144.71 215.875 139.551 273.21 133.797 330.435C130.877 359.06 127.798 387.67 124.348 416.235C122.612 430.522 120.752 444.79 118.769 459.04C116.769 473.29 114.584 487.54 112.09 501.695C111.78 503.47 111.48 505.24 111.09 507.01L110.59 509.67L110.33 510.995L110.02 512.315C109.595 514.07 109.22 515.815 108.755 517.58L107.335 522.815C105.286 529.736 102.753 536.504 99.7565 543.07C93.8245 556.261 85.8642 568.442 76.1648 579.17C66.4262 589.805 54.8179 598.82 41.7797 605.015C35.2766 608.128 28.4518 610.519 21.4276 612.145C14.4047 613.754 7.22031 614.551 0.015625 614.52C14.438 614.36 28.6403 610.963 41.5747 604.58C54.4879 598.295 65.9363 589.225 75.5049 578.58C85.0702 567.863 92.9019 555.716 98.7167 542.58C101.644 536.038 104.112 529.3 106.101 522.415L107.5 517.225C107.955 515.495 108.315 513.725 108.73 511.995L109.03 510.69L109.28 509.37L109.78 506.73C110.13 504.975 110.42 503.2 110.72 501.43C111.923 494.343 113.056 487.245 114.119 480.135C115.254 473.05 116.254 465.935 117.254 458.815C119.224 444.575 121.057 430.313 122.753 416.03C126.158 387.47 129.162 358.865 132.037 330.245C134.912 301.625 137.751 272.995 140.606 244.37C143.46 215.745 146.37 187.115 149.779 158.54C151.484 144.255 153.279 129.98 155.279 115.73C157.278 101.48 159.513 87.26 162.223 73.12C163.592 66.055 165.082 59.01 166.817 52.02C167.252 50.275 167.687 48.52 168.172 46.795C168.407 45.925 168.632 45.055 168.882 44.19L169.642 41.595L170.022 40.3L170.432 39.01L171.251 36.44L172.141 33.885L172.591 32.61L173.091 31.35C173.426 30.515 173.721 29.665 174.091 28.85L175.166 26.35L176.356 23.92C176.756 23.105 177.206 22.33 177.626 21.535C179.338 18.3616 181.223 15.2838 183.27 12.315L184.05 11.21C184.315 10.845 184.595 10.495 184.869 10.135L185.694 9.065L186.564 8.03C187.129 7.33 187.774 6.695 188.384 6.03C188.684 5.695 189.029 5.405 189.354 5.09C189.679 4.775 189.994 4.46001 190.354 4.18001C191.712 2.98869 193.225 1.98782 194.853 1.205C196.476 0.42053 198.254 0.00882665 200.057 0Z" fill="white"/>
<path opacity="0.5" fill-rule="evenodd" clip-rule="evenodd" d="M0.0351562 614.52C53.4326 614.52 99.6311 568.875 110.854 504.9C138.071 349.815 147.854 79.09 176.745 23.59C184.934 7.865 192.493 0 200.052 0H200.117C207.676 0 215.235 7.865 223.424 23.59C252.319 79.09 262.098 349.815 289.314 504.9C300.543 568.875 346.741 614.52 400.134 614.52H501.009" fill="url(#paint0_linear_296_719)"/>
<defs>
<linearGradient id="paint0_linear_296_719" x1="250.525" y1="614.52" x2="250.525" y2="0" gradientUnits="userSpaceOnUse">
<stop stop-color="white" stop-opacity="0.2"/>
<stop offset="0.08" stop-color="#FFF7FA" stop-opacity="0.35"/>
<stop offset="0.19" stop-color="#FFEDF4" stop-opacity="0.52"/>
<stop offset="0.31" stop-color="#FFE4EF" stop-opacity="0.67"/>
<stop offset="0.42" stop-color="#FFDDEB" stop-opacity="0.79"/>
<stop offset="0.55" stop-color="#FFD8E8" stop-opacity="0.88"/>
<stop offset="0.68" stop-color="#FFD4E6" stop-opacity="0.95"/>
<stop offset="0.82" stop-color="#FFD2E4" stop-opacity="0.99"/>
<stop offset="1" stop-color="#FFD1E4"/>
</linearGradient>
</defs>
</svg>
