<svg width="903" height="132" viewBox="0 0 903 132" fill="none" xmlns="http://www.w3.org/2000/svg" preserveAspectRatio="none">
<path d="M702.574 0C708.063 0.00297925 713.521 0.808107 718.777 2.38995C721.412 3.15116 723.998 4.07289 726.521 5.14996L728.396 6.00995C729.015 6.31495 729.595 6.68495 730.195 7.00995L731.09 7.50995C731.38 7.68995 731.655 7.89997 731.94 8.09497L733.63 9.27496C737.974 12.665 741.629 16.845 744.838 21.275C747.981 25.7742 750.838 30.4668 753.392 35.325C758.571 45 762.986 55.035 767.635 64.945C772.284 74.855 777.069 84.705 782.818 94C785.654 98.6616 788.815 103.118 792.277 107.335C794.095 109.331 796.203 111.042 798.531 112.41C800.856 113.822 803.282 115.06 805.79 116.115C815.838 120.375 826.547 122.905 837.285 124.965C848.048 126.936 858.904 128.36 869.811 129.23C880.714 130.165 891.662 130.61 902.611 130.695C891.662 130.745 880.704 130.435 869.781 129.635C858.849 128.844 847.965 127.496 837.17 125.595C831.776 124.625 826.407 123.475 821.107 122.06C818.463 121.34 815.823 120.56 813.219 119.71C810.614 118.86 808.034 117.885 805.505 116.81C802.963 115.745 800.502 114.497 798.141 113.075C795.738 111.669 793.562 109.908 791.687 107.85C788.185 103.612 784.989 99.131 782.123 94.44C776.369 85.08 771.589 75.19 766.965 65.265C762.341 55.34 757.921 45.315 752.847 35.625C750.333 30.773 747.52 26.0822 744.423 21.58C741.341 17.0812 737.639 13.0412 733.425 9.57996L731.765 8.38495C731.485 8.18995 731.215 7.97999 730.93 7.79999L730.05 7.29999C729.46 6.96499 728.891 6.58499 728.286 6.29999L726.441 5.42499C723.941 4.3225 721.377 3.3724 718.762 2.57996C713.522 0.930385 708.067 0.0611152 702.574 0Z" fill="white"/>
<path d="M702.51 0.000119644C698.522 0.0296052 694.55 0.500781 690.666 1.40509C686.789 2.31756 682.993 3.54839 679.318 5.08508C675.653 6.63789 672.285 8.8152 669.364 11.5201C666.443 14.2191 663.802 17.206 661.48 20.4351C656.781 26.8551 652.982 33.8851 649.422 41.0101C645.863 48.1351 642.608 55.4151 639.269 62.6501C635.929 69.8851 632.534 77.1151 628.77 84.1501C625.081 91.2408 620.842 98.0315 616.092 104.46C615.477 105.25 614.877 106.05 614.242 106.825C613.626 107.626 612.958 108.386 612.242 109.1C610.782 110.494 609.18 111.732 607.463 112.795C604.04 114.891 600.424 116.656 596.665 118.065C589.174 120.866 581.468 123.055 573.623 124.61C565.804 126.23 557.91 127.45 549.986 128.39C542.062 129.33 534.104 129.99 526.14 130.42C518.176 130.85 510.197 131.04 502.218 131.03H478.306L382.65 131L0.0390625 130.745L382.65 130.49L478.306 130.46C494.249 130.385 510.197 130.745 526.1 129.77C534.055 129.32 541.987 128.62 549.896 127.67C557.8 126.71 565.669 125.47 573.458 123.83C577.351 123.007 581.215 122.07 585.051 121.02C588.881 119.96 592.675 118.765 596.38 117.34C600.096 115.962 603.672 114.231 607.058 112.17C608.737 111.142 610.304 109.94 611.733 108.585C612.432 107.895 613.083 107.158 613.682 106.38C614.317 105.615 614.912 104.825 615.527 104.04C620.276 97.6555 624.517 90.9081 628.21 83.8601C631.975 76.8601 635.389 69.6401 638.749 62.4151C642.108 55.1901 645.408 47.9151 648.977 40.7851C652.547 33.6551 656.396 26.6251 661.14 20.1851C663.497 16.9526 666.177 13.9688 669.139 11.2801C672.107 8.58246 675.521 6.42037 679.228 4.89007C682.925 3.38091 686.741 2.18018 690.636 1.30011C694.534 0.427703 698.516 -0.00830015 702.51 0.000119644Z" fill="white"/>
<path opacity="0.5" fill-rule="evenodd" clip-rule="evenodd" d="M0.0449219 130.745H502.474C555.866 130.745 602.065 121.035 613.293 107.425C640.509 74.4246 650.288 16.8245 679.184 5.01953C687.373 1.66953 694.932 0.0195312 702.491 0.0195312H702.556C710.114 0.0195312 717.673 1.68953 725.862 5.01953C754.758 16.8245 764.542 74.4246 791.758 107.425C802.986 121.035 849.18 130.745 902.577 130.745" fill="url(#paint0_linear_296_642)"/>
<defs>
<linearGradient id="paint0_linear_296_642" x1="451.321" y1="130.745" x2="451.321" y2="-0.000465617" gradientUnits="userSpaceOnUse">
<stop stop-color="white" stop-opacity="0.2"/>
<stop offset="0.05" stop-color="#EFFAFD" stop-opacity="0.3"/>
<stop offset="0.16" stop-color="#D0F1FA" stop-opacity="0.48"/>
<stop offset="0.28" stop-color="#B5E9F7" stop-opacity="0.64"/>
<stop offset="0.41" stop-color="#9FE2F4" stop-opacity="0.77"/>
<stop offset="0.53" stop-color="#8EDDF2" stop-opacity="0.87"/>
<stop offset="0.67" stop-color="#82DAF1" stop-opacity="0.94"/>
<stop offset="0.82" stop-color="#7BD8F0" stop-opacity="0.99"/>
<stop offset="1" stop-color="#79D7F0"/>
</linearGradient>
</defs>
</svg>
