<svg width="904" height="495" viewBox="0 0 904 495" fill="none" xmlns="http://www.w3.org/2000/svg" preserveAspectRatio="none">
<path d="M452.031 0C454.205 0.0114626 456.35 0.492439 458.32 1.41C460.284 2.33033 462.116 3.50728 463.77 4.91C467.045 7.74424 469.966 10.9643 472.468 14.5C473.743 16.25 474.968 18.03 476.118 19.865C477.24 21.7185 478.258 23.6331 479.167 25.6C480.968 29.5364 482.545 33.5711 483.892 37.685C486.611 45.895 488.761 54.28 490.696 62.685C492.63 71.09 494.29 79.595 495.83 88.095C498.905 105.095 501.484 122.195 503.899 139.3C506.314 156.405 508.548 173.54 510.678 190.685C514.957 224.97 519.022 259.275 523.601 293.51C528.18 327.745 533.1 361.945 539.934 395.78L541.249 402.12C541.699 404.23 542.143 406.335 542.658 408.415C545.751 420.944 551.031 432.828 558.256 443.52C567.929 457.797 580.745 469.666 595.721 478.215C610.714 486.778 627.457 491.82 644.684 492.96C646.829 493.085 648.978 493.195 651.128 493.2C653.278 493.205 655.442 493.2 657.602 493.2H670.555L696.462 493.23L903.712 493.62L696.462 494.01L670.555 494.045H657.602C653.293 494.045 648.953 494.105 644.604 493.83C627.211 492.771 610.287 487.769 595.111 479.205C579.901 470.654 566.881 458.69 557.076 444.255C549.736 433.438 544.366 421.407 541.214 408.72C540.714 406.605 540.239 404.485 539.784 402.375L538.454 396.03C534.99 379.09 532.055 362.03 529.365 344.98C526.676 327.93 524.281 310.795 522.026 293.665C517.527 259.41 513.498 225.09 509.278 190.805C507.148 173.665 505.049 156.525 502.724 139.41C500.399 122.295 497.91 105.21 494.93 88.205C493.43 79.705 491.806 71.205 489.966 62.795C488.126 54.385 486.031 45.98 483.387 37.795C482.083 33.6864 480.547 29.655 478.787 25.72C477.893 23.76 476.891 21.8505 475.788 20C474.663 18.165 473.448 16.375 472.198 14.625C469.669 11.125 466.919 7.77498 463.635 4.97998C462.005 3.56647 460.194 2.37606 458.25 1.44C456.304 0.522307 454.183 0.0313387 452.031 0Z" fill="white"/>
<path d="M451.971 0C449.807 0.0380137 447.676 0.541053 445.722 1.47501C443.777 2.41161 441.965 3.60195 440.333 5.01498C437.049 7.81498 434.299 11.18 431.769 14.665C430.519 16.42 429.305 18.21 428.18 20.04C427.076 21.8939 426.075 23.8068 425.18 25.77C423.421 29.705 421.885 33.7365 420.581 37.845C417.936 46.06 415.862 54.45 414.002 62.875C412.142 71.3 410.532 79.79 409.038 88.295C406.038 105.295 403.568 122.4 401.244 139.52C398.919 156.64 396.814 173.785 394.69 190.93C390.47 225.225 386.456 259.55 381.931 293.82C379.677 310.955 377.282 328.075 374.587 345.15C371.893 362.225 368.963 379.27 365.494 396.215L364.164 402.565C363.709 404.675 363.259 406.795 362.724 408.905C361.675 413.126 360.375 417.28 358.83 421.345C355.752 429.485 351.725 437.234 346.831 444.43C337.005 458.859 323.964 470.811 308.737 479.345C293.545 487.891 276.608 492.868 259.209 493.9C254.874 494.17 250.54 494.1 246.211 494.105H233.252L207.341 494.07L0.0253906 493.68L207.341 493.29L233.252 493.26H246.211H252.71C254.859 493.26 257.009 493.15 259.154 493.025C276.385 491.908 293.138 486.89 308.147 478.35C315.622 474.099 322.585 469.004 328.899 463.165C332.052 460.251 335.04 457.163 337.848 453.915C340.649 450.66 343.259 447.246 345.667 443.69C352.921 432.993 358.225 421.096 361.334 408.55C361.834 406.475 362.299 404.37 362.749 402.255L364.069 395.915C370.908 362.07 375.767 327.845 380.412 293.615C385.056 259.385 389.065 225.055 393.345 190.76C395.471 173.61 397.731 156.477 400.124 139.36C402.538 122.245 405.123 105.15 408.193 88.135C409.732 79.635 411.397 71.135 413.322 62.715C415.247 54.295 417.411 45.905 420.131 37.715C421.477 33.5995 423.055 29.5631 424.855 25.625C425.764 23.6581 426.783 21.7435 427.905 19.89C429.055 18.05 430.279 16.27 431.554 14.52C434.055 10.9832 436.976 7.76303 440.253 4.92999C441.905 3.52555 443.738 2.34845 445.702 1.42999C447.665 0.509079 449.803 0.0213826 451.971 0Z" fill="white"/>
<path opacity="0.5" fill-rule="evenodd" clip-rule="evenodd" d="M151.078 493.665H251.949C305.341 493.665 351.54 457 362.768 405.605C389.984 281.015 399.763 63.535 428.659 18.95C436.848 6.31998 444.407 0 451.971 0H452.031C459.595 0 467.153 6.31998 475.342 18.95C504.233 63.535 514.017 281.015 541.233 405.605C552.461 457 598.66 493.665 652.052 493.665H752.923" fill="url(#paint0_linear_296_756)"/>
<defs>
<linearGradient id="paint0_linear_296_756" x1="452.001" y1="493.665" x2="452.001" y2="0" gradientUnits="userSpaceOnUse">
<stop stop-color="white" stop-opacity="0.2"/>
<stop offset="0.05" stop-color="#E9F8F8" stop-opacity="0.29"/>
<stop offset="0.18" stop-color="#B3E5E5" stop-opacity="0.51"/>
<stop offset="0.32" stop-color="#86D6D6" stop-opacity="0.69"/>
<stop offset="0.47" stop-color="#63CBCB" stop-opacity="0.82"/>
<stop offset="0.62" stop-color="#4AC2C2" stop-opacity="0.92"/>
<stop offset="0.79" stop-color="#3CBEBE" stop-opacity="0.98"/>
<stop offset="1" stop-color="#37BCBC"/>
</linearGradient>
</defs>
</svg>
