<svg width="502" height="194" viewBox="0 0 502 194" fill="none" xmlns="http://www.w3.org/2000/svg">
<path d="M200.123 0C204.428 0.0155261 208.7 0.761111 212.756 2.20502C216.814 3.64449 220.697 5.5382 224.33 7.85004C227.949 10.21 230.959 13.39 233.578 16.795C236.148 20.2513 238.44 23.9061 240.432 27.725C242.432 31.53 244.247 35.44 245.932 39.4C247.616 43.36 249.151 47.37 250.631 51.4C253.585 59.475 256.25 67.645 258.86 75.825C264.094 92.185 268.998 108.65 274.887 124.77C277.827 132.825 281.022 140.77 284.686 148.535C285.611 150.47 286.556 152.39 287.546 154.29C288.046 155.235 288.546 156.185 289.045 157.12C289.305 157.59 289.545 158.065 289.82 158.525L290.655 159.865C291.815 161.627 293.155 163.262 294.655 164.745C296.158 166.244 297.763 167.638 299.459 168.915C302.893 171.447 306.543 173.67 310.367 175.56C314.193 177.467 318.124 179.157 322.141 180.62C326.14 182.12 330.25 183.37 334.374 184.51C336.434 185.095 338.513 185.6 340.593 186.12C342.673 186.64 344.763 187.09 346.867 187.505C363.66 190.95 380.812 192.505 397.955 192.69L449.448 192.85L500.965 193.095L449.448 193.345L397.925 193.47C393.626 193.47 389.331 193.32 385.032 193.135C380.732 192.95 376.448 192.635 372.169 192.19C367.889 191.745 363.62 191.275 359.365 190.635C357.236 190.34 355.116 189.965 352.991 189.635C350.867 189.305 348.757 188.875 346.657 188.425C344.558 187.975 342.448 187.515 340.348 187.045C338.248 186.575 336.169 186.045 334.099 185.435C329.95 184.295 325.83 183.025 321.781 181.545C317.727 180.075 313.76 178.377 309.898 176.46C306.014 174.553 302.309 172.304 298.824 169.74C297.092 168.43 295.454 167.002 293.92 165.465C292.366 163.933 290.976 162.242 289.775 160.42L288.915 159.025C288.641 158.555 288.416 158.08 288.136 157.61C287.636 156.665 287.136 155.71 286.636 154.755C285.636 152.845 284.696 150.91 283.776 148.965C280.107 141.18 276.917 133.18 273.983 125.1C268.123 108.93 263.199 92.465 258.085 76.075C255.515 67.885 252.896 59.705 249.991 51.635C248.536 47.6 246.991 43.585 245.367 39.635C243.742 35.685 241.942 31.77 239.967 27.97C238.022 24.1533 235.777 20.4968 233.253 17.035C230.684 13.625 227.729 10.445 224.165 8.07001C220.559 5.73296 216.702 3.8092 212.666 2.33502C208.646 0.857812 204.406 0.0684143 200.123 0Z" fill="white"/>
<path d="M200.057 0.00025815C196.812 0.0371929 193.587 0.502902 190.464 1.38527C188.906 1.82162 187.372 2.34068 185.869 2.94026C184.37 3.55026 182.898 4.21693 181.455 4.94026C178.595 6.44026 175.731 8.00526 173.296 10.1253C172.069 11.1723 170.915 12.3016 169.842 13.5053C168.761 14.7046 167.741 15.9579 166.787 17.2603C162.963 22.4703 159.923 28.2203 157.233 34.1003C154.544 39.9803 152.234 46.0403 150.039 52.1403C141.391 76.5753 134.762 101.705 125.838 126.11C123.593 132.2 121.193 138.24 118.559 144.18C117.226 147.15 115.833 150.089 114.379 152.995C113.65 154.445 112.88 155.885 112.115 157.315C111.71 158.025 111.36 158.745 110.905 159.445C110.491 160.158 110.035 160.846 109.54 161.505C107.571 164.136 105.268 166.501 102.691 168.54C100.145 170.591 97.4367 172.43 94.5922 174.04C88.9085 177.238 82.9384 179.898 76.7598 181.985C70.6171 184.113 64.3557 185.881 58.0074 187.28C51.6733 188.705 45.2742 189.835 38.8401 190.715C25.9695 192.409 12.9967 193.206 0.015625 193.1C12.9848 193.041 25.9342 192.081 38.7701 190.225C45.1842 189.295 51.5583 188.125 57.8674 186.655C64.1782 185.218 70.3996 183.414 76.4998 181.25C79.5494 180.18 82.549 178.97 85.4985 177.66C88.4491 176.354 91.3293 174.893 94.1273 173.285C96.928 171.694 99.5948 169.878 102.101 167.855C104.611 165.86 106.852 163.549 108.77 160.98C109.245 160.338 109.684 159.671 110.085 158.98C110.515 158.32 110.875 157.58 111.27 156.88C112.04 155.455 112.77 154.025 113.51 152.575C114.964 149.69 116.334 146.76 117.649 143.8C120.259 137.88 122.648 131.85 124.863 125.77C129.362 113.61 133.252 101.27 137.141 88.8703C141.031 76.4703 144.825 64.0853 149.285 51.8703C151.509 45.7753 153.894 39.7253 156.633 33.8303C159.373 27.9353 162.463 22.1803 166.367 16.9603C167.347 15.6588 168.391 14.4072 169.497 13.2103C170.598 12.0072 171.779 10.8797 173.031 9.83528C175.531 7.72028 178.43 6.18528 181.32 4.71528C182.776 3.99528 184.263 3.34026 185.779 2.75026C187.295 2.16794 188.84 1.66723 190.409 1.25026C193.555 0.408396 196.8 -0.0119428 200.057 0.00025815Z" fill="white"/>
<path opacity="0.5" fill-rule="evenodd" clip-rule="evenodd" d="M0.0351562 193.1C53.4326 193.1 99.6311 178.76 110.854 158.655C138.071 109.92 147.849 24.855 176.75 7.41504C184.939 2.47004 192.498 0 200.057 0H200.122C207.681 0 215.24 2.47004 223.429 7.41504C252.324 24.855 262.103 109.915 289.319 158.655C300.548 178.76 346.746 193.1 400.139 193.1H501.014" fill="url(#paint0_linear_296_703)"/>
<defs>
<linearGradient id="paint0_linear_296_703" x1="250.525" y1="193.1" x2="250.525" y2="0" gradientUnits="userSpaceOnUse">
<stop stop-color="white" stop-opacity="0.2"/>
<stop offset="0.08" stop-color="#FFF7FA" stop-opacity="0.35"/>
<stop offset="0.19" stop-color="#FFEDF4" stop-opacity="0.52"/>
<stop offset="0.31" stop-color="#FFE4EF" stop-opacity="0.67"/>
<stop offset="0.42" stop-color="#FFDDEB" stop-opacity="0.79"/>
<stop offset="0.55" stop-color="#FFD8E8" stop-opacity="0.88"/>
<stop offset="0.68" stop-color="#FFD4E6" stop-opacity="0.95"/>
<stop offset="0.82" stop-color="#FFD2E4" stop-opacity="0.99"/>
<stop offset="1" stop-color="#FFD1E4"/>
</linearGradient>
</defs>
</svg>
