<svg width="904" height="132" viewBox="0 0 904 132" fill="none" xmlns="http://www.w3.org/2000/svg">
<path d="M452.033 0C457.404 0.0106524 462.746 0.790229 467.896 2.315C470.472 3.07089 473.008 3.95529 475.495 4.96497C477.981 5.99777 480.332 7.33105 482.494 8.935C484.652 10.5378 486.66 12.3335 488.493 14.3C490.336 16.2593 492.052 18.3334 493.632 20.5099C496.771 24.8709 499.61 29.4398 502.131 34.185C507.235 43.63 511.63 53.43 516.129 63.14C520.628 72.85 525.288 82.525 530.767 91.72C533.492 96.3238 536.497 100.756 539.766 104.99C540.171 105.52 540.591 106.035 541.016 106.555C541.441 107.075 541.85 107.585 542.305 108.055C543.23 109.005 544.233 109.875 545.305 110.655C547.455 112.218 549.744 113.581 552.144 114.725C556.981 117.004 561.997 118.88 567.142 120.335C572.271 121.835 577.475 123.085 582.715 124.155C593.216 126.241 603.821 127.765 614.485 128.72C625.149 129.72 635.852 130.255 646.561 130.41L903.769 130.745L775.162 130.965L646.551 131.01C635.827 130.89 625.109 130.385 614.42 129.42C603.728 128.488 593.092 126.986 582.56 124.92C577.295 123.86 572.061 122.635 566.912 121.1C561.737 119.613 556.692 117.703 551.829 115.39C549.392 114.219 547.067 112.827 544.885 111.23C543.791 110.422 542.767 109.522 541.825 108.54C541.326 108.04 540.916 107.51 540.501 106.99C540.086 106.47 539.656 105.945 539.251 105.41C535.979 101.143 532.973 96.6779 530.252 92.04C524.753 82.795 520.174 73.085 515.674 63.36C511.175 53.635 506.835 43.825 501.776 34.36C499.28 29.627 496.469 25.0667 493.362 20.71C490.223 16.395 486.663 12.325 482.364 9.125C480.232 7.51369 477.91 6.1703 475.45 5.125C472.98 4.092 470.459 3.18743 467.896 2.41498C462.751 0.855201 457.409 0.0419334 452.033 0Z" fill="white"/>
<path d="M451.972 1.76548e-05C446.605 0.0586803 441.273 0.885352 436.14 2.45497C433.577 3.23135 431.056 4.13755 428.586 5.17C426.126 6.2153 423.804 7.55869 421.672 9.17C417.387 12.38 413.828 16.45 410.673 20.77C407.563 25.1289 404.75 29.6926 402.254 34.43C397.195 43.875 392.856 53.69 388.351 63.43C383.847 73.17 379.238 82.87 373.758 92.12C371.04 96.7597 368.035 101.225 364.76 105.49C364.355 106.025 363.93 106.55 363.51 107.07C363.09 107.59 362.655 108.13 362.18 108.615C361.232 109.594 360.206 110.494 359.11 111.305C356.919 112.893 354.59 114.282 352.151 115.455C347.285 117.763 342.237 119.668 337.059 121.15C331.904 122.68 326.67 123.905 321.406 124.965C310.864 127.021 300.221 128.513 289.52 129.435C278.832 130.395 268.103 130.9 257.375 131.02L128.703 130.97L0.03125 130.75L257.37 130.415C268.083 130.265 278.792 129.73 289.46 128.735C300.129 127.783 310.739 126.263 321.246 124.18C326.49 123.11 331.694 121.86 336.829 120.365C341.972 118.911 346.988 117.038 351.826 114.765C354.227 113.621 356.52 112.262 358.676 110.705C359.747 109.928 360.75 109.061 361.675 108.115C362.132 107.637 362.564 107.136 362.97 106.615C363.39 106.115 363.815 105.58 364.22 105.05C367.49 100.817 370.496 96.3848 373.218 91.78C378.718 82.585 383.342 72.9 387.871 63.19C392.401 53.48 396.775 43.69 401.869 34.19C404.391 29.4422 407.23 24.8702 410.368 20.505C411.951 18.3305 413.667 16.2565 415.507 14.295C417.341 12.3274 419.349 10.53 421.507 8.92501C423.668 7.31096 426.018 5.96763 428.506 4.92501C430.992 3.91311 433.528 3.0286 436.105 2.27498C441.258 0.761855 446.602 -0.00424068 451.972 1.76548e-05Z" fill="white"/>
<path opacity="0.5" fill-rule="evenodd" clip-rule="evenodd" d="M151.08 130.745H251.951C305.343 130.745 351.542 121.035 362.77 107.425C389.986 74.4246 399.765 16.8245 428.661 5.01953C436.85 1.66953 444.409 0.0195312 451.973 0.0195312H452.033C459.596 0.0195312 467.155 1.68953 475.344 5.01953C504.235 16.8245 514.019 74.4246 541.235 107.425C552.463 121.035 598.662 130.745 652.054 130.745H752.925" fill="url(#paint0_linear_296_724)"/>
<defs>
<linearGradient id="paint0_linear_296_724" x1="452.003" y1="130.745" x2="452.003" y2="-0.000465617" gradientUnits="userSpaceOnUse">
<stop stop-color="white" stop-opacity="0.2"/>
<stop offset="0.05" stop-color="#E9F8F8" stop-opacity="0.29"/>
<stop offset="0.18" stop-color="#B3E5E5" stop-opacity="0.51"/>
<stop offset="0.32" stop-color="#86D6D6" stop-opacity="0.69"/>
<stop offset="0.47" stop-color="#63CBCB" stop-opacity="0.82"/>
<stop offset="0.62" stop-color="#4AC2C2" stop-opacity="0.92"/>
<stop offset="0.79" stop-color="#3CBEBE" stop-opacity="0.98"/>
<stop offset="1" stop-color="#37BCBC"/>
</linearGradient>
</defs>
</svg>
