<svg width="903" height="282" viewBox="0 0 903 282" fill="none" xmlns="http://www.w3.org/2000/svg">
<path d="M200.123 0C202.438 0.00562696 204.742 0.325186 206.972 0.949982C209.202 1.5808 211.356 2.45437 213.396 3.55499C215.439 4.64814 217.399 5.88981 219.26 7.26999C221.132 8.63829 222.92 10.1176 224.615 11.7C227.944 14.95 230.519 18.875 232.768 22.915C234.979 26.9899 236.94 31.196 238.638 35.51C242.072 44.115 244.792 53.01 247.291 61.89C249.791 70.77 251.996 79.795 254.105 88.8C262.559 124.8 269.213 161.26 279.057 196.9C281.522 205.8 284.216 214.64 287.266 223.35C288.029 225.53 288.82 227.697 289.64 229.85C290.432 231.991 291.39 234.068 292.505 236.06C294.767 240.044 297.527 243.723 300.719 247.01C307.083 253.62 314.772 258.88 322.906 263.155C331.092 267.39 339.687 270.786 348.557 273.29C366.29 278.375 384.797 280.555 403.254 280.375L458.746 280.405L902.599 280.785L458.746 281.165L403.254 281.2C384.757 281.435 366.115 279.43 348.262 274.31C339.317 271.798 330.648 268.391 322.386 264.14C314.162 259.835 306.388 254.53 299.889 247.81C296.623 244.459 293.798 240.705 291.48 236.64C290.333 234.598 289.347 232.47 288.531 230.275C287.704 228.108 286.906 225.933 286.136 223.75C283.046 215.01 280.392 206.135 277.927 197.21C273.023 179.355 268.928 161.295 265.014 143.21L259.18 116.085C257.255 107.04 255.31 98 253.251 88.99C251.191 79.98 249.021 70.99 246.591 62.075C244.22 53.1458 241.397 44.3428 238.133 35.7C236.488 31.3878 234.578 27.1814 232.413 23.105C230.214 19.06 227.694 15.135 224.415 11.88C222.743 10.292 220.978 8.80444 219.13 7.42502C217.288 6.03186 215.347 4.77515 213.321 3.66498C211.3 2.54831 209.162 1.65635 206.947 1.005C204.728 0.362399 202.433 0.0243012 200.123 0Z" fill="white"/>
<path d="M200.057 0C196.034 0.0820903 192.079 1.05724 188.479 2.85498C184.888 4.64813 181.53 6.87476 178.48 9.48502C176.932 10.751 175.486 12.1369 174.156 13.63C172.864 15.152 171.668 16.7535 170.576 18.425C168.431 21.804 166.538 25.3369 164.912 28.995C161.681 36.3305 158.924 43.866 156.658 51.555C154.329 59.225 152.269 66.98 150.354 74.77C142.74 105.94 136.796 137.515 129.462 168.77C125.758 184.4 121.753 199.975 116.819 215.27C115.584 219.095 114.294 222.905 112.905 226.675C112.57 227.625 112.205 228.56 111.85 229.505L111.315 230.915L110.72 232.315C110.515 232.78 110.33 233.255 110.115 233.715L109.425 235.07C109.19 235.525 108.97 235.98 108.725 236.425L107.945 237.735C103.766 244.705 97.9468 250.535 91.5027 255.38C88.2638 257.783 84.8832 259.989 81.3791 261.985C77.8733 263.97 74.2674 265.772 70.5756 267.385C66.9012 269.03 63.1217 270.425 59.3272 271.745C57.4125 272.37 55.5078 273.015 53.573 273.56C51.6383 274.105 49.7036 274.655 47.7589 275.17C39.9611 277.121 32.0435 278.558 24.0572 279.47C16.0752 280.367 8.04775 280.798 0.015625 280.76C8.03844 280.697 16.0508 280.168 24.0122 279.175C31.9662 278.164 39.8454 276.633 47.5989 274.59C51.4683 273.555 55.3078 272.4 59.0973 271.09C62.8867 269.78 66.5962 268.335 70.2607 266.675C73.9129 265.045 77.4803 263.231 80.9492 261.24C84.4113 259.237 87.7502 257.028 90.9478 254.625C94.13 252.211 97.105 249.535 99.8415 246.625C102.583 243.742 105.002 240.568 107.055 237.16L107.81 235.88C108.05 235.445 108.265 235 108.49 234.56L109.165 233.23C109.37 232.78 109.555 232.32 109.75 231.865L110.33 230.5L110.86 229.095C111.205 228.155 111.57 227.22 111.9 226.275C113.275 222.515 114.554 218.715 115.779 214.9C120.664 199.63 124.623 184.07 128.277 168.45C131.932 152.83 135.326 137.14 138.721 121.45C142.116 105.76 145.49 90.055 149.449 74.48C151.419 66.695 153.534 58.94 155.924 51.265C158.313 43.59 160.983 35.99 164.372 28.685C166.07 25.0441 168.034 21.5329 170.247 18.18C171.373 16.5071 172.602 14.9057 173.926 13.385C175.286 11.8954 176.76 10.5146 178.335 9.25497C181.423 6.6714 184.816 4.47668 188.439 2.72C192.063 0.965263 196.031 0.036287 200.057 0Z" fill="white"/>
<path opacity="0.5" fill-rule="evenodd" clip-rule="evenodd" d="M0.0351562 280.79C53.4326 280.79 99.6311 259.935 110.854 230.705C138.071 159.84 147.849 36.135 176.75 10.78C184.939 3.595 192.498 0 200.057 0H200.122C207.681 0 215.24 3.595 223.429 10.78C252.324 36.135 262.103 159.84 289.319 230.705C300.548 259.935 346.746 280.79 400.139 280.79H501.014" fill="url(#paint0_linear_296_707)"/>
<defs>
<linearGradient id="paint0_linear_296_707" x1="250.525" y1="280.79" x2="250.525" y2="0" gradientUnits="userSpaceOnUse">
<stop stop-color="white" stop-opacity="0.2"/>
<stop offset="0.08" stop-color="#FFF7FA" stop-opacity="0.35"/>
<stop offset="0.19" stop-color="#FFEDF4" stop-opacity="0.52"/>
<stop offset="0.31" stop-color="#FFE4EF" stop-opacity="0.67"/>
<stop offset="0.42" stop-color="#FFDDEB" stop-opacity="0.79"/>
<stop offset="0.55" stop-color="#FFD8E8" stop-opacity="0.88"/>
<stop offset="0.68" stop-color="#FFD4E6" stop-opacity="0.95"/>
<stop offset="0.82" stop-color="#FFD2E4" stop-opacity="0.99"/>
<stop offset="1" stop-color="#FFD1E4"/>
</linearGradient>
</defs>
</svg>
