<svg width="904" height="3" viewBox="0 0 904 3" fill="none" xmlns="http://www.w3.org/2000/svg" preserveAspectRatio="none">
<g opacity="0.5">
<path d="M250.715 1.25L263.288 1.065L275.861 0.919983L301.003 0.639954L351.296 0.294983C368.058 0.154983 384.821 0.145007 401.584 0.0700073L451.876 0L502.164 0.0700073L527.311 0.154968L539.884 0.204956L552.452 0.289978L602.745 0.639954L627.891 0.919983L640.46 1.065L653.033 1.25L640.46 1.44L627.891 1.58496L602.745 1.86499L552.452 2.21497L539.884 2.29999L527.311 2.34497L502.164 2.435L451.876 2.5L401.584 2.42999C384.821 2.35999 368.058 2.34996 351.296 2.20996L301.003 1.85999L275.861 1.57996L263.288 1.44L250.715 1.25Z" fill="white"/>
</g>
<path d="M0.0449219 1.24933L56.5219 0.874329L84.7629 0.70929L112.999 0.579285L225.958 0.184326L338.917 0.0292969L451.876 0.0393066L564.83 0.239319L621.312 0.444336L677.789 0.599304L903.702 1.24933L677.789 1.9043L621.312 2.05933L564.83 2.25934L451.876 2.45929L338.917 2.4743L225.958 2.31433L112.999 1.92432L84.7629 1.79431L56.5219 1.62933L0.0449219 1.24933Z" fill="white"/>
</svg>
