<svg width="903" height="615" viewBox="0 0 903 615" fill="none" xmlns="http://www.w3.org/2000/svg">
<path d="M702.576 0C704.384 0.0135719 706.166 0.432169 707.79 1.22501C709.418 2.00782 710.932 3.00867 712.29 4.2C712.65 4.48 712.96 4.805 713.29 5.11C713.62 5.415 713.96 5.715 714.26 6.05C714.874 6.715 715.514 7.35 716.079 8.05L716.949 9.08501L717.774 10.155C718.049 10.515 718.329 10.865 718.594 11.23L719.374 12.335C721.419 15.3006 723.301 18.3752 725.013 21.545C725.433 22.34 725.883 23.115 726.283 23.93L727.473 26.36L728.548 28.86C728.912 29.685 729.212 30.535 729.547 31.36L730.047 32.62L730.497 33.895L731.387 36.45L732.207 39.02L732.617 40.31L732.997 41.605L733.757 44.2C734.007 45.065 734.232 45.935 734.467 46.805C734.967 48.54 735.387 50.305 735.821 52.03C737.556 59.03 739.051 66.065 740.416 73.13C743.13 87.27 745.335 101.495 747.36 115.74C749.385 129.985 751.179 144.24 752.859 158.55C756.274 187.125 759.153 215.755 762.033 244.38C764.912 273.005 767.682 301.64 770.612 330.255C773.541 358.87 776.491 387.48 779.895 416.04C781.605 430.32 783.438 444.582 785.394 458.825C786.394 465.945 787.394 473.06 788.499 480.165C789.604 487.27 790.694 494.375 791.899 501.46C792.199 503.23 792.488 505.005 792.838 506.76L793.338 509.4L793.588 510.72L793.888 512.025C794.303 513.77 794.663 515.525 795.118 517.255L796.518 522.445C798.507 529.33 800.974 536.068 803.902 542.61C809.717 555.746 817.548 567.893 827.114 578.61C836.682 589.26 848.111 598.33 861.044 604.61C873.978 610.993 888.181 614.39 902.603 614.55C895.398 614.581 888.214 613.784 881.191 612.175C874.167 610.549 867.342 608.158 860.839 605.045C847.801 598.85 836.192 589.835 826.459 579.2C816.756 568.473 808.794 556.292 802.862 543.1C799.873 536.524 797.348 529.748 795.303 522.82L793.863 517.6C793.393 515.855 793.018 514.1 792.593 512.335L792.284 511.015L792.024 509.69L791.524 507.03C791.159 505.26 790.859 503.49 790.524 501.715C788.024 487.54 785.849 473.31 783.845 459.06C781.84 444.81 780 430.56 778.265 416.255C774.806 387.69 771.736 359.08 768.817 330.455C763.063 273.205 757.903 215.895 751.484 158.73C749.865 144.44 748.15 130.165 746.215 115.915C744.28 101.665 742.141 87.45 739.531 73.315C738.231 66.245 736.806 59.2 735.142 52.21C734.727 50.465 734.307 48.71 733.842 46.985C733.612 46.115 733.397 45.245 733.157 44.38L732.422 41.785L732.057 40.49L731.662 39.205L730.867 36.63L730.002 34.085L729.567 32.81L729.067 31.55C728.742 30.715 728.458 29.865 728.103 29.05L727.053 26.575L725.893 24.15C725.508 23.34 725.063 22.56 724.653 21.76C722.974 18.5868 721.127 15.5057 719.119 12.53L718.359 11.42C718.099 11.05 717.824 10.7 717.554 10.335L716.744 9.26001L715.894 8.22501C715.339 7.51501 714.709 6.87501 714.11 6.22501C713.815 5.88501 713.475 5.59501 713.155 5.27501C712.835 4.95501 712.525 4.64 712.155 4.36C710.822 3.16286 709.332 2.15352 707.725 1.36C706.132 0.527701 704.373 0.0629867 702.576 0Z" fill="white"/>
<path d="M702.51 0C700.707 0.0357 698.936 0.474789 697.325 1.285C695.72 2.07976 694.23 3.08899 692.896 4.285C692.546 4.565 692.236 4.89 691.896 5.2C691.556 5.51 691.241 5.81001 690.941 6.15001C690.346 6.81501 689.717 7.45501 689.162 8.15001L688.307 9.185L687.497 10.26C687.232 10.625 686.952 10.975 686.697 11.345L685.932 12.455C683.924 15.4296 682.078 18.5108 680.403 21.685C679.988 22.485 679.548 23.265 679.158 24.075L677.998 26.5L676.953 28.975C676.598 29.8 676.308 30.65 675.984 31.475L675.484 32.735L675.049 34.01L674.184 36.555L673.394 39.13L672.994 40.415L672.629 41.71L671.899 44.305C671.659 45.17 671.439 46.04 671.214 46.91C670.749 48.645 670.329 50.41 669.909 52.135C668.245 59.135 666.82 66.17 665.52 73.24C662.915 87.375 660.776 101.595 658.841 115.84C656.906 130.085 655.186 144.365 653.572 158.655C647.148 215.82 641.993 273.155 636.239 330.38C633.315 359.005 630.24 387.615 626.79 416.18C625.051 430.467 623.191 444.735 621.211 458.985C619.212 473.235 617.027 487.485 614.527 501.64C614.217 503.415 613.922 505.185 613.557 506.955L613.057 509.615L612.792 510.94L612.482 512.26C612.058 514.015 611.683 515.76 611.218 517.525L609.798 522.815C607.752 529.743 605.224 536.519 602.234 543.095C596.304 556.287 588.343 568.468 578.642 579.195C568.904 589.83 557.295 598.845 544.262 605.04C537.757 608.153 530.931 610.544 523.905 612.17C516.884 613.779 509.701 614.576 502.498 614.545C516.919 614.384 531.119 610.987 544.052 604.605C556.965 598.32 568.419 589.25 577.987 578.605C587.551 567.888 595.381 555.741 601.194 542.605C604.123 536.063 606.592 529.325 608.583 522.44L609.983 517.25C610.433 515.52 610.798 513.75 611.208 512.02L611.508 510.715L611.763 509.395L612.263 506.755C612.617 505 612.902 503.225 613.202 501.455C614.412 494.37 615.527 487.27 616.602 480.16C617.677 473.05 618.712 465.94 619.706 458.82C621.683 444.58 623.516 430.318 625.206 416.035C628.61 387.475 631.615 358.87 634.494 330.25C637.374 301.63 640.209 273 643.068 244.375C645.928 215.75 648.832 187.12 652.247 158.545C653.947 144.26 655.746 129.985 657.746 115.735C659.746 101.485 661.98 87.265 664.69 73.125C666.06 66.06 667.55 59.015 669.284 52.025C669.719 50.28 670.159 48.525 670.639 46.8C670.879 45.93 671.104 45.06 671.349 44.195L672.109 41.6L672.489 40.305L672.899 39.015L673.719 36.445L674.609 33.89L675.059 32.615L675.559 31.355C675.894 30.52 676.188 29.67 676.558 28.855L677.638 26.355L678.828 23.925C679.223 23.11 679.678 22.335 680.098 21.54C681.804 18.3642 683.683 15.2846 685.727 12.315L686.507 11.21C686.767 10.845 687.052 10.495 687.322 10.135L688.152 9.065L689.022 8.03C689.587 7.33 690.226 6.695 690.836 6.03C691.141 5.695 691.486 5.405 691.806 5.09C692.126 4.775 692.451 4.46001 692.806 4.18001C694.163 2.98789 695.677 1.98695 697.305 1.205C698.929 0.42037 700.707 0.00865801 702.51 0Z" fill="white"/>
<path opacity="0.5" fill-rule="evenodd" clip-rule="evenodd" d="M0.0449219 614.52H502.474C555.866 614.52 602.065 568.875 613.293 504.9C640.509 349.815 650.288 79.09 679.184 23.59C687.373 7.865 694.932 0 702.491 0H702.556C710.114 0 717.673 7.865 725.862 23.59C754.758 79.09 764.542 349.815 791.758 504.9C802.986 568.875 849.18 614.52 902.577 614.52" fill="url(#paint0_linear_296_678)"/>
<defs>
<linearGradient id="paint0_linear_296_678" x1="451.321" y1="614.52" x2="451.321" y2="0" gradientUnits="userSpaceOnUse">
<stop stop-color="white" stop-opacity="0.2"/>
<stop offset="0.05" stop-color="#EFFAFD" stop-opacity="0.3"/>
<stop offset="0.16" stop-color="#D0F1FA" stop-opacity="0.48"/>
<stop offset="0.28" stop-color="#B5E9F7" stop-opacity="0.64"/>
<stop offset="0.41" stop-color="#9FE2F4" stop-opacity="0.77"/>
<stop offset="0.53" stop-color="#8EDDF2" stop-opacity="0.87"/>
<stop offset="0.67" stop-color="#82DAF1" stop-opacity="0.94"/>
<stop offset="0.82" stop-color="#7BD8F0" stop-opacity="0.99"/>
<stop offset="1" stop-color="#79D7F0"/>
</linearGradient>
</defs>
</svg>
