<svg width="903" height="373" viewBox="0 0 903 373" fill="none" xmlns="http://www.w3.org/2000/svg">
<path d="M702.576 0C705.011 0.0207904 707.423 0.479755 709.695 1.35498C711.956 2.25484 714.097 3.4304 716.069 4.85498C719.989 7.74659 723.53 11.1197 726.608 14.895C728.145 16.7887 729.517 18.8112 730.707 20.94C731.337 21.985 731.872 23.08 732.447 24.155C733.022 25.23 733.527 26.335 734.022 27.445C736.004 31.8949 737.759 36.4424 739.281 41.07C742.346 50.3 744.78 59.72 747.02 69.18C749.26 78.64 751.194 88.18 753.019 97.68C756.719 116.755 759.853 135.93 763.018 155.09C766.182 174.25 769.242 193.43 772.556 212.555C775.871 231.68 779.325 250.79 783.465 269.75C785.534 279.25 787.774 288.67 790.294 298.03C790.919 300.375 791.579 302.705 792.243 305.03C792.583 306.185 792.968 307.325 793.328 308.47C793.688 309.615 794.173 310.725 794.588 311.855C796.391 316.326 798.639 320.604 801.297 324.625C806.68 332.664 813.336 339.772 821.004 345.67C824.835 348.624 828.853 351.326 833.033 353.76C837.211 356.208 841.537 358.394 845.986 360.305C863.748 368.055 883.191 371.805 902.593 371.915C883.191 372.015 863.663 368.52 845.711 360.915C841.22 359.027 836.854 356.856 832.638 354.415C828.409 351.991 824.342 349.293 820.465 346.34C812.668 340.429 805.888 333.285 800.392 325.19C797.668 321.123 795.358 316.793 793.498 312.265C793.063 311.12 792.588 309.99 792.203 308.83C791.819 307.67 791.439 306.5 791.089 305.33C790.419 302.995 789.754 300.655 789.124 298.33C786.574 288.945 784.305 279.49 782.215 270.005C778.031 251.005 774.496 231.915 771.177 212.775C764.612 174.485 759.033 136.04 751.974 97.86C750.194 88.32 748.29 78.805 746.15 69.36C744.01 59.915 741.606 50.495 738.651 41.265C737.19 36.6452 735.494 32.1027 733.572 27.655C733.072 26.545 732.572 25.455 732.072 24.365C731.572 23.275 730.992 22.195 730.382 21.155C729.226 19.0285 727.888 17.0059 726.383 15.11C723.363 11.3147 719.878 7.91462 716.009 4.98999C714.062 3.54624 711.945 2.34725 709.705 1.41998C707.434 0.520616 705.019 0.0395561 702.576 0Z" fill="white"/>
<path d="M702.511 0C699.984 0.0340751 697.487 0.555231 695.157 1.53497C692.839 2.51822 690.655 3.79173 688.658 5.32498C686.653 6.84878 684.765 8.52009 683.008 10.325C682.124 11.22 681.269 12.145 680.434 13.09C679.599 14.035 678.774 14.98 678.024 15.99C675.025 20.04 672.79 24.585 670.825 29.215C668.86 33.845 667.221 38.62 665.716 43.425C662.741 53.055 660.332 62.855 658.147 72.695C655.962 82.535 654.043 92.44 652.228 102.36C648.598 122.205 645.449 142.135 642.229 162.05C639.01 181.965 635.795 201.9 632.296 221.785C628.796 241.67 625.042 261.51 620.372 281.165C619.206 286.082 617.978 290.982 616.688 295.865C616.038 298.305 615.371 300.74 614.688 303.17C614.003 305.595 613.288 308.05 612.393 310.435C608.849 320 603.17 328.68 596.236 336.095C589.242 343.477 581.19 349.777 572.344 354.79C563.527 359.812 554.142 363.763 544.388 366.56C534.655 369.378 524.657 371.177 514.552 371.93C512.053 372.125 509.503 372.24 506.978 372.315C504.454 372.39 501.919 372.365 499.4 372.37H484.267L0.0351562 371.95L484.267 371.53H499.4C501.899 371.53 504.439 371.53 506.948 371.445C509.458 371.36 511.978 371.23 514.482 371.02C524.513 370.218 534.433 368.374 544.083 365.52C553.729 362.686 563.011 358.734 571.739 353.745C580.469 348.78 588.413 342.546 595.311 335.245C602.13 327.925 607.699 319.38 611.159 309.99C612.034 307.65 612.723 305.255 613.403 302.825C614.083 300.395 614.748 297.97 615.403 295.535C616.69 290.665 617.906 285.775 619.053 280.865C623.642 261.235 627.471 241.425 631.001 221.565C634.53 201.705 637.75 181.785 640.999 161.87C644.249 141.955 647.548 122.04 651.273 102.2C653.143 92.28 655.127 82.38 657.362 72.535C659.597 62.69 662.061 52.885 665.156 43.265C666.706 38.46 668.406 33.695 670.415 29.055C671.415 26.735 672.51 24.45 673.715 22.23C674.912 19.9983 676.274 17.859 677.789 15.83C678.554 14.83 679.394 13.87 680.239 12.935C681.084 12 681.949 11.075 682.849 10.185C684.628 8.39079 686.54 6.73277 688.568 5.22498C690.59 3.70418 692.797 2.44739 695.137 1.48499C697.476 0.518051 699.98 0.0137633 702.511 0Z" fill="white"/>
<path opacity="0.5" fill-rule="evenodd" clip-rule="evenodd" d="M0.0449219 371.94H502.474C555.866 371.94 602.065 344.315 613.293 305.595C640.509 211.725 650.288 47.87 679.184 14.28C687.373 4.78 694.932 0 702.491 0H702.556C710.114 0 717.673 4.76 725.862 14.28C754.778 47.87 764.562 211.735 791.773 305.595C803.001 344.315 849.195 371.94 902.592 371.94" fill="url(#paint0_linear_296_670)"/>
<defs>
<linearGradient id="paint0_linear_296_670" x1="451.321" y1="371.94" x2="451.321" y2="0" gradientUnits="userSpaceOnUse">
<stop stop-color="white" stop-opacity="0.2"/>
<stop offset="0.05" stop-color="#EFFAFD" stop-opacity="0.3"/>
<stop offset="0.16" stop-color="#D0F1FA" stop-opacity="0.48"/>
<stop offset="0.28" stop-color="#B5E9F7" stop-opacity="0.64"/>
<stop offset="0.41" stop-color="#9FE2F4" stop-opacity="0.77"/>
<stop offset="0.53" stop-color="#8EDDF2" stop-opacity="0.87"/>
<stop offset="0.67" stop-color="#82DAF1" stop-opacity="0.94"/>
<stop offset="0.82" stop-color="#7BD8F0" stop-opacity="0.99"/>
<stop offset="1" stop-color="#79D7F0"/>
</linearGradient>
</defs>
</svg>
