<svg width="904" height="194" viewBox="0 0 904 194" fill="none" xmlns="http://www.w3.org/2000/svg">
<path d="M452.031 0.000760827C457.91 -0.0392392 463.725 1.50078 469.029 3.96078C470.364 4.57578 471.678 5.22576 472.963 5.93576C474.248 6.64576 475.518 7.38076 476.753 8.19076C479.151 9.89361 481.333 11.8815 483.252 14.1108C487.111 18.5608 490.181 23.6108 492.885 28.8408C495.59 34.0708 497.885 39.4758 500.039 44.9358C504.314 55.8758 507.923 67.0508 511.483 78.2258C515.042 89.4008 518.482 100.621 522.191 111.726C525.901 122.831 529.915 133.866 534.69 144.551C535.883 147.217 537.139 149.857 538.459 152.471C539.114 153.781 539.799 155.071 540.459 156.361L541.514 158.286C541.869 158.916 542.238 159.526 542.638 160.126C544.282 162.506 546.223 164.666 548.413 166.556C549.497 167.521 550.637 168.421 551.807 169.281C552.977 170.141 554.182 170.961 555.412 171.736C560.376 174.806 565.616 177.406 571.064 179.501C576.511 181.627 582.076 183.437 587.732 184.921C599.063 187.877 610.606 189.952 622.257 191.126C628.076 191.746 633.921 192.161 639.755 192.421C645.589 192.681 651.458 192.726 657.322 192.716L692.507 192.751L762.872 192.831L903.602 193.091L762.872 193.356L692.507 193.431L657.322 193.471C654.393 193.471 651.463 193.471 648.523 193.471C645.584 193.471 642.654 193.376 639.72 193.261C633.85 193.037 627.993 192.619 622.147 192.006C610.447 190.845 598.855 188.784 587.472 185.841C581.78 184.355 576.179 182.544 570.694 180.416C565.185 178.305 559.885 175.686 554.862 172.591C552.345 171.03 549.961 169.266 547.733 167.316C545.483 165.364 543.491 163.134 541.804 160.681C541.389 160.061 540.999 159.416 540.634 158.771L539.579 156.831C538.889 155.531 538.204 154.231 537.549 152.916C536.234 150.286 534.97 147.631 533.775 144.946C528.985 134.211 525.006 123.146 521.276 112.016C517.547 100.886 514.142 89.6608 510.663 78.4608C507.183 67.2608 503.619 56.0858 499.414 45.1508C497.3 39.6858 495.015 34.2858 492.371 29.0658C489.726 23.8458 486.721 18.7808 482.932 14.3258C481.045 12.094 478.89 10.1025 476.518 8.39578C475.308 7.58078 474.053 6.82075 472.773 6.11575C471.493 5.41075 470.189 4.73075 468.869 4.11575C463.69 1.62075 457.915 0.0207608 452.031 0.000760827Z" fill="white"/>
<path d="M451.971 0.000753675C446.087 0.000753675 440.303 1.62574 435.019 4.11574C433.694 4.74074 432.389 5.40574 431.114 6.11574C429.84 6.82574 428.575 7.58077 427.365 8.39577C424.991 10.1047 422.837 12.0997 420.951 14.3358C417.156 18.7908 414.157 23.8658 411.512 29.0808C408.867 34.2958 406.583 39.7108 404.463 45.1708C400.259 56.1158 396.714 67.3058 393.215 78.5008C389.715 89.6958 386.306 100.931 382.596 112.071C378.887 123.211 374.892 134.276 370.098 145.016C368.901 147.702 367.642 150.359 366.318 152.986C365.664 154.301 364.979 155.601 364.289 156.901L363.229 158.841L362.664 159.806L362.054 160.751C360.359 163.2 358.36 165.425 356.105 167.371C353.871 169.316 351.483 171.079 348.966 172.641C343.937 175.728 338.631 178.341 333.118 180.446C327.635 182.584 322.033 184.404 316.341 185.896C304.951 188.839 293.352 190.897 281.645 192.051C275.803 192.651 269.944 193.066 264.068 193.296C261.135 193.412 258.199 193.481 255.259 193.501H246.435L211.235 193.461L140.865 193.366L0.0703125 193.101L140.865 192.841L211.26 192.761L246.46 192.726C252.33 192.726 258.184 192.726 264.038 192.441C269.892 192.156 275.736 191.766 281.535 191.151C293.193 189.979 304.742 187.91 316.081 184.961C321.738 183.477 327.307 181.671 332.758 179.551C338.21 177.458 343.456 174.862 348.426 171.796C349.663 171.026 350.866 170.209 352.036 169.346C353.205 168.486 354.35 167.586 355.435 166.626C357.63 164.739 359.577 162.582 361.229 160.206L361.819 159.301L362.364 158.371L363.419 156.446C364.104 155.156 364.794 153.866 365.444 152.556C366.777 149.946 368.035 147.304 369.218 144.631C374.017 133.946 378.012 122.911 381.746 111.796C385.481 100.681 388.905 89.4558 392.46 78.2958C396.014 67.1358 399.634 55.9308 403.903 44.9858C406.058 39.5208 408.373 34.1108 411.062 28.8808C413.752 23.6508 416.831 18.5958 420.696 14.1458C422.613 11.9122 424.796 9.92085 427.195 8.21578C428.428 7.40578 429.691 6.65411 430.984 5.96078C432.269 5.25078 433.589 4.5958 434.924 3.9858C440.273 1.5158 446.087 -0.0392463 451.971 0.000753675Z" fill="white"/>
<path opacity="0.5" fill-rule="evenodd" clip-rule="evenodd" d="M151.078 193.1H251.949C305.341 193.1 351.54 178.76 362.768 158.655C389.984 109.92 399.763 24.855 428.659 7.41504C436.848 2.47004 444.407 0 451.971 0H452.031C459.595 0 467.153 2.47004 475.342 7.41504C504.233 24.855 514.017 109.915 541.233 158.655C552.461 178.76 598.66 193.1 652.052 193.1H752.923" fill="url(#paint0_linear_296_744)"/>
<defs>
<linearGradient id="paint0_linear_296_744" x1="452.001" y1="193.1" x2="452.001" y2="0" gradientUnits="userSpaceOnUse">
<stop stop-color="white" stop-opacity="0.2"/>
<stop offset="0.05" stop-color="#E9F8F8" stop-opacity="0.29"/>
<stop offset="0.18" stop-color="#B3E5E5" stop-opacity="0.51"/>
<stop offset="0.32" stop-color="#86D6D6" stop-opacity="0.69"/>
<stop offset="0.47" stop-color="#63CBCB" stop-opacity="0.82"/>
<stop offset="0.62" stop-color="#4AC2C2" stop-opacity="0.92"/>
<stop offset="0.79" stop-color="#3CBEBE" stop-opacity="0.98"/>
<stop offset="1" stop-color="#37BCBC"/>
</linearGradient>
</defs>
</svg>
