<svg width="904" height="45" viewBox="0 0 904 45" fill="none" xmlns="http://www.w3.org/2000/svg">
<path d="M452.031 0C456.841 0 461.655 0.209949 466.444 0.634949C468.837 0.851615 471.229 1.11164 473.618 1.41498C476.003 1.70498 478.382 2.09998 480.737 2.59998C483.088 3.1292 485.409 3.78179 487.691 4.55499C489.965 5.35632 492.193 6.28098 494.365 7.32495C498.683 9.4616 502.822 11.9413 506.743 14.74C510.693 17.495 514.517 20.415 518.417 23.24C522.295 26.0783 526.32 28.7103 530.475 31.125C532.55 32.33 534.685 33.425 536.849 34.47C537.934 34.97 539.019 35.47 540.129 35.97C541.217 36.464 542.338 36.8833 543.483 37.225C545.786 37.8774 548.122 38.4032 550.482 38.8C552.847 39.215 555.222 39.585 557.606 39.89C567.135 41.135 576.729 41.89 586.322 42.495C595.916 43.1 605.53 43.495 615.138 43.815C624.747 44.135 634.37 44.315 643.984 44.37C653.598 44.425 663.221 44.4 672.84 44.415L903.687 44.59L672.84 44.77H643.984C634.365 44.72 624.747 44.5533 615.128 44.27C605.51 43.985 595.896 43.58 586.292 42.955C576.689 42.33 567.095 41.56 557.551 40.29C555.168 39.9766 552.79 39.6067 550.417 39.18C548.038 38.7761 545.684 38.2419 543.363 37.58C542.205 37.231 541.071 36.8051 539.969 36.305C538.859 35.84 537.769 35.305 536.679 34.805C534.51 33.755 532.37 32.65 530.29 31.435C526.13 29.0074 522.101 26.3603 518.222 23.505C514.322 20.685 510.503 17.76 506.569 15.005C502.663 12.2072 498.541 9.72593 494.24 7.58496C492.077 6.54252 489.861 5.61297 487.601 4.79999C485.332 4.01069 483.022 3.34308 480.682 2.79999C478.349 2.28999 475.983 1.88162 473.583 1.57495C471.184 1.26828 468.795 0.993333 466.419 0.75C461.65 0.27 456.821 0.02 452.031 0Z" fill="white"/>
<path d="M451.972 0C447.159 0.02 442.355 0.261642 437.559 0.724976C435.164 0.949976 432.775 1.22498 430.39 1.54498C428.005 1.86498 425.636 2.26496 423.286 2.77496C420.946 3.31872 418.636 3.98633 416.367 4.77496C414.108 5.59178 411.892 6.52302 409.728 7.565C405.424 9.70634 401.299 12.191 397.395 14.995C393.455 17.755 389.636 20.685 385.731 23.495C381.85 26.3503 377.82 28.9974 373.658 31.425C371.573 32.635 369.434 33.745 367.264 34.795C366.174 35.295 365.079 35.795 363.969 36.295C362.867 36.7965 361.731 37.2208 360.57 37.565C358.25 38.2277 355.895 38.7602 353.516 39.16C351.143 39.5866 348.761 39.9566 346.372 40.27C336.823 41.535 327.219 42.3 317.616 42.93C308.012 43.56 298.389 43.96 288.765 44.24C279.141 44.52 269.518 44.68 259.894 44.74H231.018L0.0507812 44.56L231.018 44.3849C240.642 44.3849 250.27 44.385 259.889 44.34C269.508 44.295 279.136 44.095 288.75 43.79C298.364 43.485 307.982 43.055 317.586 42.47C327.189 41.885 336.783 41.115 346.317 39.87C348.7 39.56 351.076 39.1966 353.446 38.78C355.806 38.3876 358.143 37.8634 360.445 37.21C361.592 36.87 362.714 36.4524 363.804 35.96C364.914 35.5 365.999 34.99 367.089 34.46C369.254 33.42 371.388 32.325 373.468 31.12C377.626 28.7054 381.653 26.0717 385.531 23.23C389.436 20.425 393.26 17.5 397.215 14.73C401.137 11.928 405.278 9.44507 409.598 7.30499C411.77 6.26015 413.998 5.3354 416.272 4.53497C418.555 3.75717 420.878 3.10287 423.231 2.57495C425.586 2.07495 427.965 1.67495 430.355 1.38495C432.745 1.09495 435.134 0.819981 437.529 0.60498C442.338 0.201647 447.153 0 451.972 0Z" fill="white"/>
<path opacity="0.5" fill-rule="evenodd" clip-rule="evenodd" d="M151.08 44.555H251.951C305.343 44.555 351.542 41.245 362.77 36.61C389.986 25.365 399.765 5.73497 428.661 1.71497C436.382 0.599657 444.171 0.0266218 451.973 0H452.033C459.834 0.0266218 467.623 0.599657 475.344 1.71497C504.235 5.71497 514.019 25.365 541.235 36.61C552.463 41.245 598.662 44.555 652.054 44.555H752.925" fill="url(#paint0_linear_296_732)"/>
<defs>
<linearGradient id="paint0_linear_296_732" x1="452.003" y1="44.555" x2="452.003" y2="0" gradientUnits="userSpaceOnUse">
<stop stop-color="white" stop-opacity="0.2"/>
<stop offset="0.05" stop-color="#E9F8F8" stop-opacity="0.29"/>
<stop offset="0.18" stop-color="#B3E5E5" stop-opacity="0.51"/>
<stop offset="0.32" stop-color="#86D6D6" stop-opacity="0.69"/>
<stop offset="0.47" stop-color="#63CBCB" stop-opacity="0.82"/>
<stop offset="0.62" stop-color="#4AC2C2" stop-opacity="0.92"/>
<stop offset="0.79" stop-color="#3CBEBE" stop-opacity="0.98"/>
<stop offset="1" stop-color="#37BCBC"/>
</linearGradient>
</defs>
</svg>
