<svg width="904" height="282" viewBox="0 0 904 282" fill="none" xmlns="http://www.w3.org/2000/svg">
<path d="M452.031 0C455.361 0.0185283 458.656 0.666585 461.745 1.91C464.829 3.16166 467.748 4.78534 470.439 6.745C471.124 7.21499 471.773 7.74496 472.438 8.24496C473.103 8.74496 473.748 9.24497 474.378 9.81497C475.67 10.8642 476.88 12.0109 477.998 13.245C480.196 15.7498 482.135 18.4703 483.787 21.365C487.136 27.12 489.741 33.265 492.071 39.485C494.4 45.705 496.37 52.06 498.215 58.435C501.884 71.205 504.969 84.125 507.918 97.065C509.388 103.538 510.826 110.018 512.233 116.505L516.432 135.96C519.247 148.93 522.111 161.885 525.241 174.77C528.37 187.655 531.74 200.485 535.739 213.12C537.739 219.42 539.879 225.725 542.313 231.845C544.878 237.875 548.813 243.26 553.467 247.91C558.169 252.536 563.409 256.582 569.075 259.96C574.744 263.355 580.685 266.273 586.837 268.685C599.135 273.555 612.089 276.685 625.182 278.52C631.741 279.431 638.342 280.01 644.959 280.255C648.268 280.385 651.573 280.41 654.893 280.4H664.846L744.46 280.485L903.682 280.795L744.46 281.105L664.846 281.195H654.893C651.578 281.195 648.248 281.195 644.929 281.095C638.28 280.885 631.646 280.34 625.052 279.46C611.834 277.76 598.869 274.473 586.437 269.67C580.225 267.245 574.223 264.31 568.495 260.895C562.743 257.479 557.423 253.384 552.647 248.7C547.923 243.98 543.863 238.485 541.214 232.285C539.949 229.17 538.834 226.065 537.714 222.92C536.594 219.775 535.574 216.63 534.575 213.46C530.575 200.78 527.216 187.92 524.101 175.015C520.986 162.11 518.152 149.135 515.357 136.16L511.193 116.695C509.808 110.195 508.418 103.695 506.983 97.245C504.109 84.295 501.099 71.37 497.485 58.605C495.68 52.225 493.72 45.89 491.486 39.66C489.251 33.43 486.686 27.29 483.412 21.535C481.799 18.6453 479.899 15.925 477.743 13.415C476.646 12.1773 475.454 11.0271 474.178 9.97501C473.558 9.42501 472.903 8.91999 472.263 8.39499C471.623 7.86999 470.964 7.39499 470.264 6.89499C467.602 4.91735 464.71 3.27186 461.65 1.995C458.596 0.734943 455.334 0.0582727 452.031 0Z" fill="white"/>
<path d="M451.971 0C448.646 0.0476429 445.36 0.726328 442.287 2C440.753 2.62506 439.263 3.35511 437.828 4.185C436.396 5.01796 435.007 5.92416 433.669 6.89999C432.994 7.39999 432.349 7.89999 431.669 8.39999C430.989 8.89999 430.374 9.43001 429.754 9.98001C428.48 11.0339 427.29 12.1857 426.195 13.425C424.037 15.9358 422.137 18.656 420.52 21.545C417.246 27.305 414.711 33.455 412.452 39.68C410.192 45.905 408.237 52.255 406.452 58.635C402.863 71.405 399.853 84.335 396.954 97.29C395.517 103.77 394.114 110.257 392.744 116.75L388.575 136.25C385.78 149.25 382.941 162.205 379.826 175.12C376.712 188.035 373.327 200.89 369.328 213.575C368.328 216.745 367.288 219.905 366.183 223.04C365.078 226.175 363.963 229.295 362.684 232.405C360.014 238.6 355.945 244.09 351.21 248.805C346.425 253.483 341.096 257.571 335.337 260.98C329.604 264.392 323.597 267.324 317.38 269.745C311.173 272.168 304.816 274.186 298.348 275.785C291.887 277.394 285.341 278.636 278.74 279.505C272.144 280.377 265.509 280.918 258.858 281.125C255.534 281.235 252.204 281.23 248.89 281.22H238.936L159.332 281.085L0.0449219 280.775L159.332 280.465L238.981 280.38H248.935C252.254 280.38 255.564 280.38 258.873 280.24C265.492 280 272.095 279.426 278.656 278.52C291.759 276.675 304.722 273.575 317.025 268.715C323.181 266.306 329.127 263.391 334.803 260C340.474 256.627 345.722 252.589 350.435 247.97C355.085 243.325 359.049 237.97 361.629 231.915C364.073 225.805 366.188 219.49 368.213 213.19C372.212 200.555 375.607 187.72 378.741 174.83C381.876 161.94 384.741 148.975 387.555 136.005L391.759 116.54C393.176 110.053 394.614 103.572 396.074 97.095C399.023 84.145 402.108 71.22 405.778 58.445C407.622 52.065 409.607 45.72 411.922 39.485C414.236 33.25 416.856 27.115 420.205 21.355C421.86 18.4622 423.799 15.7421 425.995 13.235C427.111 11.9968 428.323 10.8483 429.619 9.80002C430.244 9.25502 430.909 8.75501 431.554 8.23001C432.199 7.70501 432.874 7.22998 433.554 6.72998C434.907 5.76594 436.309 4.87146 437.753 4.04999C439.203 3.23242 440.706 2.51249 442.252 1.89499C445.344 0.657127 448.641 0.0142087 451.971 0Z" fill="white"/>
<path opacity="0.5" fill-rule="evenodd" clip-rule="evenodd" d="M151.078 280.79H251.949C305.341 280.79 351.54 259.935 362.768 230.705C389.984 159.84 399.763 36.135 428.659 10.78C436.848 3.595 444.407 0 451.971 0H452.031C459.595 0 467.153 3.595 475.342 10.78C504.233 36.135 514.017 159.84 541.233 230.705C552.461 259.935 598.66 280.79 652.052 280.79H752.923" fill="url(#paint0_linear_296_748)"/>
<defs>
<linearGradient id="paint0_linear_296_748" x1="452.001" y1="280.79" x2="452.001" y2="0" gradientUnits="userSpaceOnUse">
<stop stop-color="white" stop-opacity="0.2"/>
<stop offset="0.05" stop-color="#E9F8F8" stop-opacity="0.29"/>
<stop offset="0.18" stop-color="#B3E5E5" stop-opacity="0.51"/>
<stop offset="0.32" stop-color="#86D6D6" stop-opacity="0.69"/>
<stop offset="0.47" stop-color="#63CBCB" stop-opacity="0.82"/>
<stop offset="0.62" stop-color="#4AC2C2" stop-opacity="0.92"/>
<stop offset="0.79" stop-color="#3CBEBE" stop-opacity="0.98"/>
<stop offset="1" stop-color="#37BCBC"/>
</linearGradient>
</defs>
</svg>
