<svg width="903" height="45" viewBox="0 0 903 45" fill="none" xmlns="http://www.w3.org/2000/svg">
<path d="M200.121 0C207.547 0.00449002 214.964 0.505608 222.323 1.5C226.012 1.95274 229.658 2.70352 233.226 3.745C236.792 4.80969 240.254 6.19531 243.57 7.88495C250.224 11.2299 256.228 15.68 262.192 20.075C268.156 24.47 274.191 28.825 280.735 32.325C281.55 32.7649 282.364 33.2 283.199 33.605L284.439 34.23L285.699 34.815L286.959 35.4L288.234 35.95C288.664 36.13 289.084 36.32 289.513 36.49C289.943 36.66 290.368 36.825 290.813 36.955C292.576 37.509 294.369 37.9632 296.182 38.315C297.997 38.69 299.827 38.995 301.682 39.285C309.011 40.395 316.4 41.115 323.794 41.71C331.188 42.305 338.596 42.745 346.005 43.095C353.414 43.445 360.833 43.735 368.252 43.935C375.671 44.135 383.09 44.265 390.509 44.33C397.928 44.395 405.352 44.37 412.771 44.38H457.305H546.367L902.612 44.535L546.367 44.69H457.305H412.771C405.352 44.69 397.928 44.69 390.504 44.69C383.08 44.69 375.661 44.53 368.237 44.345C353.399 43.975 338.556 43.345 323.744 42.12C316.345 41.51 308.951 40.775 301.607 39.62C299.772 39.325 297.937 39.02 296.108 38.62C294.278 38.2654 292.47 37.8064 290.693 37.245C290.248 37.11 289.818 36.925 289.373 36.745C288.929 36.565 288.519 36.38 288.094 36.2L286.814 35.645L285.549 35.055L284.284 34.465L283.039 33.835C282.204 33.43 281.39 32.985 280.57 32.545C274.016 29.045 267.966 24.655 262.012 20.235C256.058 15.815 250.079 11.37 243.455 8.02496C240.153 6.33817 236.711 4.94289 233.166 3.85498C229.613 2.79482 225.98 2.02397 222.303 1.54999C214.952 0.538944 207.541 0.021132 200.121 0Z" fill="white"/>
<path d="M200.057 0.000328765C191.304 0.0654134 182.571 0.829482 173.94 2.2853C169.642 3.07509 165.438 4.31354 161.397 5.98031C157.366 7.66726 153.496 9.71561 149.834 12.1003C142.475 16.8203 135.731 22.4453 128.437 27.3103C124.803 29.7643 121.021 31.9918 117.113 33.9803C115.159 34.9803 113.154 35.8753 111.114 36.7403C109.061 37.5397 106.942 38.1571 104.78 38.5853C100.481 39.4853 96.1414 40.0853 91.782 40.6203C87.4226 41.1553 83.0782 41.5703 78.7139 41.9353C69.9901 42.6653 61.2463 43.1803 52.5026 43.5753C43.7588 43.9703 35.0051 44.2353 26.2563 44.4003C17.5075 44.5653 8.75876 44.5903 0 44.5553C8.7521 44.5087 17.5025 44.3786 26.2513 44.1653C35 43.952 43.7455 43.647 52.4876 43.2503C61.2313 42.8303 69.9851 42.2853 78.6789 41.5353C83.0382 41.1553 87.3876 40.7153 91.727 40.1803C96.0664 39.6453 100.401 39.0153 104.665 38.1103C106.8 37.6926 108.894 37.0904 110.924 36.3103C112.924 35.4603 114.924 34.5753 116.878 33.5853C120.778 31.6163 124.551 29.4071 128.177 26.9703C135.466 22.1453 142.225 16.5403 149.624 11.8253C153.31 9.44522 157.201 7.40039 161.252 5.71529C165.315 4.05708 169.541 2.83037 173.86 2.05532C182.523 0.669955 191.284 -0.0172476 200.057 0.000328765Z" fill="white"/>
<path opacity="0.5" fill-rule="evenodd" clip-rule="evenodd" d="M0.0351562 44.555C53.4326 44.555 99.6311 41.245 110.854 36.61C138.071 25.365 147.849 5.73497 176.75 1.71497C184.469 0.599841 192.257 0.0268061 200.057 0H200.122C207.921 0.0268061 215.709 0.599841 223.429 1.71497C252.324 5.71497 262.103 25.365 289.319 36.61C300.548 41.245 346.746 44.555 400.139 44.555H501.014" fill="url(#paint0_linear_296_691)"/>
<defs>
<linearGradient id="paint0_linear_296_691" x1="250.525" y1="44.555" x2="250.525" y2="0" gradientUnits="userSpaceOnUse">
<stop stop-color="white" stop-opacity="0.2"/>
<stop offset="0.08" stop-color="#FFF7FA" stop-opacity="0.35"/>
<stop offset="0.19" stop-color="#FFEDF4" stop-opacity="0.52"/>
<stop offset="0.31" stop-color="#FFE4EF" stop-opacity="0.67"/>
<stop offset="0.42" stop-color="#FFDDEB" stop-opacity="0.79"/>
<stop offset="0.55" stop-color="#FFD8E8" stop-opacity="0.88"/>
<stop offset="0.68" stop-color="#FFD4E6" stop-opacity="0.95"/>
<stop offset="0.82" stop-color="#FFD2E4" stop-opacity="0.99"/>
<stop offset="1" stop-color="#FFD1E4"/>
</linearGradient>
</defs>
</svg>
