<svg width="903" height="18" viewBox="0 0 903 18" fill="none" xmlns="http://www.w3.org/2000/svg">
<path d="M702.576 0.00195312C710.982 0.00195312 719.382 0.250282 727.778 0.746948L730.922 0.966919L734.062 1.28192C736.156 1.46692 738.231 1.81191 740.316 2.08191C744.472 2.74858 748.591 3.59194 752.674 4.61194C760.833 6.66694 768.812 9.34694 776.966 11.3619C785.12 13.3769 793.383 15.0119 801.782 15.4219C810.166 15.9819 818.565 16.3119 826.964 16.5919C835.362 16.8719 843.766 17.0919 852.17 17.2269C860.574 17.3619 868.978 17.492 877.381 17.572C885.785 17.652 894.189 17.7119 902.598 17.7469C894.189 17.7469 885.785 17.7469 877.381 17.7219C868.978 17.6969 860.569 17.5669 852.165 17.4269C843.761 17.2869 835.357 17.1069 826.959 16.8519C818.56 16.5969 810.156 16.2719 801.762 15.7269C793.353 15.2969 785.05 13.6469 776.906 11.6069C768.762 9.56693 760.768 6.87695 752.624 4.80695C748.548 3.78028 744.437 2.93029 740.291 2.25696C738.211 1.98196 736.136 1.63696 734.042 1.44696L730.912 1.12195L727.768 0.896912C719.385 0.326912 710.988 0.0286198 702.576 0.00195312Z" fill="white"/>
<path d="M702.511 0.00203838C695.177 0.00203838 687.843 0.241987 680.514 0.636987C678.685 0.721987 676.855 0.886987 675.015 1.01199C674.1 1.06199 673.19 1.16699 672.28 1.26699L669.546 1.55203C668.636 1.65703 667.726 1.80202 666.821 1.92202C665.916 2.04202 665.001 2.15699 664.102 2.32699C662.292 2.64199 660.482 2.93199 658.692 3.32699C651.498 4.77199 644.484 6.96199 637.445 9.01199C633.946 10.052 630.386 11.012 626.827 11.897C623.267 12.782 619.673 13.552 616.058 14.182C612.452 14.8667 608.805 15.3176 605.14 15.532C601.481 15.822 597.816 16.032 594.142 16.207C586.813 16.567 579.479 16.817 572.145 17.032C564.811 17.247 557.477 17.402 550.148 17.532C542.819 17.662 535.475 17.727 528.151 17.777C513.483 17.887 498.81 17.847 484.157 17.852H440.163H352.141L0.0605469 17.777L352.141 17.707H440.163H484.157C498.825 17.707 513.493 17.707 528.151 17.567C542.809 17.427 557.487 17.192 572.145 16.822C579.479 16.622 586.808 16.387 594.142 16.042C597.806 15.857 601.471 15.667 605.14 15.387C608.799 15.1809 612.441 14.7384 616.043 14.062C619.658 13.437 623.237 12.642 626.802 11.802C630.366 10.962 633.906 9.97204 637.425 8.93704C644.464 6.90204 651.488 4.72702 658.687 3.29702C660.482 2.90202 662.297 2.61702 664.102 2.29702C665.006 2.13202 665.916 2.037 666.826 1.902C667.736 1.767 668.641 1.63701 669.551 1.53701L672.29 1.25704C673.2 1.16204 674.11 1.05704 675.03 1.00704C676.86 0.887043 678.685 0.726992 680.529 0.641992C687.843 0.211992 695.177 -0.00296162 702.511 0.00203838Z" fill="white"/>
<path opacity="0.5" fill-rule="evenodd" clip-rule="evenodd" d="M0.0449219 17.7469H502.474C555.866 17.7469 602.065 16.4319 613.293 14.5819C640.509 10.1069 650.288 2.28695 679.184 0.686951C687.373 0.231951 694.932 0.00195312 702.491 0.00195312H702.556C710.114 0.00195312 717.673 0.231951 725.862 0.686951C754.758 2.28695 764.542 10.1069 791.758 14.5819C802.986 16.4319 849.18 17.7469 902.577 17.7469" fill="url(#paint0_linear_296_654)"/>
<defs>
<linearGradient id="paint0_linear_296_654" x1="451.321" y1="17.7469" x2="451.321" y2="0.00195312" gradientUnits="userSpaceOnUse">
<stop stop-color="white" stop-opacity="0.2"/>
<stop offset="0.05" stop-color="#EFFAFD" stop-opacity="0.3"/>
<stop offset="0.16" stop-color="#D0F1FA" stop-opacity="0.48"/>
<stop offset="0.28" stop-color="#B5E9F7" stop-opacity="0.64"/>
<stop offset="0.41" stop-color="#9FE2F4" stop-opacity="0.77"/>
<stop offset="0.53" stop-color="#8EDDF2" stop-opacity="0.87"/>
<stop offset="0.67" stop-color="#82DAF1" stop-opacity="0.94"/>
<stop offset="0.82" stop-color="#7BD8F0" stop-opacity="0.99"/>
<stop offset="1" stop-color="#79D7F0"/>
</linearGradient>
</defs>
</svg>
