<svg width="903" height="132" viewBox="0 0 903 132" fill="none" xmlns="http://www.w3.org/2000/svg">
<path d="M200.057 0C204.048 0.00323856 208.026 0.447553 211.92 1.32495C215.809 2.21589 219.618 3.42501 223.308 4.94C227.006 6.47504 230.41 8.64049 233.367 11.34C236.329 14.029 239.009 17.0128 241.366 20.245C246.105 26.68 249.945 33.715 253.534 40.83C257.124 47.945 260.413 55.22 263.773 62.45C267.132 69.68 270.537 76.89 274.296 83.91C277.989 90.9664 282.23 97.7222 286.979 104.115C287.589 104.9 288.189 105.695 288.819 106.46C289.423 107.242 290.08 107.982 290.784 108.675C292.217 110.036 293.789 111.245 295.473 112.28C298.866 114.341 302.447 116.078 306.167 117.465C313.596 120.31 321.329 122.31 329.118 123.965C336.907 125.62 344.786 126.805 352.695 127.75C360.604 128.695 368.548 129.36 376.502 129.795C392.409 130.725 408.357 130.335 424.3 130.4L519.961 130.36L711.284 130.495L806.946 130.57L902.607 130.76L806.946 130.955L711.284 131.03L519.961 131.165L424.3 131.12C408.367 131.03 392.404 131.395 376.467 130.435C368.498 129.988 360.551 129.295 352.625 128.355C344.701 127.395 336.812 126.16 328.998 124.52C321.184 122.88 313.441 120.845 306.002 117.975C302.25 116.574 298.641 114.817 295.223 112.73C293.51 111.672 291.912 110.439 290.454 109.05C289.737 108.342 289.069 107.587 288.454 106.79C287.824 106.015 287.219 105.22 286.609 104.43C281.852 98.0106 277.608 91.2262 273.916 84.14C270.157 77.1 266.757 69.88 263.418 62.64C260.078 55.4 256.814 48.14 253.274 40.985C249.735 33.83 245.92 26.8199 241.221 20.3849C238.87 17.1461 236.195 14.1557 233.237 11.46C230.301 8.75638 226.918 6.58403 223.238 5.03998C219.558 3.50902 215.757 2.28488 211.875 1.38C207.999 0.483797 204.035 0.0209545 200.057 0Z" fill="white"/>
<path d="M200.057 0C194.577 0.0666484 189.137 0.937563 183.91 2.58496C181.295 3.3774 178.73 4.3275 176.231 5.42999L174.386 6.30499C173.781 6.60999 173.211 6.98999 172.621 7.30499L171.741 7.80499C171.456 7.98499 171.186 8.19495 170.906 8.38995L169.247 9.58496C165.033 13.0462 161.33 17.0862 158.248 21.585C155.151 26.0872 152.338 30.778 149.824 35.63C144.75 45.32 140.326 55.34 135.706 65.27C131.087 75.2 126.303 85.085 120.548 94.445C117.682 99.136 114.486 103.617 110.985 107.855C109.11 109.913 106.934 111.674 104.531 113.08C102.17 114.502 99.7087 115.75 97.1668 116.815C94.6372 117.89 92.0625 118.865 89.4529 119.715C86.8433 120.565 84.2086 121.345 81.564 122.065C76.2648 123.48 70.8955 124.63 65.5013 125.6C54.707 127.501 43.8227 128.849 32.8909 129.64C21.9674 130.44 11.009 130.75 0.0605469 130.7C11.009 130.615 21.9574 130.17 32.8609 129.235C43.7583 128.387 54.6057 126.987 65.3613 125.04C76.0848 122.98 86.7933 120.45 96.8568 116.19C99.3642 115.135 101.79 113.897 104.116 112.485C106.445 111.118 108.553 109.407 110.37 107.41C113.828 103.181 116.984 98.7131 119.814 94.04C125.563 84.745 130.352 74.89 134.996 64.985C139.641 55.08 144.06 45.04 149.249 35.375C151.803 30.5168 154.66 25.8242 157.803 21.325C161.008 16.875 164.667 12.695 169.012 9.32495L170.701 8.14496C170.986 7.94996 171.261 7.74 171.551 7.56L172.446 7.06C173.046 6.72 173.626 6.35 174.246 6.06L176.121 5.19995C178.643 4.12288 181.229 3.20121 183.865 2.44C189.115 0.842537 194.57 0.0205255 200.057 0Z" fill="white"/>
<path opacity="0.5" fill-rule="evenodd" clip-rule="evenodd" d="M0.0351562 130.745C53.4326 130.745 99.6311 121.035 110.854 107.425C138.071 74.4246 147.849 16.8245 176.75 5.01953C184.939 1.66953 192.498 0.0195312 200.057 0.0195312H200.122C207.681 0.0195312 215.24 1.68953 223.429 5.01953C252.324 16.8245 262.103 74.4246 289.319 107.425C300.548 121.035 346.746 130.745 400.139 130.745H501.014" fill="url(#paint0_linear_296_683)"/>
<defs>
<linearGradient id="paint0_linear_296_683" x1="250.525" y1="130.745" x2="250.525" y2="-0.000465617" gradientUnits="userSpaceOnUse">
<stop stop-color="white" stop-opacity="0.2"/>
<stop offset="0.08" stop-color="#FFF7FA" stop-opacity="0.35"/>
<stop offset="0.19" stop-color="#FFEDF4" stop-opacity="0.52"/>
<stop offset="0.31" stop-color="#FFE4EF" stop-opacity="0.67"/>
<stop offset="0.42" stop-color="#FFDDEB" stop-opacity="0.79"/>
<stop offset="0.55" stop-color="#FFD8E8" stop-opacity="0.88"/>
<stop offset="0.68" stop-color="#FFD4E6" stop-opacity="0.95"/>
<stop offset="0.82" stop-color="#FFD2E4" stop-opacity="0.99"/>
<stop offset="1" stop-color="#FFD1E4"/>
</linearGradient>
</defs>
</svg>
