<svg width="903" height="194" viewBox="0 0 903 194" fill="none" xmlns="http://www.w3.org/2000/svg" preserveAspectRatio="none">
<path d="M702.574 4.52985e-05C705.824 -0.00505359 709.06 0.420326 712.198 1.26506C713.767 1.68203 715.312 2.18275 716.827 2.76506C718.34 3.35506 719.827 4.01009 721.287 4.73009C724.176 6.20009 727.076 7.73008 729.575 9.85008C730.828 10.8945 732.009 12.022 733.11 13.2251C734.215 14.422 735.26 15.6736 736.239 16.9751C740.144 22.1951 743.238 27.9751 745.978 33.8451C748.718 39.7151 751.097 45.7901 753.322 51.8851C757.781 64.0851 761.571 76.5051 765.47 88.8851C769.37 101.265 773.264 113.625 777.744 125.785C779.973 131.865 782.348 137.895 784.958 143.815C786.272 146.775 787.642 149.705 789.097 152.59C789.817 154.04 790.567 155.47 791.337 156.895C791.732 157.595 792.092 158.335 792.527 158.995C792.924 159.686 793.362 160.354 793.836 160.995C795.754 163.564 797.996 165.875 800.505 167.87C803.02 169.894 805.695 171.71 808.504 173.3C811.302 174.908 814.182 176.368 817.133 177.675C820.088 178.985 823.087 180.175 826.132 181.265C832.232 183.428 838.453 185.233 844.764 186.67C851.073 188.14 857.447 189.31 863.861 190.24C876.697 192.095 889.647 193.056 902.616 193.115C889.635 193.221 876.662 192.424 863.791 190.73C857.357 189.85 850.958 188.73 844.624 187.295C838.276 185.896 832.014 184.128 825.872 182C819.7 179.913 813.737 177.255 808.059 174.06C805.215 172.45 802.506 170.61 799.96 168.56C797.383 166.521 795.081 164.156 793.111 161.525C792.618 160.865 792.162 160.177 791.747 159.465C791.292 158.765 790.942 158.045 790.537 157.335C789.762 155.905 789.002 154.465 788.272 153.015C786.809 150.112 785.416 147.173 784.093 144.2C781.458 138.26 779.058 132.2 776.814 126.13C767.89 101.725 761.261 76.5951 752.612 52.1601C750.437 46.0601 748.113 40.015 745.418 34.12C742.724 28.225 739.689 22.4901 735.865 17.2801C734.91 15.9777 733.891 14.7244 732.81 13.5251C731.736 12.3214 730.582 11.1921 729.355 10.1451C726.921 8.02506 724.061 6.46007 721.197 4.96007C719.757 4.22673 718.285 3.56007 716.782 2.96007C715.279 2.36048 713.746 1.84142 712.188 1.40507C709.059 0.5142 705.827 0.0417277 702.574 4.52985e-05Z" fill="white"/>
<path d="M702.51 0C698.266 0.0549576 694.062 0.820569 690.072 2.26501C686.091 3.7113 682.281 5.59268 678.713 7.875C675.211 10.2489 672.147 13.2109 669.654 16.63C667.123 20.027 664.878 23.6276 662.94 27.395C659.006 34.895 655.846 42.765 652.942 50.72C650.037 58.675 647.443 66.745 644.908 74.83C639.844 91.005 635.004 107.265 629.29 123.25C626.426 131.25 623.336 139.155 619.792 146.88C618.017 150.74 616.127 154.55 614.077 158.28C613.062 160.182 611.838 161.965 610.428 163.595C609.015 165.212 607.479 166.716 605.833 168.095C602.528 170.81 598.959 173.186 595.18 175.19C591.424 177.198 587.549 178.974 583.577 180.51C575.634 183.551 567.469 185.976 559.155 187.765C550.855 189.574 542.464 190.941 534.019 191.86C525.58 192.78 517.111 193.315 508.612 193.465C504.368 193.545 500.114 193.505 495.889 193.51H483.176H457.745L406.887 193.485L0.0292969 193.15L406.887 192.82L457.745 192.79H483.176H495.889C500.129 192.79 504.388 192.79 508.597 192.705C525.515 192.29 542.433 190.56 558.95 186.895C567.215 185.105 575.329 182.681 583.222 179.645C587.16 178.12 591.001 176.351 594.72 174.35C598.442 172.368 601.958 170.024 605.219 167.35C608.423 164.655 611.303 161.54 613.253 157.85C615.292 154.155 617.182 150.35 618.952 146.53C622.486 138.845 625.576 130.955 628.45 122.99C634.19 107.05 639.024 90.795 644.203 74.65C646.788 66.575 649.442 58.515 652.372 50.55C655.302 42.585 658.526 34.715 662.531 27.215C664.517 23.4547 666.809 19.8642 669.385 16.48C671.931 13.0587 675.05 10.1035 678.603 7.745C682.206 5.49646 686.045 3.65199 690.052 2.245C694.05 0.806537 698.261 0.0477206 702.51 0Z" fill="white"/>
<path opacity="0.5" fill-rule="evenodd" clip-rule="evenodd" d="M0.0449219 193.1H502.474C555.866 193.1 602.065 178.76 613.293 158.655C640.509 109.92 650.288 24.855 679.184 7.41504C687.373 2.47004 694.932 0 702.491 0H702.556C710.114 0 717.673 2.47004 725.862 7.41504C754.758 24.855 764.542 109.915 791.758 158.655C802.986 178.76 849.18 193.1 902.577 193.1" fill="url(#paint0_linear_296_662)"/>
<defs>
<linearGradient id="paint0_linear_296_662" x1="451.321" y1="193.1" x2="451.321" y2="0" gradientUnits="userSpaceOnUse">
<stop stop-color="white" stop-opacity="0.2"/>
<stop offset="0.05" stop-color="#EFFAFD" stop-opacity="0.3"/>
<stop offset="0.16" stop-color="#D0F1FA" stop-opacity="0.48"/>
<stop offset="0.28" stop-color="#B5E9F7" stop-opacity="0.64"/>
<stop offset="0.41" stop-color="#9FE2F4" stop-opacity="0.77"/>
<stop offset="0.53" stop-color="#8EDDF2" stop-opacity="0.87"/>
<stop offset="0.67" stop-color="#82DAF1" stop-opacity="0.94"/>
<stop offset="0.82" stop-color="#7BD8F0" stop-opacity="0.99"/>
<stop offset="1" stop-color="#79D7F0"/>
</linearGradient>
</defs>
</svg>
