<svg width="903" height="4" viewBox="0 0 903 4" fill="none" xmlns="http://www.w3.org/2000/svg">
<path d="M702.576 0L727.573 0.130005C735.905 0.220005 744.237 0.45335 752.569 0.830017C760.898 1.21502 769.222 1.73004 777.566 2.10004C785.909 2.47004 794.228 2.75501 802.562 2.82001C819.235 3.02001 835.907 3.09998 852.555 3.16498L902.578 3.27502L852.555 3.23499C835.882 3.18499 819.21 3.13001 802.562 2.95001C794.223 2.87501 785.889 2.58501 777.566 2.20001C769.242 1.81501 760.913 1.29502 752.569 0.900024C744.225 0.505024 735.906 0.264978 727.573 0.164978L702.576 0Z" fill="white"/>
<path d="M702.51 0L680.559 0.130005C673.226 0.190005 665.911 0.356672 658.612 0.630005C651.298 0.900005 643.994 1.33003 636.685 1.72003C629.376 2.11003 622.067 2.445 614.753 2.685C607.439 2.925 600.12 2.95503 592.801 3.03003L570.849 3.185C556.211 3.265 541.575 3.30834 526.94 3.315H351.305L0.0449219 3.28003L351.305 3.25L526.94 3.21002L570.844 3.07501L592.801 2.94C600.115 2.87 607.434 2.83499 614.748 2.60999C622.062 2.38499 629.376 2.05998 636.685 1.66998C643.994 1.27998 651.298 0.860032 658.612 0.595032C665.926 0.330032 673.24 0.170032 680.559 0.0950317L702.51 0Z" fill="white"/>
<path opacity="0.5" fill-rule="evenodd" clip-rule="evenodd" d="M0.0449219 3.27502H502.474C555.866 3.27502 602.065 3.035 613.293 2.69C640.509 1.865 650.288 0.42 679.184 0.125C687.373 0.04 694.932 0 702.491 0H702.556C710.114 0 717.673 0.04 725.862 0.125C754.758 0.42 764.542 1.865 791.758 2.69C802.986 3.035 849.18 3.27502 902.577 3.27502" fill="url(#paint0_linear_296_658)"/>
<defs>
<linearGradient id="paint0_linear_296_658" x1="451.321" y1="3.27502" x2="451.321" y2="0" gradientUnits="userSpaceOnUse">
<stop stop-color="white" stop-opacity="0.2"/>
<stop offset="0.05" stop-color="#EFFAFD" stop-opacity="0.3"/>
<stop offset="0.16" stop-color="#D0F1FA" stop-opacity="0.48"/>
<stop offset="0.28" stop-color="#B5E9F7" stop-opacity="0.64"/>
<stop offset="0.41" stop-color="#9FE2F4" stop-opacity="0.77"/>
<stop offset="0.53" stop-color="#8EDDF2" stop-opacity="0.87"/>
<stop offset="0.67" stop-color="#82DAF1" stop-opacity="0.94"/>
<stop offset="0.82" stop-color="#7BD8F0" stop-opacity="0.99"/>
<stop offset="1" stop-color="#79D7F0"/>
</linearGradient>
</defs>
</svg>
