<svg width="904" height="4" viewBox="0 0 904 4" fill="none" xmlns="http://www.w3.org/2000/svg">
<path d="M452.031 0L466.149 0.0700073C470.854 0.0700073 475.563 0.0999927 480.267 0.179993C489.676 0.319993 499.08 0.653326 508.478 1.17999C517.877 1.67999 527.276 2.18002 536.679 2.52502C539.034 2.60002 541.384 2.68499 543.733 2.73499L550.792 2.84503L564.91 2.97998C602.548 3.21998 640.191 3.31167 677.839 3.255L903.702 3.29498L677.839 3.33502C640.195 3.33502 602.55 3.39002 564.905 3.08002L550.792 2.92999L543.733 2.815C541.379 2.765 539.029 2.67504 536.679 2.60004C527.271 2.27004 517.877 1.74498 508.478 1.22998C499.08 0.71498 489.676 0.37498 480.267 0.22998C475.558 0.14998 470.854 0.13498 466.149 0.10498L452.031 0Z" fill="white"/>
<path d="M451.972 0L437.824 0.0700073C433.119 0.100007 428.41 0.115007 423.701 0.195007C414.289 0.345007 404.88 0.678341 395.475 1.19501C386.071 1.69501 376.667 2.235 367.259 2.56C364.904 2.64 362.549 2.72502 360.2 2.77502L353.136 2.89502L339.013 3.03998C301.348 3.34998 263.683 3.29998 226.029 3.29498L0.0605469 3.255L226.029 3.21503C263.69 3.21503 301.351 3.12334 339.013 2.94L353.136 2.80499L360.195 2.69501C362.549 2.64501 364.904 2.55999 367.254 2.48499C376.667 2.16999 386.066 1.65002 395.47 1.14502C404.873 0.64002 414.287 0.30002 423.701 0.14502C428.41 0.0650195 433.119 0.0600342 437.824 0.0350342L451.972 0Z" fill="white"/>
<path opacity="0.5" fill-rule="evenodd" clip-rule="evenodd" d="M151.08 3.27502H251.951C305.343 3.27502 351.542 3.035 362.77 2.69C389.986 1.865 399.765 0.42 428.661 0.125C436.85 0.04 444.409 0 451.973 0H452.033C459.596 0 467.155 0.04 475.344 0.125C504.235 0.42 514.019 1.865 541.235 2.69C552.463 3.035 598.662 3.27502 652.054 3.27502H752.925" fill="url(#paint0_linear_296_740)"/>
<defs>
<linearGradient id="paint0_linear_296_740" x1="452.003" y1="3.27502" x2="452.003" y2="0" gradientUnits="userSpaceOnUse">
<stop stop-color="white" stop-opacity="0.2"/>
<stop offset="0.05" stop-color="#E9F8F8" stop-opacity="0.29"/>
<stop offset="0.18" stop-color="#B3E5E5" stop-opacity="0.51"/>
<stop offset="0.32" stop-color="#86D6D6" stop-opacity="0.69"/>
<stop offset="0.47" stop-color="#63CBCB" stop-opacity="0.82"/>
<stop offset="0.62" stop-color="#4AC2C2" stop-opacity="0.92"/>
<stop offset="0.79" stop-color="#3CBEBE" stop-opacity="0.98"/>
<stop offset="1" stop-color="#37BCBC"/>
</linearGradient>
</defs>
</svg>
