<svg width="903" height="83" viewBox="0 0 903 83" fill="none" xmlns="http://www.w3.org/2000/svg">
<path d="M200.121 0C207.766 0.0227809 215.377 1.00374 222.778 2.91998C226.503 3.81337 230.087 5.21843 233.426 7.09503C236.757 8.98899 239.865 11.2515 242.69 13.84C248.369 18.985 253.119 25.035 257.688 31.14C262.257 37.245 266.627 43.52 271.391 49.47C276.155 55.42 281.29 61.09 287.159 65.97C287.889 66.5767 288.632 67.17 289.388 67.75C290.137 68.3118 290.93 68.8134 291.758 69.25C293.431 70.1367 295.167 70.8988 296.952 71.53C300.544 72.7891 304.206 73.8342 307.921 74.66C315.35 76.35 322.889 77.53 330.453 78.5C338.017 79.47 345.605 80.215 353.209 80.795C368.422 81.95 383.675 82.48 398.933 82.535H444.721H536.293L902.592 82.74L536.293 82.95L444.721 82.975H398.933C383.665 82.975 368.392 82.475 353.164 81.36C345.551 80.79 337.942 80.09 330.368 79.095C322.794 78.1 315.24 76.9 307.791 75.18C304.055 74.34 300.372 73.2782 296.762 72C294.952 71.3568 293.192 70.5779 291.498 69.67C290.644 69.2135 289.83 68.6867 289.063 68.095C288.304 67.5084 287.557 66.91 286.824 66.3C280.93 61.4 275.775 55.69 271.026 49.71C266.277 43.73 261.902 37.46 257.363 31.33C252.824 25.2 248.099 19.175 242.465 14.045C239.666 11.4612 236.593 9.19114 233.301 7.27502C229.99 5.396 226.435 3.98267 222.738 3.07501C215.358 1.10657 207.759 0.0734647 200.121 0Z" fill="white"/>
<path d="M200.057 0.000657649C195.262 0.0379168 190.479 0.477798 185.759 1.31566C183.399 1.73566 181.056 2.23566 178.73 2.81566C178.145 2.95066 177.57 3.11066 176.99 3.25566C176.41 3.40066 175.845 3.59566 175.27 3.75566C174.115 4.06566 173.01 4.53567 171.891 4.94566C169.681 5.85084 167.551 6.93791 165.521 8.19567C164.487 8.79067 163.522 9.51066 162.522 10.1957C162.022 10.5457 161.577 10.9207 161.102 11.2857C160.627 11.6507 160.152 12.0107 159.702 12.4057L158.338 13.5657C157.893 13.9607 157.463 14.3757 157.023 14.7807C156.128 15.5807 155.308 16.4507 154.458 17.2807C152.808 19.0107 151.204 20.7807 149.679 22.6307C146.604 26.3007 143.74 30.1307 140.915 34.0157C138.09 37.9007 135.301 41.7906 132.416 45.6207C129.532 49.4507 126.517 53.2057 123.302 56.7757C120.106 60.3738 116.635 63.7172 112.919 66.7757C111.974 67.5257 111.069 68.3057 110.034 68.9757C109.534 69.3057 108.985 69.5957 108.46 69.9007C107.935 70.2057 107.375 70.4457 106.83 70.7057C104.626 71.6864 102.359 72.5215 100.046 73.2057C95.4434 74.5761 90.7707 75.6978 86.0477 76.5657C76.6091 78.3457 67.0804 79.5657 57.5268 80.4457C47.9731 81.3257 38.3995 81.9457 28.8159 82.3307C19.2322 82.7157 9.63856 82.8307 0.0449219 82.7757C9.6369 82.7157 19.2222 82.459 28.8009 82.0057C38.3745 81.5507 47.9431 80.9007 57.4768 79.9407C67.0104 78.9807 76.5291 77.7807 85.9328 75.9707C90.6378 75.0998 95.2923 73.9748 99.8758 72.6007C104.415 71.1707 108.985 69.5157 112.519 66.2657C116.218 63.2364 119.677 59.9266 122.868 56.3656C126.082 52.8206 129.087 49.0907 131.991 45.2857C134.896 41.4807 137.7 37.5807 140.54 33.7207C143.38 29.8607 146.269 26.0157 149.364 22.3407C150.904 20.4957 152.523 18.7206 154.188 16.9906C155.048 16.1456 155.873 15.2756 156.773 14.4906C157.218 14.0856 157.653 13.6707 158.103 13.2757L159.482 12.1106C159.937 11.7106 160.412 11.3506 160.892 10.9856C161.372 10.6206 161.842 10.2457 162.332 9.89568C163.332 9.22568 164.297 8.50568 165.332 7.89568C167.381 6.63067 169.536 5.54337 171.771 4.64568C172.905 4.24568 174.02 3.78564 175.19 3.48564C175.765 3.32064 176.34 3.14564 176.925 2.98564C177.51 2.82564 178.085 2.69066 178.675 2.56066C181.008 2.01066 183.359 1.53901 185.729 1.14568C190.464 0.364911 195.257 -0.0181117 200.057 0.000657649Z" fill="white"/>
<path opacity="0.5" fill-rule="evenodd" clip-rule="evenodd" d="M0.0351562 82.78C53.4326 82.78 99.6311 76.635 110.854 68.015C138.071 47.12 147.849 10.655 176.75 3.17499C184.351 1.12409 192.184 0.0570555 200.057 0H200.122C207.995 0.0570555 215.827 1.12409 223.429 3.17499C252.324 10.675 262.103 47.12 289.319 68.015C300.548 76.635 346.746 82.78 400.139 82.78H501.014" fill="url(#paint0_linear_296_687)"/>
<defs>
<linearGradient id="paint0_linear_296_687" x1="250.525" y1="82.78" x2="250.525" y2="0" gradientUnits="userSpaceOnUse">
<stop stop-color="white" stop-opacity="0.2"/>
<stop offset="0.08" stop-color="#FFF7FA" stop-opacity="0.35"/>
<stop offset="0.19" stop-color="#FFEDF4" stop-opacity="0.52"/>
<stop offset="0.31" stop-color="#FFE4EF" stop-opacity="0.67"/>
<stop offset="0.42" stop-color="#FFDDEB" stop-opacity="0.79"/>
<stop offset="0.55" stop-color="#FFD8E8" stop-opacity="0.88"/>
<stop offset="0.68" stop-color="#FFD4E6" stop-opacity="0.95"/>
<stop offset="0.82" stop-color="#FFD2E4" stop-opacity="0.99"/>
<stop offset="1" stop-color="#FFD1E4"/>
</linearGradient>
</defs>
</svg>
