<svg width="903" height="282" viewBox="0 0 903 282" fill="none" xmlns="http://www.w3.org/2000/svg">
<path d="M702.574 0C706.609 0.0325914 710.586 0.961661 714.218 2.72C717.841 4.47549 721.234 6.6703 724.321 9.25497C725.897 10.5133 727.372 11.8942 728.731 13.385C730.057 14.9044 731.285 16.5059 732.41 18.18C734.61 21.5536 736.558 25.0848 738.239 28.745C741.629 36.05 744.278 43.66 746.688 51.325C749.098 58.99 751.187 66.755 753.187 74.54C757.141 90.115 760.506 105.82 763.916 121.51C767.325 137.2 770.665 152.895 774.354 168.51C778.044 184.125 781.983 199.69 786.852 214.96C788.082 218.775 789.352 222.575 790.732 226.335C791.062 227.28 791.427 228.215 791.772 229.155L792.302 230.56L792.881 231.925C793.076 232.38 793.261 232.84 793.466 233.29L794.141 234.62C794.366 235.06 794.581 235.505 794.821 235.94L795.576 237.22C797.622 240.628 800.034 243.802 802.77 246.685C805.504 249.596 808.477 252.272 811.659 254.685C814.856 257.088 818.195 259.297 821.657 261.3C825.126 263.291 828.694 265.105 832.346 266.735C835.99 268.395 839.74 269.81 843.509 271.15C847.279 272.49 851.133 273.61 855.008 274.65C862.761 276.693 870.64 278.224 878.594 279.235C886.556 280.228 894.568 280.757 902.591 280.82C894.559 280.858 886.531 280.427 878.549 279.53C870.563 278.618 862.645 277.181 854.848 275.23C852.903 274.73 850.958 274.23 849.034 273.62C847.109 273.01 845.194 272.43 843.279 271.805C839.485 270.485 835.705 269.09 832.031 267.445C828.339 265.832 824.733 264.03 821.227 262.045C817.723 260.049 814.343 257.843 811.104 255.44C804.67 250.595 798.841 244.765 794.661 237.795L793.881 236.485C793.636 236.04 793.416 235.585 793.181 235.13L792.491 233.775C792.282 233.315 792.092 232.84 791.887 232.375L791.292 230.975L790.757 229.565C790.402 228.62 790.037 227.685 789.702 226.735C788.312 222.965 787.022 219.155 785.787 215.33C780.853 200.025 776.849 184.45 773.144 168.83C765.81 137.555 759.866 105.98 752.252 74.83C750.337 67.04 748.253 59.285 745.948 51.615C743.683 43.926 740.926 36.3905 737.694 29.055C736.069 25.3969 734.176 21.864 732.03 18.485C730.938 16.8135 729.743 15.212 728.451 13.69C727.12 12.1969 725.674 10.811 724.126 9.54501C721.077 6.93476 717.719 4.70813 714.128 2.91498C710.54 1.10003 706.594 0.104432 702.574 0Z" fill="white"/>
<path d="M702.51 0C700.197 0.0217699 697.898 0.358189 695.676 1C693.46 1.65135 691.323 2.54333 689.302 3.66C687.276 4.77017 685.335 6.02686 683.492 7.42001C681.645 8.79944 679.88 10.287 678.208 11.875C674.939 15.13 672.419 19.055 670.209 23.1C668.047 27.1774 666.137 31.3836 664.49 35.695C661.231 44.3437 658.411 53.1516 656.041 62.085C653.612 71 651.442 79.99 649.382 89C647.323 98.01 645.383 107.05 643.453 116.095L637.629 143.225C633.699 161.3 629.63 179.36 624.716 197.225C622.251 206.15 619.596 215.025 616.507 223.765C615.737 225.952 614.939 228.127 614.112 230.29C613.296 232.485 612.31 234.613 611.163 236.655C608.845 240.72 606.019 244.474 602.754 247.825C596.255 254.545 588.466 259.825 580.257 264.155C571.993 268.405 563.322 271.812 554.376 274.325C536.528 279.445 517.881 281.45 499.383 281.215L443.891 281.18L0.0390625 280.8L443.891 280.42L499.383 280.39C517.841 280.57 536.348 278.39 554.081 273.305C562.952 270.8 571.548 267.405 579.737 263.17C587.866 258.895 595.555 253.635 601.919 247.025C605.11 243.738 607.87 240.059 610.133 236.075C611.248 234.083 612.205 232.006 612.997 229.865C613.817 227.705 614.609 225.538 615.372 223.365C618.422 214.655 621.116 205.815 623.581 196.915C633.424 161.275 640.078 124.84 648.532 88.815C650.647 79.815 652.862 70.815 655.346 61.905C657.831 52.995 660.566 44.13 664 35.525C665.698 31.211 667.658 27.0048 669.869 22.93C672.119 18.89 674.694 14.965 678.023 11.715C679.718 10.1326 681.506 8.6533 683.377 7.285C685.239 5.90593 687.199 4.66428 689.242 3.56998C691.281 2.46935 693.435 1.59581 695.666 0.964996C697.893 0.335578 700.195 0.010961 702.51 0Z" fill="white"/>
<path opacity="0.5" fill-rule="evenodd" clip-rule="evenodd" d="M0.0449219 280.79H502.474C555.866 280.79 602.065 259.935 613.293 230.705C640.509 159.84 650.288 36.135 679.184 10.78C687.373 3.595 694.932 0 702.491 0H702.556C710.114 0 717.673 3.595 725.862 10.78C754.758 36.135 764.542 159.84 791.758 230.705C802.986 259.935 849.18 280.79 902.577 280.79" fill="url(#paint0_linear_296_666)"/>
<defs>
<linearGradient id="paint0_linear_296_666" x1="451.321" y1="280.79" x2="451.321" y2="0" gradientUnits="userSpaceOnUse">
<stop stop-color="white" stop-opacity="0.2"/>
<stop offset="0.05" stop-color="#EFFAFD" stop-opacity="0.3"/>
<stop offset="0.16" stop-color="#D0F1FA" stop-opacity="0.48"/>
<stop offset="0.28" stop-color="#B5E9F7" stop-opacity="0.64"/>
<stop offset="0.41" stop-color="#9FE2F4" stop-opacity="0.77"/>
<stop offset="0.53" stop-color="#8EDDF2" stop-opacity="0.87"/>
<stop offset="0.67" stop-color="#82DAF1" stop-opacity="0.94"/>
<stop offset="0.82" stop-color="#7BD8F0" stop-opacity="0.99"/>
<stop offset="1" stop-color="#79D7F0"/>
</linearGradient>
</defs>
</svg>
