<svg width="903" height="45" viewBox="0 0 903 45" fill="none" xmlns="http://www.w3.org/2000/svg">
<path d="M702.574 0.000263126C711.336 -0.0154402 720.084 0.671756 728.736 2.05526C733.055 2.82962 737.281 4.05635 741.344 5.71523C745.395 7.40032 749.286 9.44516 752.972 11.8252C760.371 16.5402 767.13 22.1452 774.419 26.9702C778.045 29.407 781.818 31.6162 785.717 33.5852C787.662 34.5852 789.662 35.4603 791.672 36.3103C793.702 37.0903 795.796 37.6926 797.931 38.1102C802.195 39.0152 806.53 39.6103 810.869 40.1803C815.208 40.7503 819.558 41.1552 823.917 41.5352C832.631 42.2852 841.365 42.8303 850.108 43.2503C858.852 43.6703 867.606 43.9602 876.345 44.1652C885.083 44.3702 893.842 44.5103 902.596 44.5553C893.841 44.5886 885.088 44.5369 876.34 44.4002C867.591 44.2636 858.842 43.9885 850.093 43.5752C841.35 43.1802 832.596 42.6653 823.882 41.9353C819.518 41.5703 815.158 41.1503 810.814 40.6203C806.47 40.0903 802.125 39.4852 797.816 38.5852C795.655 38.1563 793.535 37.539 791.482 36.7403C789.482 35.8753 787.482 34.9852 785.483 33.9802C781.575 31.9918 777.793 29.7642 774.159 27.3103C766.865 22.4453 760.121 16.8102 752.762 12.1002C749.101 9.71453 745.23 7.66613 741.199 5.98024C737.158 4.31347 732.954 3.07503 728.656 2.28524C720.036 0.831272 711.315 0.0672092 702.574 0.000263126Z" fill="white"/>
<path d="M702.51 0C695.088 0.0476409 687.677 0.592197 680.328 1.63C676.651 2.10399 673.018 2.87483 669.465 3.935C665.92 5.0229 662.478 6.41818 659.176 8.10498C652.552 11.45 646.573 15.9 640.619 20.315C634.665 24.73 628.621 29.1 622.062 32.625C621.242 33.065 620.427 33.51 619.592 33.915L618.347 34.545L617.082 35.1349L615.817 35.725L614.538 36.28C614.113 36.46 613.688 36.65 613.258 36.825C612.828 37 612.383 37.17 611.938 37.325C610.161 37.8863 608.353 38.3454 606.524 38.7C604.704 39.0849 602.869 39.3899 601.024 39.7C593.68 40.8349 586.287 41.57 578.888 42.2C564.09 43.41 549.247 44.055 534.394 44.425C526.968 44.6117 519.546 44.7266 512.127 44.77C504.703 44.815 497.279 44.77 489.86 44.77H445.327H356.264L0.0195312 44.615L356.264 44.46H445.327H489.86C497.279 44.46 504.703 44.46 512.122 44.41C519.541 44.36 526.965 44.215 534.379 44.015C541.793 43.815 549.212 43.515 556.626 43.175C564.04 42.835 571.444 42.38 578.838 41.79C586.232 41.2 593.621 40.475 600.95 39.365C602.779 39.075 604.609 38.77 606.449 38.395C608.263 38.0431 610.055 37.5891 611.818 37.035C612.263 36.905 612.683 36.7249 613.118 36.5699C613.553 36.4149 613.968 36.21 614.398 36.03L615.672 35.48L616.932 34.895L618.192 34.31L619.432 33.685C620.267 33.28 621.082 32.845 621.896 32.405C628.436 28.905 634.475 24.565 640.439 20.155C646.403 15.745 652.407 11.31 659.061 7.96497C662.377 6.27533 665.839 4.88965 669.405 3.82495C672.973 2.78348 676.619 2.0327 680.308 1.57996C687.665 0.558804 695.083 0.0310032 702.51 0Z" fill="white"/>
<path opacity="0.5" fill-rule="evenodd" clip-rule="evenodd" d="M0.0449219 44.555H502.474C555.866 44.555 602.065 41.245 613.293 36.61C640.509 25.365 650.288 5.73497 679.184 1.71497C686.903 0.599841 694.691 0.0268061 702.491 0H702.556C710.355 0.0268061 718.143 0.599841 725.862 1.71497C754.758 5.71497 764.542 25.365 791.758 36.61C802.986 41.245 849.18 44.555 902.577 44.555" fill="url(#paint0_linear_296_650)"/>
<defs>
<linearGradient id="paint0_linear_296_650" x1="451.321" y1="44.555" x2="451.321" y2="0" gradientUnits="userSpaceOnUse">
<stop stop-color="white" stop-opacity="0.2"/>
<stop offset="0.05" stop-color="#EFFAFD" stop-opacity="0.3"/>
<stop offset="0.16" stop-color="#D0F1FA" stop-opacity="0.48"/>
<stop offset="0.28" stop-color="#B5E9F7" stop-opacity="0.64"/>
<stop offset="0.41" stop-color="#9FE2F4" stop-opacity="0.77"/>
<stop offset="0.53" stop-color="#8EDDF2" stop-opacity="0.87"/>
<stop offset="0.67" stop-color="#82DAF1" stop-opacity="0.94"/>
<stop offset="0.82" stop-color="#7BD8F0" stop-opacity="0.99"/>
<stop offset="1" stop-color="#79D7F0"/>
</linearGradient>
</defs>
</svg>
