<svg width="903" height="495" viewBox="0 0 903 495" fill="none" xmlns="http://www.w3.org/2000/svg" preserveAspectRatio="none">
<path d="M200.123 0C202.947 0.0443941 205.708 0.839977 208.122 2.30499C210.555 3.7497 212.782 5.51744 214.741 7.56C216.709 9.57895 218.531 11.7343 220.195 14.01C221.035 15.14 221.85 16.285 222.635 17.455C223.42 18.625 224.2 19.805 224.9 21.03C226.286 23.4873 227.522 26.027 228.599 28.635C229.699 31.23 230.674 33.875 231.599 36.54C233.418 41.87 234.963 47.29 236.373 52.74C239.183 63.645 241.452 74.68 243.497 85.74C245.542 96.8 247.336 107.92 249.031 119.045C255.77 163.545 260.859 208.28 266.464 252.92C269.258 275.24 272.143 297.555 275.337 319.815C278.532 342.075 281.961 364.315 286.176 386.395C287.232 391.915 288.346 397.415 289.515 402.895C290.608 408.383 292.095 413.786 293.965 419.06C297.73 429.614 303.089 439.529 309.858 448.46C320.071 461.868 333.14 472.834 348.116 480.565C363.093 488.295 379.601 492.596 396.445 493.155C399.24 493.255 402.054 493.225 404.864 493.23H413.303H430.176L497.666 493.275L632.647 493.39L902.609 493.655L632.647 493.92L497.666 494.04L430.176 494.085H404.864C402.054 494.085 399.24 494.115 396.415 494.035C385.103 493.71 373.901 491.718 363.17 488.125C335.991 479.157 313.239 460.186 299.529 435.06C296.827 430.076 294.506 424.894 292.585 419.56C290.684 414.229 289.17 408.769 288.056 403.22C286.872 397.713 285.748 392.197 284.681 386.67C276.232 342.46 270.503 297.765 264.964 253.115L256.79 186.115C254.025 163.785 251.236 141.46 247.971 119.21C246.336 108.085 244.587 96.975 242.612 85.905C240.637 74.835 238.443 63.805 235.738 52.905C234.378 47.45 232.878 42.03 231.114 36.7C230.224 34.04 229.274 31.395 228.204 28.8C227.152 26.2002 225.945 23.6656 224.59 21.21C223.9 19.985 223.145 18.81 222.37 17.635C221.595 16.46 220.79 15.315 219.965 14.18C218.323 11.8955 216.529 9.7239 214.596 7.67999C212.678 5.62625 210.492 3.8402 208.097 2.37C205.697 0.885072 202.944 0.0669813 200.123 0Z" fill="white"/>
<path d="M200.058 0C198.554 0.0372314 197.063 0.293229 195.633 0.759979C194.216 1.25541 192.858 1.90603 191.584 2.69998C189.078 4.35298 186.798 6.32449 184.8 8.565C182.784 10.7905 180.919 13.1473 179.216 15.62C177.459 18.0509 175.89 20.6116 174.521 23.28C174.161 23.94 173.871 24.635 173.546 25.305C173.221 25.975 172.906 26.665 172.626 27.36L171.747 29.43L170.937 31.53C170.662 32.23 170.407 32.935 170.162 33.645L169.412 35.765C168.947 37.195 168.472 38.62 168.032 40.05C166.272 45.795 164.748 51.61 163.398 57.46C160.648 69.16 158.433 80.96 156.399 92.835C154.364 104.71 152.604 116.58 150.9 128.49C144.25 176.13 138.936 223.96 132.902 271.705C129.842 295.575 126.613 319.425 122.903 343.205C121.044 355.1 119.069 366.97 116.879 378.81C115.784 384.73 114.645 390.64 113.42 396.535C112.82 399.48 112.17 402.42 111.535 405.365C111.195 406.835 110.82 408.305 110.465 409.77C110.3 410.51 110.07 411.23 109.86 411.96L109.225 414.135C105.688 425.72 100.284 436.65 93.2277 446.495C86.1611 456.323 77.5629 464.953 67.7613 472.055C53.0165 482.668 35.9627 489.627 18.0033 492.36C12.0469 493.26 6.02973 493.696 0.00585938 493.665C12.045 493.561 23.9959 491.598 35.4358 487.845C46.8522 484.079 57.6016 478.533 67.2863 471.41C76.9579 464.305 85.429 455.695 92.3778 445.91C99.3143 436.127 104.605 425.275 108.041 413.785L108.66 411.63C108.86 410.91 109.08 410.195 109.24 409.465C109.585 408.005 109.945 406.56 110.27 405.095C110.89 402.155 111.515 399.22 112.1 396.27C113.3 390.38 114.436 384.478 115.51 378.565C117.674 366.74 119.624 354.875 121.454 342.99C125.113 319.22 128.283 295.375 131.302 271.49C134.322 247.605 137.256 223.745 140.221 199.87C141.701 187.93 143.212 175.993 144.755 164.06C146.299 152.127 147.942 140.207 149.685 128.3C151.434 116.395 153.294 104.505 155.379 92.65C157.464 80.795 159.758 68.97 162.603 57.27C164.033 51.42 165.602 45.6 167.427 39.86C167.882 38.425 168.372 37 168.857 35.575L169.627 33.45C169.882 32.74 170.127 32.035 170.432 31.335L171.262 29.235L172.162 27.16C172.451 26.465 172.776 25.78 173.111 25.105C173.446 24.43 173.741 23.735 174.111 23.075C175.517 20.4052 177.122 17.8447 178.911 15.415C180.648 12.9593 182.545 10.6208 184.59 8.41498C186.628 6.18934 188.947 4.23801 191.489 2.60999C192.779 1.82895 194.153 1.19341 195.583 0.714996C197.032 0.260116 198.539 0.0192452 200.058 0Z" fill="white"/>
<path opacity="0.5" fill-rule="evenodd" clip-rule="evenodd" d="M0.0351562 493.665C53.4326 493.665 99.6311 457 110.854 405.605C138.071 281.015 147.854 63.5348 176.745 18.9598C184.934 6.32978 192.493 0.00976562 200.052 0.00976562H200.117C207.676 0.00976562 215.235 6.32978 223.424 18.9598C252.319 63.5448 262.098 281.025 289.314 405.615C300.543 457.01 346.741 493.675 400.134 493.675H501.009" fill="url(#paint0_linear_296_715)"/>
<defs>
<linearGradient id="paint0_linear_296_715" x1="250.525" y1="493.665" x2="250.525" y2="-0.000238783" gradientUnits="userSpaceOnUse">
<stop stop-color="white" stop-opacity="0.2"/>
<stop offset="0.08" stop-color="#FFF7FA" stop-opacity="0.35"/>
<stop offset="0.19" stop-color="#FFEDF4" stop-opacity="0.52"/>
<stop offset="0.31" stop-color="#FFE4EF" stop-opacity="0.67"/>
<stop offset="0.42" stop-color="#FFDDEB" stop-opacity="0.79"/>
<stop offset="0.55" stop-color="#FFD8E8" stop-opacity="0.88"/>
<stop offset="0.68" stop-color="#FFD4E6" stop-opacity="0.95"/>
<stop offset="0.82" stop-color="#FFD2E4" stop-opacity="0.99"/>
<stop offset="1" stop-color="#FFD1E4"/>
</linearGradient>
</defs>
</svg>
