<svg width="904" height="615" viewBox="0 0 904 615" fill="none" xmlns="http://www.w3.org/2000/svg">
<path d="M452.033 6.29157e-05C453.264 0.00472715 454.487 0.20039 455.658 0.580065C456.822 0.973938 457.936 1.50252 458.977 2.15506C461.045 3.49362 462.921 5.10856 464.551 6.95506C467.856 10.6001 470.551 14.7451 473.015 18.9901C474.235 21.1251 475.425 23.2751 476.49 25.4901C477.555 27.7051 478.489 29.9901 479.334 32.2951C481.044 36.9051 482.469 41.6151 483.759 46.3551C486.318 55.8551 488.348 65.4601 490.183 75.1051C492.018 84.7501 493.602 94.4451 495.062 104.155C497.982 123.575 500.436 143.055 502.721 162.555C505.006 182.055 507.11 201.555 509.105 221.1C513.105 260.155 516.819 299.235 520.848 338.28C522.848 357.8 524.955 377.31 527.168 396.81C529.377 416.31 531.747 435.81 534.407 455.225C535.74 464.945 537.156 474.652 538.656 484.345C539.416 489.192 540.202 494.025 541.016 498.845C541.83 503.685 542.645 508.505 543.745 513.26C548.105 532.29 555.919 550.59 567.212 566.535C572.841 574.519 579.384 581.817 586.709 588.28C594.039 594.746 602.211 600.191 611.001 604.465C624.228 610.918 638.778 614.2 653.495 614.05H668.213L903.714 614.475L668.213 614.9H653.495C638.636 615.122 623.929 611.88 610.541 605.43C601.632 601.154 593.343 595.691 585.899 589.19C578.459 582.696 571.805 575.352 566.072 567.31C560.331 559.277 555.441 550.669 551.479 541.625C549.506 537.105 547.743 532.502 546.19 527.815C544.637 523.128 543.304 518.38 542.19 513.57C541.071 508.765 540.241 503.9 539.416 499.07C538.591 494.24 537.796 489.385 537.031 484.535C535.501 474.835 534.067 465.12 532.727 455.39C527.358 416.485 523.058 377.45 519.109 338.39C515.159 299.33 511.485 260.245 507.565 221.19C505.601 201.66 503.631 182.135 501.441 162.635C499.252 143.135 496.897 123.635 494.077 104.235C492.662 94.5251 491.128 84.8351 489.393 75.1851C487.658 65.5351 485.693 55.9151 483.214 46.4301C480.734 36.9451 477.77 27.5251 472.715 19.0751C470.291 14.8251 467.656 10.6601 464.401 6.99007C462.796 5.13672 460.946 3.51016 458.902 2.15506C457.871 1.49225 456.765 0.953521 455.608 0.550066C454.452 0.18165 453.246 -0.00392455 452.033 6.29157e-05Z" fill="white"/>
<path d="M451.973 0C450.744 0.0149376 449.526 0.224187 448.363 0.619995C447.205 1.02245 446.099 1.56125 445.068 2.22501C443.025 3.58214 441.175 5.21032 439.569 7.065C436.315 10.73 433.68 14.9 431.255 19.155C426.221 27.605 423.292 37.06 420.757 46.515C418.222 55.97 416.333 65.625 414.578 75.275C412.823 84.925 411.308 94.625 409.893 104.335C407.074 123.755 404.714 143.245 402.529 162.75C400.345 182.255 398.385 201.815 396.425 221.315C392.506 260.385 388.841 299.48 384.877 338.55C380.913 377.62 376.628 416.67 371.249 455.585C369.899 465.308 368.463 475.023 366.94 484.73C366.173 489.587 365.378 494.433 364.555 499.27C363.73 504.105 362.9 508.975 361.775 513.77C360.65 518.565 359.321 523.33 357.776 528.015C356.231 532.7 354.456 537.315 352.477 541.815C348.502 550.865 343.596 559.476 337.839 567.51C332.092 575.545 325.426 582.882 317.976 589.37C310.533 595.857 302.248 601.308 293.345 605.575C279.937 612.001 265.217 615.217 250.351 614.97H235.628L0.0664062 614.545L235.628 614.12H250.351C265.061 614.294 279.609 611.042 292.845 604.62C301.645 600.36 309.828 594.929 317.172 588.475C324.507 582.015 331.065 574.723 336.714 566.745C348.022 550.805 355.866 532.51 360.24 513.48C361.345 508.72 362.16 503.905 362.98 499.065C363.8 494.225 364.58 489.385 365.335 484.54C366.848 474.847 368.266 465.138 369.589 455.415C372.254 435.97 374.623 416.485 376.838 396.98C379.053 377.475 381.153 357.98 383.157 338.435C387.192 299.38 390.916 260.29 394.901 221.22C396.9 201.69 399.03 182.17 401.29 162.66C403.574 143.16 406.029 123.66 408.949 104.245C410.408 94.535 412.003 84.84 413.828 75.185C415.653 65.53 417.692 55.92 420.252 46.43C421.542 41.69 422.967 36.98 424.676 32.365C425.531 30.06 426.466 27.78 427.521 25.56C428.576 23.34 429.776 21.19 431.02 19.06C433.48 14.81 436.18 10.665 439.484 7.015C441.116 5.17119 442.992 3.55807 445.058 2.22C446.1 1.56383 447.216 1.03346 448.383 0.639999C449.54 0.243493 450.75 0.0276259 451.973 0Z" fill="white"/>
<path opacity="0.5" fill-rule="evenodd" clip-rule="evenodd" d="M151.08 614.52H251.951C305.343 614.52 351.542 568.875 362.77 504.9C389.986 349.815 399.765 79.09 428.661 23.59C436.85 7.865 444.409 0 451.973 0H452.033C459.596 0 467.155 7.865 475.344 23.59C504.235 79.09 514.019 349.815 541.235 504.9C552.463 568.875 598.662 614.52 652.054 614.52H752.925" fill="url(#paint0_linear_296_760)"/>
<defs>
<linearGradient id="paint0_linear_296_760" x1="452.003" y1="614.52" x2="452.003" y2="0" gradientUnits="userSpaceOnUse">
<stop stop-color="white" stop-opacity="0.2"/>
<stop offset="0.05" stop-color="#E9F8F8" stop-opacity="0.29"/>
<stop offset="0.18" stop-color="#B3E5E5" stop-opacity="0.51"/>
<stop offset="0.32" stop-color="#86D6D6" stop-opacity="0.69"/>
<stop offset="0.47" stop-color="#63CBCB" stop-opacity="0.82"/>
<stop offset="0.62" stop-color="#4AC2C2" stop-opacity="0.92"/>
<stop offset="0.79" stop-color="#3CBEBE" stop-opacity="0.98"/>
<stop offset="1" stop-color="#37BCBC"/>
</linearGradient>
</defs>
</svg>
