<svg width="904" height="83" viewBox="0 0 904 83" fill="none" xmlns="http://www.w3.org/2000/svg">
<path d="M452.031 8.36233e-05C457.059 -0.00692296 462.077 0.426382 467.029 1.29507C469.502 1.72507 471.958 2.24178 474.398 2.84512C475.623 3.13512 476.833 3.48012 478.033 3.84512C479.232 4.21012 480.402 4.68509 481.532 5.19509C486.135 7.25471 490.385 10.0271 494.125 13.4101C497.848 16.7896 501.287 20.4686 504.409 24.4101C510.718 32.2401 516.292 40.6051 522.516 48.4751C525.594 52.4293 528.891 56.2085 532.39 59.7951C534.155 61.5701 535.969 63.2951 537.889 64.9201C538.839 65.7351 539.799 66.5351 540.789 67.3001C541.753 68.0798 542.791 68.7631 543.888 69.3401C546.11 70.4743 548.423 71.4209 550.802 72.1701C553.182 72.9451 555.597 73.6051 558.026 74.2001C562.896 75.3851 567.825 76.3101 572.774 77.1001C577.723 77.8901 582.698 78.5501 587.677 79.1001C592.656 79.6501 597.676 80.1551 602.675 80.5601C612.674 81.3701 622.672 81.8951 632.721 82.1951C637.72 82.3451 642.736 82.4385 647.769 82.4751C652.768 82.5101 657.807 82.4751 662.826 82.4751L903.722 82.7151L662.826 82.9551H647.769C642.743 82.9284 637.722 82.8484 632.706 82.7151C622.667 82.4401 612.639 81.9401 602.625 81.1601C592.611 80.3801 582.628 79.2951 572.694 77.6601C567.735 76.8501 562.796 75.9101 557.911 74.7101C555.467 74.1051 553.042 73.4351 550.647 72.6451C548.238 71.8823 545.897 70.919 543.648 69.7651C542.525 69.1697 541.463 68.4646 540.479 67.6601C539.479 66.8901 538.519 66.0801 537.564 65.2601C535.654 63.6201 533.83 61.8801 532.065 60.0901C528.561 56.4817 525.262 52.6808 522.181 48.7051C515.972 40.8001 510.413 32.4201 504.144 24.5951C501.047 20.6544 497.631 16.9753 493.93 13.5951C490.23 10.2127 486.025 7.42757 481.467 5.34011C480.322 4.84011 479.152 4.38512 477.968 3.97012C476.783 3.55512 475.578 3.23008 474.358 2.93008C471.928 2.31008 469.479 1.77677 467.009 1.3301C462.065 0.44965 457.053 0.00459468 452.031 8.36233e-05Z" fill="white"/>
<path d="M451.971 0C446.94 0.0314434 441.921 0.50497 436.973 1.41504C434.503 1.86004 432.049 2.41502 429.619 3.02002C428.399 3.32002 427.199 3.67 426.01 4.06C424.82 4.45 423.655 4.91499 422.51 5.42999C417.952 7.52404 413.746 10.3122 410.042 13.695C406.342 17.0754 402.926 20.7545 399.828 24.695C393.554 32.525 387.995 40.91 381.781 48.815C378.699 52.7936 375.395 56.5963 371.887 60.205C370.123 61.995 368.293 63.735 366.388 65.375C365.433 66.195 364.468 67.005 363.474 67.775C362.485 68.5754 361.42 69.2771 360.294 69.87C358.043 71.018 355.703 71.9795 353.295 72.745C350.9 73.53 348.471 74.2 346.026 74.8C341.137 76 336.197 76.94 331.233 77.75C321.309 79.365 311.306 80.435 301.287 81.22C291.269 82.005 281.23 82.5 271.187 82.77C266.167 82.9034 261.145 82.9833 256.119 83.01H241.071L0.0449219 82.77L241.071 82.53H256.134C261.153 82.4934 266.171 82.4017 271.187 82.255C281.222 81.9617 291.244 81.4183 301.252 80.625C306.252 80.215 311.251 79.7284 316.25 79.165C321.249 78.605 326.214 77.95 331.163 77.165C336.112 76.38 341.047 75.45 345.921 74.265C348.351 73.675 350.77 73.015 353.15 72.265C355.532 71.5193 357.848 70.576 360.074 69.445C361.174 68.8716 362.214 68.1899 363.179 67.41C364.178 66.65 365.133 65.845 366.083 65.035C367.988 63.41 369.808 61.685 371.582 59.905C375.088 56.321 378.387 52.5416 381.466 48.585C387.695 40.715 393.274 32.345 399.583 24.51C402.705 20.5687 406.145 16.8897 409.867 13.51C413.609 10.125 417.861 7.34952 422.465 5.28503C423.62 4.78503 424.8 4.34 425.995 3.935C427.189 3.53 428.404 3.21 429.624 2.935C432.064 2.32833 434.522 1.81168 436.998 1.38501C441.939 0.48554 446.949 0.0220806 451.971 0Z" fill="white"/>
<path opacity="0.5" fill-rule="evenodd" clip-rule="evenodd" d="M151.078 82.78H251.949C305.341 82.78 351.54 76.635 362.768 68.015C389.984 47.12 399.763 10.655 428.659 3.17499C436.262 1.12372 444.096 0.0566832 451.971 0H452.031C459.905 0.0566832 467.74 1.12372 475.342 3.17499C504.233 10.675 514.017 47.12 541.233 68.015C552.461 76.635 598.66 82.78 652.052 82.78H752.923" fill="url(#paint0_linear_296_728)"/>
<defs>
<linearGradient id="paint0_linear_296_728" x1="452.001" y1="82.78" x2="452.001" y2="0" gradientUnits="userSpaceOnUse">
<stop stop-color="white" stop-opacity="0.2"/>
<stop offset="0.05" stop-color="#E9F8F8" stop-opacity="0.29"/>
<stop offset="0.18" stop-color="#B3E5E5" stop-opacity="0.51"/>
<stop offset="0.32" stop-color="#86D6D6" stop-opacity="0.69"/>
<stop offset="0.47" stop-color="#63CBCB" stop-opacity="0.82"/>
<stop offset="0.62" stop-color="#4AC2C2" stop-opacity="0.92"/>
<stop offset="0.79" stop-color="#3CBEBE" stop-opacity="0.98"/>
<stop offset="1" stop-color="#37BCBC"/>
</linearGradient>
</defs>
</svg>
