<svg width="904" height="373" viewBox="0 0 904 373" fill="none" xmlns="http://www.w3.org/2000/svg" preserveAspectRatio="none">
<path d="M452.031 0.000722305C455.791 -0.0342777 459.46 1.20572 462.7 3.06072C465.922 4.97802 468.883 7.30395 471.508 9.9807C472.843 11.2957 474.113 12.6707 475.348 14.0807C476.572 15.4991 477.693 17.0029 478.702 18.5807C480.692 21.7591 482.436 25.0855 483.917 28.5307C486.849 35.434 489.341 42.5166 491.376 49.7357C493.48 56.9207 495.27 64.1907 496.95 71.4807C500.279 86.0707 503.074 100.771 505.714 115.481C508.353 130.191 510.798 144.981 513.213 159.721C518.037 189.221 522.756 218.766 528.505 248.101C531.4 262.761 534.505 277.381 538.204 291.851C539.127 295.471 540.094 299.077 541.104 302.671C542.036 306.263 543.229 309.782 544.673 313.201C547.63 320.013 551.575 326.351 556.381 332.011C561.194 337.679 566.661 342.756 572.669 347.136C578.682 351.523 585.108 355.314 591.856 358.456C605.397 364.726 619.858 368.778 634.685 370.456C638.385 370.896 642.104 371.186 645.829 371.351C649.553 371.516 653.278 371.496 657.022 371.506H679.449L724.303 371.556L903.717 371.906L724.303 372.256L679.449 372.306H657.022C653.288 372.306 649.523 372.351 645.794 372.196C642.064 372.041 638.295 371.781 634.575 371.361C619.622 369.746 605.026 365.73 591.352 359.466C584.525 356.309 578.024 352.489 571.944 348.061C565.846 343.635 560.294 338.501 555.407 332.766C547.991 324.162 542.659 313.965 539.824 302.966C538.804 299.366 537.827 295.752 536.894 292.126C533.165 277.626 530.005 262.986 527.151 248.301C521.451 218.921 516.782 189.371 512.013 159.851C509.618 145.091 507.253 130.351 504.709 115.596C502.164 100.841 499.435 86.1607 496.21 71.5957C494.585 64.3057 492.8 57.0457 490.786 49.8557C488.812 42.669 486.384 35.6148 483.517 28.7357C482.08 25.2942 480.378 21.9693 478.427 18.7907C476.478 15.6107 473.968 12.8207 471.358 10.1557C468.768 7.45659 465.839 5.10377 462.645 3.15572C459.435 1.27572 455.791 0.00572231 452.031 0.000722305Z" fill="white"/>
<path d="M451.971 0.000722305C448.212 0.000722305 444.562 1.27572 441.353 3.15572C438.159 5.10395 435.23 7.45676 432.639 10.1557C430.029 12.8207 427.52 15.6107 425.57 18.7957C423.621 21.9743 421.918 25.2974 420.476 28.7357C417.62 35.6387 415.205 42.7163 413.247 49.9257C411.247 57.1157 409.447 64.3757 407.823 71.6707C404.573 86.2657 401.858 100.976 399.324 115.706C396.789 130.436 394.41 145.206 392.015 159.976C387.241 189.506 382.576 219.071 376.867 248.476C374.012 263.166 370.868 277.806 367.113 292.311C366.177 295.937 365.2 299.552 364.184 303.156C361.329 314.155 355.978 324.349 348.546 332.946C343.648 338.674 338.088 343.801 331.983 348.221C325.893 352.639 319.386 356.454 312.556 359.611C298.868 365.858 284.263 369.86 269.302 371.461C265.573 371.871 261.833 372.144 258.084 372.281C254.334 372.431 250.585 372.381 246.85 372.386H224.414L179.545 372.336L0.0703125 371.986L179.545 371.641L224.414 371.586H246.85C250.59 371.586 254.324 371.586 258.049 371.436C261.773 371.286 265.493 370.986 269.192 370.556C284.031 368.879 298.503 364.827 312.056 358.556C318.802 355.413 325.226 351.622 331.238 347.236C337.257 342.863 342.734 337.791 347.556 332.126C354.85 323.658 360.095 313.624 362.884 302.801C363.884 299.207 364.85 295.601 365.784 291.981C369.488 277.481 372.593 262.881 375.492 248.216C381.246 218.871 385.966 189.326 390.79 159.801C393.195 145.036 395.649 130.301 398.289 115.546C400.929 100.791 403.723 86.1107 407.058 71.5157C408.732 64.2257 410.522 56.9507 412.632 49.7657C414.666 42.5528 417.157 35.4769 420.091 28.5807C421.57 25.1346 423.313 21.808 425.305 18.6307C426.313 17.0517 427.434 15.5478 428.66 14.1307C429.89 12.7207 431.159 11.3407 432.494 10.0257C435.126 7.33504 438.094 4.99417 441.323 3.06072C444.537 1.20572 448.212 -0.0342777 451.971 0.000722305Z" fill="white"/>
<path opacity="0.5" fill-rule="evenodd" clip-rule="evenodd" d="M151.078 371.94H251.949C305.341 371.94 351.54 344.315 362.768 305.595C389.984 211.725 399.763 47.87 428.659 14.28C436.848 4.78 444.407 0 451.971 0H452.031C459.595 0 467.153 4.76 475.342 14.28C504.233 47.87 514.017 211.725 541.233 305.595C552.461 344.315 598.66 371.94 652.052 371.94H752.923" fill="url(#paint0_linear_296_752)"/>
<defs>
<linearGradient id="paint0_linear_296_752" x1="452.001" y1="371.94" x2="452.001" y2="0" gradientUnits="userSpaceOnUse">
<stop stop-color="white" stop-opacity="0.2"/>
<stop offset="0.05" stop-color="#E9F8F8" stop-opacity="0.29"/>
<stop offset="0.18" stop-color="#B3E5E5" stop-opacity="0.51"/>
<stop offset="0.32" stop-color="#86D6D6" stop-opacity="0.69"/>
<stop offset="0.47" stop-color="#63CBCB" stop-opacity="0.82"/>
<stop offset="0.62" stop-color="#4AC2C2" stop-opacity="0.92"/>
<stop offset="0.79" stop-color="#3CBEBE" stop-opacity="0.98"/>
<stop offset="1" stop-color="#37BCBC"/>
</linearGradient>
</defs>
</svg>
