<svg width="903" height="373" viewBox="0 0 903 373" fill="none" xmlns="http://www.w3.org/2000/svg">
<path d="M200.121 0C202.653 0.00835827 205.159 0.507542 207.5 1.46997C209.841 2.44019 212.049 3.70544 214.069 5.23499C216.097 6.74278 218.009 8.40076 219.788 10.195C220.688 11.085 221.553 12.005 222.398 12.945C223.243 13.885 224.083 14.83 224.848 15.84C226.363 17.869 227.725 20.0083 228.922 22.24C230.127 24.46 231.217 26.74 232.222 29.065C234.221 33.705 235.931 38.47 237.481 43.275C240.575 52.895 243.035 62.7 245.275 72.545C247.514 82.39 249.494 92.29 251.364 102.21C255.088 122.05 258.398 141.96 261.637 161.88C264.877 181.8 268.106 201.715 271.636 221.575C275.165 241.435 278.99 261.245 283.579 280.875C284.732 285.778 285.949 290.668 287.229 295.545C287.872 297.982 288.539 300.412 289.228 302.835C289.908 305.265 290.598 307.66 291.473 310C294.933 319.39 300.502 327.935 307.321 335.255C314.218 342.556 322.162 348.79 330.893 353.755C339.621 358.744 348.903 362.696 358.549 365.53C368.198 368.384 378.119 370.228 388.149 371.03C390.649 371.24 393.149 371.37 395.683 371.455C398.218 371.54 400.708 371.535 403.232 371.54H418.365L902.597 371.96L418.365 372.38H403.232C400.733 372.38 398.183 372.38 395.658 372.325C393.134 372.27 390.599 372.135 388.079 371.94C377.967 371.185 367.959 369.382 358.219 366.56C348.466 363.764 339.083 359.813 330.268 354.79C321.419 349.779 313.365 343.478 306.371 336.095C299.437 328.68 293.758 320 290.213 310.435C289.318 308.05 288.604 305.595 287.919 303.17C287.234 300.745 286.564 298.305 285.919 295.865C284.619 290.982 283.391 286.082 282.234 281.165C277.565 261.51 273.821 241.665 270.311 221.785C266.802 201.905 263.632 181.97 260.418 162.05C257.203 142.13 254.033 122.205 250.419 102.36C248.604 92.44 246.68 82.54 244.5 72.695C242.32 62.85 239.905 53.055 236.931 43.425C235.431 38.62 233.781 33.85 231.822 29.215C229.862 24.58 227.612 20.04 224.623 15.99C223.873 14.99 223.048 14.035 222.213 13.09C221.378 12.145 220.523 11.22 219.638 10.325C217.882 8.52009 215.994 6.84878 213.989 5.32498C211.992 3.79173 209.808 2.51822 207.49 1.53497C205.156 0.553342 202.653 0.0321484 200.121 0Z" fill="white"/>
<path d="M200.056 0C197.626 0.0491339 195.225 0.535211 192.967 1.435C190.728 2.36227 188.611 3.56123 186.663 5.00497C182.795 7.9296 179.309 11.3297 176.29 15.125C174.785 17.021 173.447 19.0435 172.29 21.17C171.68 22.21 171.16 23.305 170.601 24.38C170.041 25.455 169.556 26.56 169.076 27.67C167.153 32.1177 165.458 36.6602 163.996 41.28C160.997 50.51 158.637 59.92 156.498 69.375C154.358 78.83 152.453 88.375 150.673 97.875C143.614 136.055 138.035 174.5 131.471 212.79C128.152 231.93 124.617 251.04 120.433 270.02C118.343 279.52 116.073 288.96 113.524 298.345C112.894 300.69 112.229 303.03 111.559 305.345C111.209 306.515 110.814 307.68 110.444 308.845C110.074 310.01 109.584 311.135 109.149 312.28C107.291 316.818 104.981 321.159 102.255 325.235C96.7592 333.33 89.9794 340.474 82.1831 346.385C78.3051 349.338 74.2387 352.036 70.0098 354.46C65.7939 356.901 61.4274 359.072 56.9366 360.96C38.9842 368.545 19.4419 372.04 0.0546875 371.96C19.4569 371.83 38.8992 368.1 56.6617 360.35C61.1108 358.439 65.4369 356.253 69.6148 353.805C73.7949 351.371 77.8128 348.669 81.6431 345.715C89.3114 339.817 95.9676 332.709 101.35 324.67C104.008 320.649 106.256 316.371 108.059 311.9C108.474 310.77 108.944 309.66 109.319 308.515C109.694 307.37 110.064 306.23 110.404 305.075C111.069 302.74 111.729 300.41 112.354 298.075C114.853 288.715 117.113 279.27 119.183 269.795C123.322 250.835 126.807 231.735 130.091 212.6C133.376 193.465 136.49 174.3 139.63 155.135C142.769 135.97 145.919 116.8 149.629 97.725C151.468 88.19 153.438 78.67 155.628 69.225C157.817 59.78 160.302 50.345 163.367 41.115C164.889 36.4925 166.644 31.95 168.626 27.505C169.126 26.395 169.671 25.305 170.201 24.215C170.731 23.125 171.31 22.045 171.94 21C173.131 18.8712 174.503 16.8487 176.04 14.955C179.118 11.1797 182.659 7.80659 186.578 4.91498C188.551 3.4904 190.692 2.31484 192.952 1.41498C195.216 0.521006 197.623 0.0417265 200.056 0Z" fill="white"/>
<path opacity="0.5" fill-rule="evenodd" clip-rule="evenodd" d="M0.0351562 371.94C53.4326 371.94 99.6311 344.315 110.854 305.595C138.071 211.735 147.854 47.87 176.745 14.28C184.934 4.78 192.493 0 200.052 0H200.117C207.676 0 215.235 4.76 223.424 14.28C252.319 47.87 262.098 211.725 289.314 305.595C300.543 344.315 346.741 371.94 400.134 371.94H501.009" fill="url(#paint0_linear_296_711)"/>
<defs>
<linearGradient id="paint0_linear_296_711" x1="250.525" y1="371.94" x2="250.525" y2="0" gradientUnits="userSpaceOnUse">
<stop stop-color="white" stop-opacity="0.2"/>
<stop offset="0.08" stop-color="#FFF7FA" stop-opacity="0.35"/>
<stop offset="0.19" stop-color="#FFEDF4" stop-opacity="0.52"/>
<stop offset="0.31" stop-color="#FFE4EF" stop-opacity="0.67"/>
<stop offset="0.42" stop-color="#FFDDEB" stop-opacity="0.79"/>
<stop offset="0.55" stop-color="#FFD8E8" stop-opacity="0.88"/>
<stop offset="0.68" stop-color="#FFD4E6" stop-opacity="0.95"/>
<stop offset="0.82" stop-color="#FFD2E4" stop-opacity="0.99"/>
<stop offset="1" stop-color="#FFD1E4"/>
</linearGradient>
</defs>
</svg>
