<svg width="903" height="84" viewBox="0 0 903 84" fill="none" xmlns="http://www.w3.org/2000/svg">
<path d="M702.576 0.000356046C707.376 -0.0134558 712.169 0.3746 716.904 1.16039C719.27 1.55039 721.623 2.02203 723.963 2.57537C724.548 2.70537 725.128 2.85536 725.708 3.00036C726.288 3.14536 726.868 3.32536 727.443 3.50036C728.612 3.80036 729.727 4.26039 730.862 4.66039C733.098 5.55703 735.252 6.64437 737.301 7.91039C738.346 8.50539 739.301 9.22539 740.301 9.91039C740.801 10.2604 741.261 10.6354 741.741 11.0004C742.221 11.3654 742.696 11.7254 743.15 12.1254L744.53 13.2904C744.98 13.6854 745.415 14.1004 745.86 14.5054C746.76 15.3054 747.585 16.1754 748.445 17.0054C750.109 18.7354 751.729 20.5054 753.269 22.3554C756.364 26.0304 759.268 29.8553 762.093 33.7353C764.917 37.6153 767.737 41.4903 770.642 45.3003C773.546 49.1103 776.551 52.8354 779.765 56.3804C782.955 59.9413 786.415 63.2512 790.114 66.2804C793.648 69.5304 798.218 71.1853 802.757 72.6153C807.34 73.9895 811.995 75.1144 816.7 75.9853C826.104 77.7953 835.622 78.9854 845.156 79.9554C854.69 80.9254 864.258 81.5654 873.832 82.0204C883.406 82.4754 892.994 82.7304 902.588 82.7904C892.993 82.8404 883.404 82.6921 873.822 82.3454C864.238 81.9554 854.66 81.3454 845.106 80.4604C835.552 79.5754 826.024 78.3604 816.61 76.5804C811.887 75.7125 807.214 74.5909 802.612 73.2204C800.299 72.5362 798.032 71.7011 795.828 70.7204C795.283 70.4604 794.743 70.1854 794.198 69.9154C793.653 69.6454 793.138 69.3204 792.623 68.9903C791.589 68.3204 790.684 67.5404 789.739 66.7904C786.023 63.732 782.551 60.3885 779.355 56.7904C776.141 53.2204 773.136 49.4654 770.242 45.6354C767.347 41.8054 764.557 37.9054 761.743 34.0304C758.928 30.1554 756.054 26.3154 752.979 22.6454C751.479 20.8004 749.849 19.0253 748.2 17.2953C747.35 16.4553 746.53 15.5853 745.64 14.7953C745.2 14.3903 744.765 13.9754 744.32 13.5804L742.955 12.4203C742.506 12.0253 742.031 11.6603 741.561 11.3003C741.091 10.9403 740.621 10.5604 740.136 10.2104C739.136 9.54038 738.191 8.82038 737.136 8.21038C735.107 6.95262 732.976 5.86555 730.767 4.96038C729.647 4.55038 728.542 4.08038 727.388 3.77038C726.818 3.60038 726.248 3.42038 725.668 3.27038C725.088 3.12038 724.513 2.96537 723.928 2.83037C721.595 2.25371 719.262 1.75371 716.929 1.33037C712.191 0.484927 707.389 0.0400052 702.576 0.000356046Z" fill="white"/>
<path d="M702.511 0C694.874 0.0804095 687.277 1.12025 679.899 3.09503C676.2 4.01215 672.645 5.43557 669.335 7.32501C666.043 9.24113 662.971 11.5113 660.172 14.095C654.538 19.225 649.813 25.265 645.274 31.38C640.734 37.495 636.37 43.78 631.611 49.76C626.851 55.74 621.707 61.45 615.813 66.35C615.076 66.96 614.33 67.5583 613.573 68.145C612.807 68.7367 611.993 69.2635 611.139 69.72C609.445 70.6288 607.686 71.4077 605.874 72.05C602.265 73.3281 598.582 74.3901 594.846 75.23C587.397 76.95 579.848 78.15 572.269 79.145C564.69 80.14 557.086 80.84 549.472 81.41C534.245 82.525 518.977 83.015 503.704 83.025H457.915L366.333 82.99L0.0351562 82.78L366.333 82.575H457.905H503.694C518.952 82.52 534.19 81.99 549.417 80.835C557.023 80.255 564.609 79.49 572.174 78.54C579.738 77.57 587.277 76.39 594.706 74.7C598.421 73.8742 602.083 72.829 605.674 71.57C607.46 70.9388 609.196 70.1768 610.869 69.29C611.697 68.8534 612.489 68.3519 613.238 67.79C613.992 67.21 614.735 66.6167 615.468 66.01C621.337 61.155 626.466 55.51 631.236 49.51C636.005 43.51 640.38 37.305 644.939 31.18C649.498 25.055 654.253 19.025 659.937 13.88C662.762 11.2915 665.87 9.02897 669.2 7.13501C672.54 5.25841 676.124 3.85341 679.849 2.96002C687.249 1.02987 694.863 0.0354274 702.511 0Z" fill="white"/>
<path opacity="0.5" fill-rule="evenodd" clip-rule="evenodd" d="M0.0449219 82.78H502.474C555.866 82.78 602.065 76.635 613.293 68.015C640.509 47.12 650.288 10.655 679.184 3.17499C686.785 1.12409 694.618 0.0570555 702.491 0H702.556C710.428 0.0570555 718.261 1.12409 725.862 3.17499C754.758 10.675 764.542 47.12 791.758 68.015C802.986 76.635 849.18 82.78 902.577 82.78" fill="url(#paint0_linear_296_646)"/>
<defs>
<linearGradient id="paint0_linear_296_646" x1="451.321" y1="82.78" x2="451.321" y2="0" gradientUnits="userSpaceOnUse">
<stop stop-color="white" stop-opacity="0.2"/>
<stop offset="0.05" stop-color="#EFFAFD" stop-opacity="0.3"/>
<stop offset="0.16" stop-color="#D0F1FA" stop-opacity="0.48"/>
<stop offset="0.28" stop-color="#B5E9F7" stop-opacity="0.64"/>
<stop offset="0.41" stop-color="#9FE2F4" stop-opacity="0.77"/>
<stop offset="0.53" stop-color="#8EDDF2" stop-opacity="0.87"/>
<stop offset="0.67" stop-color="#82DAF1" stop-opacity="0.94"/>
<stop offset="0.82" stop-color="#7BD8F0" stop-opacity="0.99"/>
<stop offset="1" stop-color="#79D7F0"/>
</linearGradient>
</defs>
</svg>
