<svg width="903" height="495" viewBox="0 0 903 495" fill="none" xmlns="http://www.w3.org/2000/svg" preserveAspectRatio="none">
<path d="M702.576 0C704.084 0.0172928 705.581 0.25306 707.021 0.699982C708.451 1.1784 709.824 1.81396 711.115 2.595C713.656 4.22303 715.975 6.17435 718.014 8.39999C720.06 10.6046 721.958 12.9431 723.693 15.4C725.482 17.8297 727.087 20.3902 728.493 23.06C728.862 23.72 729.157 24.415 729.492 25.09C729.827 25.765 730.152 26.45 730.442 27.145L731.342 29.22L732.177 31.32C732.457 32.02 732.722 32.725 732.977 33.435L733.747 35.56C734.247 36.985 734.747 38.41 735.177 39.845C737.006 45.585 738.571 51.405 740.006 57.255C742.845 68.955 745.125 80.785 747.225 92.635C749.325 104.485 751.169 116.38 752.919 128.285C754.669 140.19 756.309 152.115 757.848 164.045C759.388 175.975 760.903 187.915 762.383 199.855C765.347 223.73 768.237 247.615 771.301 271.475C774.366 295.335 777.491 319.185 781.15 342.975C782.98 354.86 784.93 366.725 787.094 378.55C788.167 384.463 789.304 390.365 790.504 396.255C791.089 399.205 791.714 402.14 792.333 405.08C792.658 406.545 793.018 407.99 793.363 409.45C793.523 410.18 793.743 410.895 793.943 411.615L794.563 413.77C797.999 425.26 803.289 436.112 810.226 445.895C817.175 455.68 825.646 464.289 835.317 471.395C845.002 478.517 855.752 484.064 867.168 487.83C878.608 491.583 890.559 493.546 902.598 493.65C896.574 493.681 890.557 493.245 884.6 492.345C866.641 489.612 849.587 482.653 834.842 472.04C825.043 464.937 816.446 456.308 809.381 446.48C802.324 436.635 796.921 425.705 793.383 414.12L792.748 411.945C792.538 411.215 792.308 410.495 792.144 409.755C791.789 408.29 791.414 406.82 791.074 405.35C790.439 402.405 789.789 399.465 789.189 396.52C787.964 390.625 786.824 384.715 785.729 378.795C783.54 366.955 781.565 355.085 779.705 343.19C776.001 319.41 772.771 295.56 769.707 271.69C763.668 223.945 758.353 176.115 751.709 128.475C750.029 116.565 748.245 104.67 746.235 92.82C744.225 80.97 742.001 69.145 739.236 57.445C737.866 51.595 736.361 45.78 734.597 40.035C734.157 38.605 733.682 37.18 733.217 35.75L732.467 33.63C732.222 32.92 731.967 32.215 731.692 31.515L730.882 29.415L730.007 27.345C729.727 26.65 729.412 25.97 729.087 25.29C728.762 24.61 728.473 23.925 728.113 23.265C726.744 20.5966 725.174 18.0359 723.418 15.605C721.715 13.1323 719.849 10.7755 717.834 8.54999C715.836 6.30947 713.556 4.33799 711.05 2.685C709.776 1.89007 708.418 1.2394 707.001 0.744995C705.57 0.283339 704.079 0.0323809 702.576 0Z" fill="white"/>
<path d="M702.511 0C699.679 0.0670683 696.917 0.89052 694.512 2.38498C692.117 3.85518 689.931 5.64123 688.013 7.69498C686.079 9.73888 684.286 11.9104 682.643 14.195C681.818 15.33 681.014 16.48 680.239 17.65C679.464 18.82 678.709 20 678.024 21.225C676.665 23.6795 675.457 26.2142 674.405 28.815C673.335 31.41 672.405 34.055 671.5 36.715C669.73 42.045 668.23 47.465 666.871 52.92C664.166 63.825 661.991 74.865 659.997 85.92C658.002 96.975 656.272 108.1 654.637 119.225C651.373 141.48 648.583 163.8 645.819 186.13L637.645 253.13C632.106 297.78 626.401 342.46 617.928 386.7C616.864 392.23 615.74 397.747 614.553 403.25C613.438 408.799 611.925 414.259 610.024 419.59C608.103 424.924 605.782 430.106 603.08 435.09C593.461 452.507 579.464 467.112 562.471 477.459C545.479 487.807 526.08 493.54 506.193 494.09C503.369 494.17 500.554 494.135 497.745 494.14H472.433L404.943 494.095L269.962 493.975L0 493.71L269.962 493.445L404.943 493.33L472.433 493.285H489.306H497.745C500.554 493.285 503.369 493.285 506.163 493.21C517.377 492.829 528.473 490.797 539.094 487.18C560.456 479.919 579.16 466.434 592.801 448.46C599.571 439.541 604.936 429.638 608.709 419.095C610.579 413.821 612.066 408.418 613.158 402.93C614.331 397.437 615.445 391.937 616.498 386.43C620.712 364.345 624.162 342.115 627.336 319.85C630.511 297.585 633.415 275.275 636.21 252.955C641.814 208.315 646.903 163.59 653.642 119.08C655.337 107.955 657.142 96.845 659.177 85.775C661.211 74.705 663.491 63.67 666.301 52.775C667.711 47.325 669.255 41.905 671.075 36.575C671.99 33.91 672.965 31.265 674.075 28.67C675.152 26.062 676.387 23.5223 677.774 21.065C678.474 19.84 679.249 18.655 680.039 17.49C680.829 16.325 681.639 15.175 682.478 14.045C684.144 11.7705 685.967 9.61528 687.933 7.595C689.882 5.55459 692.099 3.78693 694.522 2.34C696.93 0.864395 699.687 0.0567269 702.511 0Z" fill="white"/>
<path opacity="0.5" fill-rule="evenodd" clip-rule="evenodd" d="M0.0449219 493.665H502.474C555.866 493.665 602.065 457 613.293 405.605C640.509 281.015 650.288 63.535 679.184 18.95C687.373 6.31998 694.932 0 702.491 0H702.556C710.114 0 717.673 6.31998 725.862 18.95C754.758 63.535 764.542 281.015 791.758 405.605C802.986 457 849.18 493.665 902.577 493.665" fill="url(#paint0_linear_296_674)"/>
<defs>
<linearGradient id="paint0_linear_296_674" x1="451.321" y1="493.665" x2="451.321" y2="0" gradientUnits="userSpaceOnUse">
<stop stop-color="white" stop-opacity="0.2"/>
<stop offset="0.05" stop-color="#EFFAFD" stop-opacity="0.3"/>
<stop offset="0.16" stop-color="#D0F1FA" stop-opacity="0.48"/>
<stop offset="0.28" stop-color="#B5E9F7" stop-opacity="0.64"/>
<stop offset="0.41" stop-color="#9FE2F4" stop-opacity="0.77"/>
<stop offset="0.53" stop-color="#8EDDF2" stop-opacity="0.87"/>
<stop offset="0.67" stop-color="#82DAF1" stop-opacity="0.94"/>
<stop offset="0.82" stop-color="#7BD8F0" stop-opacity="0.99"/>
<stop offset="1" stop-color="#79D7F0"/>
</linearGradient>
</defs>
</svg>
