<svg width="903" height="4" viewBox="0 0 903 4" fill="none" xmlns="http://www.w3.org/2000/svg">
<path d="M200.121 0L222.073 0.109985C229.392 0.164985 236.711 0.309985 244.02 0.609985C251.329 0.909985 258.643 1.295 265.952 1.685C273.261 2.075 280.57 2.395 287.884 2.625C295.198 2.855 302.517 2.88502 309.831 2.95502L331.787 3.09003L375.691 3.22504L551.326 3.26501L902.587 3.29498L551.326 3.33002H375.716C361.082 3.33002 346.445 3.28668 331.807 3.20001L309.856 3.04498C302.537 2.96998 295.218 2.92501 287.904 2.70001C280.59 2.47501 273.281 2.13499 265.972 1.73499C258.663 1.33499 251.359 0.91502 244.045 0.64502C236.731 0.37502 229.417 0.20502 222.098 0.14502L200.121 0Z" fill="white"/>
<path d="M200.056 0L175.06 0.164978C166.727 0.264978 158.395 0.510024 150.063 0.900024C141.739 1.29502 133.415 1.81501 125.067 2.20001C116.718 2.58501 108.409 2.87501 100.07 2.95001C83.3975 3.13001 66.7248 3.18499 50.0522 3.23499L0.0292969 3.27502L50.0522 3.16498C66.7248 3.09998 83.3975 3.02001 100.07 2.82001C108.404 2.75501 116.738 2.47504 125.067 2.10004C133.395 1.72504 141.714 1.21502 150.063 0.830017C158.412 0.445017 166.726 0.220005 175.06 0.130005L200.056 0Z" fill="white"/>
<path opacity="0.5" fill-rule="evenodd" clip-rule="evenodd" d="M0.0351562 3.27502C53.4326 3.27502 99.6311 3.035 110.854 2.69C138.071 1.865 147.849 0.42 176.75 0.125C184.939 0.04 192.498 0 200.057 0H200.122C207.681 0 215.24 0.04 223.429 0.125C252.324 0.42 262.103 1.865 289.319 2.69C300.548 3.035 346.746 3.27502 400.139 3.27502H501.014" fill="url(#paint0_linear_296_699)"/>
<defs>
<linearGradient id="paint0_linear_296_699" x1="250.525" y1="3.27502" x2="250.525" y2="0" gradientUnits="userSpaceOnUse">
<stop stop-color="white" stop-opacity="0.2"/>
<stop offset="0.08" stop-color="#FFF7FA" stop-opacity="0.35"/>
<stop offset="0.19" stop-color="#FFEDF4" stop-opacity="0.52"/>
<stop offset="0.31" stop-color="#FFE4EF" stop-opacity="0.67"/>
<stop offset="0.42" stop-color="#FFDDEB" stop-opacity="0.79"/>
<stop offset="0.55" stop-color="#FFD8E8" stop-opacity="0.88"/>
<stop offset="0.68" stop-color="#FFD4E6" stop-opacity="0.95"/>
<stop offset="0.82" stop-color="#FFD2E4" stop-opacity="0.99"/>
<stop offset="1" stop-color="#FFD1E4"/>
</linearGradient>
</defs>
</svg>
