<svg width="904" height="18" viewBox="0 0 904 18" fill="none" xmlns="http://www.w3.org/2000/svg" preserveAspectRatio="none">
<path d="M452.033 0.00195312C456.756 0.00195312 461.479 0.0852865 466.201 0.251953C470.921 0.411953 475.64 0.646902 480.349 1.0119C485.059 1.3769 489.738 2.05195 494.382 2.93695C499.027 3.82195 503.606 4.99692 508.15 6.28192C512.695 7.56692 517.209 8.94696 521.768 10.192C526.328 11.437 530.907 12.5619 535.541 13.4569C536.696 13.7069 537.866 13.8819 539.041 14.0969C540.216 14.3119 541.361 14.5269 542.54 14.6619C543.72 14.7969 544.885 14.9369 546.04 15.0519C547.195 15.1669 548.395 15.2469 549.569 15.3469C554.279 15.6869 558.993 15.932 563.712 16.132C601.462 17.597 639.252 17.682 677.031 17.632L903.714 17.7219L677.031 17.817C639.252 17.847 601.457 17.957 563.702 16.317C558.983 16.107 554.264 15.852 549.554 15.502C548.38 15.402 547.2 15.3319 546.025 15.2019C544.85 15.0719 543.67 14.9819 542.5 14.8019C541.331 14.6219 540.166 14.4369 539.001 14.2269C537.836 14.0169 536.671 13.8319 535.501 13.5819C530.862 12.6769 526.273 11.5319 521.718 10.2819C517.164 9.03192 512.65 7.64192 508.105 6.34692C503.561 5.05192 498.992 3.84693 494.357 2.97693C489.723 2.10693 485.033 1.47692 480.359 1.02692C475.685 0.576917 470.936 0.406934 466.216 0.231934C461.497 0.0569336 456.758 0.00695312 452.033 0.00195312Z" fill="white"/>
<path d="M451.972 0.00195312C447.243 0.00195312 442.519 0.0935832 437.799 0.276917C433.075 0.451917 428.356 0.69696 423.646 1.07196C418.937 1.44696 414.258 2.13192 409.618 3.02692C404.979 3.92192 400.4 5.10692 395.855 6.40192C391.311 7.69692 386.797 9.08691 382.237 10.3369C377.678 11.5869 373.088 12.7269 368.449 13.6369C367.294 13.8869 366.124 14.0669 364.95 14.2819C363.775 14.4969 362.625 14.7169 361.45 14.8519C359.1 15.1769 356.746 15.3519 354.391 15.5469C349.677 15.9019 344.957 16.1569 340.233 16.3619C302.458 17.9819 264.639 17.8619 226.844 17.8619L0.03125 17.7669L226.844 17.6769C264.644 17.7069 302.453 17.6169 340.223 16.1769C344.942 15.9819 349.662 15.7369 354.376 15.3919C356.731 15.2169 359.085 15.0269 361.42 14.7169C362.595 14.5769 363.755 14.3569 364.92 14.1519C366.084 13.9469 367.249 13.7569 368.419 13.5119C373.058 12.6169 377.648 11.4819 382.207 10.2469C386.767 9.01195 391.281 7.62191 395.83 6.33191C400.38 5.04191 404.959 3.86694 409.603 2.98694C414.248 2.10694 418.942 1.48695 423.646 1.06195C428.351 0.636951 433.08 0.456936 437.804 0.296936C442.529 0.136936 447.243 0.00195312 451.972 0.00195312Z" fill="white"/>
<path opacity="0.5" fill-rule="evenodd" clip-rule="evenodd" d="M151.08 17.7469H251.951C305.343 17.7469 351.542 16.4319 362.77 14.5819C389.986 10.1069 399.765 2.28695 428.661 0.686951C436.85 0.231951 444.409 0.00195312 451.973 0.00195312H452.033C459.596 0.00195312 467.155 0.231951 475.344 0.686951C504.235 2.28695 514.019 10.1069 541.235 14.5819C552.463 16.4319 598.662 17.7469 652.054 17.7469H752.925" fill="url(#paint0_linear_296_736)"/>
<defs>
<linearGradient id="paint0_linear_296_736" x1="452.003" y1="17.7469" x2="452.003" y2="0.00195312" gradientUnits="userSpaceOnUse">
<stop stop-color="white" stop-opacity="0.2"/>
<stop offset="0.05" stop-color="#E9F8F8" stop-opacity="0.29"/>
<stop offset="0.18" stop-color="#B3E5E5" stop-opacity="0.51"/>
<stop offset="0.32" stop-color="#86D6D6" stop-opacity="0.69"/>
<stop offset="0.47" stop-color="#63CBCB" stop-opacity="0.82"/>
<stop offset="0.62" stop-color="#4AC2C2" stop-opacity="0.92"/>
<stop offset="0.79" stop-color="#3CBEBE" stop-opacity="0.98"/>
<stop offset="1" stop-color="#37BCBC"/>
</linearGradient>
</defs>
</svg>
