<svg width="903" height="18" viewBox="0 0 903 18" fill="none" xmlns="http://www.w3.org/2000/svg">
<path d="M200.121 0.00195312C207.455 0.00195312 214.789 0.211919 222.118 0.591919C223.953 0.676919 225.777 0.836909 227.617 0.956909C228.532 1.00691 229.442 1.11191 230.357 1.20691L233.091 1.48694C234.001 1.58694 234.911 1.73193 235.816 1.85193C236.721 1.97193 237.641 2.08195 238.541 2.24695C240.345 2.56195 242.16 2.84695 243.955 3.24695C251.154 4.67695 258.178 6.8519 265.217 8.8869C268.716 9.9219 272.281 10.887 275.84 11.752C279.4 12.617 282.984 13.3869 286.599 14.0119C290.201 14.6882 293.843 15.1308 297.502 15.3369C301.162 15.6169 304.821 15.8069 308.501 15.9919C315.825 16.3369 323.154 16.5719 330.498 16.7719C345.162 17.1419 359.827 17.3902 374.491 17.5169C389.164 17.6619 403.832 17.6569 418.485 17.6569H462.479H550.501L902.582 17.7269L550.501 17.8019H462.479H418.485C403.812 17.8019 389.144 17.8369 374.491 17.7269C367.159 17.6769 359.827 17.5953 352.495 17.4819C345.162 17.3686 337.83 17.2019 330.498 16.9819C323.164 16.7669 315.83 16.5169 308.501 16.1569C304.836 15.9669 301.172 15.7719 297.502 15.4819C293.838 15.2675 290.19 14.8166 286.584 14.132C282.969 13.502 279.385 12.6969 275.815 11.8469C272.246 10.9969 268.716 10.0019 265.197 8.96191C258.158 6.91191 251.144 4.72192 243.95 3.27692C242.16 2.88192 240.35 2.59192 238.546 2.27692C237.641 2.10692 236.731 2.00695 235.821 1.87195C234.911 1.73695 234.011 1.60695 233.096 1.50195L230.362 1.21692C229.452 1.11692 228.542 1.01191 227.627 0.961914C225.797 0.836914 223.968 0.671914 222.128 0.586914C214.789 0.241914 207.455 0.0119531 200.121 0.00195312Z" fill="white"/>
<path d="M200.057 0.00242519C191.655 0.0390919 183.258 0.337384 174.865 0.897384L171.721 1.12242L168.591 1.44743C166.497 1.63743 164.422 1.98243 162.342 2.25743C158.196 2.9241 154.085 3.77408 150.009 4.80742C141.865 6.87742 133.891 9.57241 125.727 11.6074C117.564 13.6424 109.28 15.2974 100.871 15.7274C92.4771 16.2724 84.0783 16.5874 75.6744 16.8524C67.2706 17.1174 58.8718 17.2924 50.468 17.4274C42.0642 17.5624 33.6554 17.6674 25.2516 17.7224C16.8478 17.7774 8.44397 17.7624 0.0351562 17.7474C8.44397 17.7124 16.8478 17.6724 25.2516 17.5724C33.6554 17.4724 42.0592 17.3824 50.463 17.2274C58.8668 17.0724 67.2706 16.8674 75.6695 16.5924C84.0683 16.3174 92.4671 15.9824 100.851 15.4224C109.25 15.0124 117.519 13.3824 125.667 11.3624C133.816 9.34241 141.8 6.66741 149.959 4.61241C154.038 3.59241 158.158 2.74905 162.317 2.08238C164.402 1.81238 166.477 1.46739 168.571 1.28239L171.711 0.967391L174.855 0.74742C183.244 0.220754 191.645 -0.0275748 200.057 0.00242519Z" fill="white"/>
<path opacity="0.5" fill-rule="evenodd" clip-rule="evenodd" d="M0.0351562 17.7469C53.4326 17.7469 99.6311 16.4319 110.854 14.5819C138.071 10.1069 147.849 2.28695 176.75 0.686951C184.939 0.231951 192.498 0.00195312 200.057 0.00195312H200.122C207.681 0.00195312 215.24 0.231951 223.429 0.686951C252.324 2.28695 262.103 10.1069 289.319 14.5819C300.548 16.4319 346.746 17.7469 400.139 17.7469H501.014" fill="url(#paint0_linear_296_695)"/>
<defs>
<linearGradient id="paint0_linear_296_695" x1="250.525" y1="17.7469" x2="250.525" y2="0.00195312" gradientUnits="userSpaceOnUse">
<stop stop-color="white" stop-opacity="0.2"/>
<stop offset="0.08" stop-color="#FFF7FA" stop-opacity="0.35"/>
<stop offset="0.19" stop-color="#FFEDF4" stop-opacity="0.52"/>
<stop offset="0.31" stop-color="#FFE4EF" stop-opacity="0.67"/>
<stop offset="0.42" stop-color="#FFDDEB" stop-opacity="0.79"/>
<stop offset="0.55" stop-color="#FFD8E8" stop-opacity="0.88"/>
<stop offset="0.68" stop-color="#FFD4E6" stop-opacity="0.95"/>
<stop offset="0.82" stop-color="#FFD2E4" stop-opacity="0.99"/>
<stop offset="1" stop-color="#FFD1E4"/>
</linearGradient>
</defs>
</svg>
