<svg width="500" height="79" viewBox="0 0 500 79" fill="none" xmlns="http://www.w3.org/2000/svg" preserveAspectRatio="none">
<path fill-rule="evenodd" clip-rule="evenodd" d="M187.11 8.86435C167.898 4.42875 148.716 0 123.625 0C97.5186 0 78.7372 4.60128 62.7661 8.51406C54.6973 10.4908 47.3459 12.2919 40.1297 13.2351C18.6298 16.0453 0 16.6798 0 16.6798V52.2755L249.963 52.2755H500V16.6895C500 16.6895 481.348 16.0453 459.848 13.2351C452.621 12.2905 445.324 10.4959 437.327 8.52939C421.534 4.64532 403.014 0.0907092 376.927 0.0907092C351.834 0.0907092 332.506 4.49714 313.149 8.91024C293.997 13.2765 274.816 17.6494 249.995 17.7675C225.166 17.6507 206.123 13.2542 187.11 8.86435Z" fill="white"/>
<path fill-rule="evenodd" clip-rule="evenodd" d="M187.82 10.3742C168.937 6.51304 150.089 2.65918 124.981 2.65918C98.1953 2.65918 78.4898 6.9417 61.8483 10.5584C54.077 12.2473 46.9738 13.791 40.1297 14.6856C18.6298 17.4958 0 18.1303 0 18.1303V78.213H249.963H250.015H500V18.1257C500 18.1257 481.348 17.4958 459.848 14.6856C453.004 13.791 445.901 12.2473 438.129 10.5584C421.488 6.94171 401.782 2.65918 374.996 2.65918C349.888 2.65918 331.04 6.51304 312.157 10.3742C293.495 14.1901 274.798 18.0131 249.989 18.1302C225.18 18.0131 206.483 14.1901 187.82 10.3742Z" fill="url(#paint0_linear_254_12)"/>
<defs>
<linearGradient id="paint0_linear_254_12" x1="250" y1="78.213" x2="250" y2="2.65918" gradientUnits="userSpaceOnUse">
<stop stop-color="white"/>
<stop offset="0.955" stop-color="#37AFBC"/>
</linearGradient>
</defs>
</svg>
