<svg width="931" height="536" viewBox="0 0 931 536" fill="none" xmlns="http://www.w3.org/2000/svg">
<path d="M0 534.515C9.69151 534.393 19.3864 534.298 29.0848 534.228L58.1748 533.998L87.2648 533.832L116.35 533.71L174.54 533.58C193.926 533.545 213.323 533.565 232.73 533.641L290.92 533.971L320.01 534.145L349.1 534.246C368.494 534.28 387.89 534.28 407.291 534.246L436.381 534.137L465.471 533.998C504.264 533.771 543.047 533.616 581.82 533.532L640.011 533.41L698.201 533.38C775.769 533.502 853.337 533.776 930.905 534.533V534.772C853.337 535.529 775.769 535.803 698.201 535.925L640.011 535.894L581.82 535.772C543.027 535.703 504.243 535.546 465.471 535.303L436.381 535.163L407.291 535.055C387.897 535.008 368.501 535.008 349.1 535.055L320.01 535.159L290.92 535.333L232.73 535.659C213.337 535.732 193.94 535.754 174.54 535.725L116.35 535.594L87.2648 535.468L58.1748 535.303L29.0848 535.072C19.3899 534.994 9.69494 534.899 0 534.789V534.515Z" fill="url(#paint0_linear_301_2)"/>
<path d="M0 1.24411C9.69151 1.10781 19.3864 1.00341 29.0848 0.930906L58.1748 0.678599L87.2648 0.495906L116.35 0.361057L145.44 0.265357L174.53 0.2175C193.916 0.1827 213.313 0.205902 232.72 0.287102L290.91 0.648146L320 0.835206L349.09 0.948297C368.483 0.985997 387.88 0.985997 407.28 0.948297L436.37 0.830852L465.46 0.674258C504.254 0.424858 543.037 0.253748 581.81 0.160948L640 0.0304532L698.19 0C775.759 0.1305 853.327 0.434997 930.895 1.2615V1.5225C853.327 2.349 775.759 2.64915 698.19 2.784L640 2.7492L581.81 2.61871C543.016 2.54041 504.233 2.3693 465.46 2.1054L436.37 1.95315L407.28 1.8357C387.887 1.7806 368.49 1.77336 349.09 1.81396L320 1.92705L290.91 2.11845L232.72 2.47515C213.327 2.55345 193.93 2.57665 174.53 2.54475L145.44 2.4969L116.35 2.40121L87.2648 2.26635L58.1748 2.08365L29.0848 1.8357C19.3899 1.7429 9.69494 1.6385 0 1.5225V1.24411Z" fill="url(#paint1_linear_301_2)"/>
<path d="M0 420.754C9.69151 420.62 19.3864 420.516 29.0848 420.441L58.1748 420.188L87.2648 420.006L116.35 419.871L145.44 419.775L174.53 419.727C193.916 419.692 213.313 419.716 232.72 419.797L290.91 420.158L320 420.345L349.09 420.458C368.483 420.496 387.88 420.496 407.28 420.458L436.37 420.336L465.46 420.184C504.254 419.935 543.037 419.764 581.81 419.671L640 419.54L698.19 419.51C775.759 419.64 853.327 419.945 930.895 420.771V421.032C853.327 421.859 775.759 422.159 698.19 422.294L640 422.259L581.81 422.128C543.016 422.05 504.233 421.879 465.46 421.615L436.37 421.463L407.28 421.341C387.887 421.289 368.49 421.289 349.09 421.341L320 421.454L290.91 421.646L232.72 422.002C213.327 422.081 193.93 422.104 174.53 422.072L145.44 422.024L116.35 421.928L87.2648 421.794L58.1748 421.611L29.0848 421.363C19.3899 421.27 9.69494 421.166 0 421.05V420.754Z" fill="url(#paint2_linear_301_2)"/>
<path d="M0 315.915C9.69151 315.784 19.3864 315.68 29.0848 315.601L58.1748 315.353L87.2648 315.171L116.35 315.036L145.44 314.936L174.53 314.892C193.916 314.855 213.313 314.878 232.72 314.962L290.91 315.319L320 315.51L349.09 315.623C368.483 315.661 387.88 315.661 407.28 315.623L436.37 315.506L465.46 315.353C504.254 315.101 543.037 314.93 581.81 314.84L640 314.71L698.19 314.675C775.759 314.81 853.327 315.11 930.895 315.936V316.197C853.327 317.028 775.759 317.328 698.19 317.459L640 317.428L581.81 317.298C543.016 317.22 504.233 317.048 465.46 316.785L436.37 316.628L407.28 316.51C387.887 316.452 368.49 316.452 349.09 316.51L320 316.624L290.91 316.811L232.72 317.172C213.327 317.25 193.93 317.273 174.53 317.241L145.44 317.193L116.35 317.098L87.2648 316.963L58.1748 316.78L29.0848 316.528C19.3899 316.441 9.69494 316.337 0 316.215V315.915Z" fill="url(#paint3_linear_301_2)"/>
<path d="M0 210.914C9.69151 210.784 19.3864 210.679 29.0848 210.601L58.1748 210.349L87.2648 210.17L116.35 210.035L145.44 209.935L174.53 209.887C193.916 209.853 213.313 209.876 232.72 209.957L290.91 210.318L320 210.51L349.09 210.623C368.483 210.657 387.88 210.657 407.28 210.623L436.37 210.505L465.46 210.353C504.254 210.101 543.037 209.93 581.81 209.84L640 209.705L698.19 209.674C775.759 209.805 853.327 210.109 930.895 210.936V211.197C853.327 212.028 775.759 212.328 698.19 212.458L640 212.428L581.81 212.293C543.016 212.218 504.233 212.047 465.46 211.78L436.37 211.627L407.28 211.51C387.887 211.455 368.49 211.455 349.09 211.51L320 211.623L290.91 211.815L232.72 212.176C213.327 212.254 193.93 212.277 174.53 212.245L145.44 212.197L116.35 212.102L87.2648 211.967L58.1748 211.784L29.0848 211.532C19.3899 211.445 9.69494 211.34 0 211.219V210.914Z" fill="url(#paint4_linear_301_2)"/>
<path d="M0 106.079C9.69151 105.943 19.3864 105.838 29.0848 105.766L58.1748 105.514L87.2648 105.331L116.35 105.196L145.44 105.1L174.53 105.053C193.916 105.018 213.313 105.041 232.72 105.122L290.91 105.483L320 105.675L349.09 105.788C368.483 105.822 387.88 105.822 407.28 105.788L436.37 105.67L465.46 105.518C504.254 105.266 543.037 105.095 581.81 105.005L640 104.87L698.19 104.839C775.759 104.97 853.327 105.274 930.895 106.101V106.362C853.327 107.188 775.759 107.493 698.19 107.623L640 107.593L581.81 107.458C543.016 107.383 504.233 107.212 465.46 106.945L436.37 106.793L407.28 106.675C387.887 106.62 368.49 106.62 349.09 106.675L320 106.788L290.91 106.98L232.72 107.341C213.327 107.416 193.93 107.439 174.53 107.41L145.44 107.362L116.35 107.262L87.2648 107.127L58.1748 106.949L29.0848 106.697C19.3899 106.607 9.69494 106.503 0 106.384V106.079Z" fill="url(#paint5_linear_301_2)"/>
<path d="M190.262 473.385C193.087 472.968 195.937 472.687 198.8 472.541C201.642 472.384 204.488 472.307 207.338 472.31C210.187 472.313 213.033 472.39 215.876 472.541C218.739 472.683 221.589 472.964 224.414 473.385C221.589 473.803 218.738 474.085 215.876 474.229C213.03 474.385 210.184 474.46 207.338 474.455C204.492 474.449 201.646 474.372 198.8 474.224C195.937 474.082 193.086 473.802 190.262 473.385Z" fill="url(#paint6_linear_301_2)"/>
<path d="M190.262 53.7093C193.087 53.293 195.937 53.0113 198.8 52.8654C201.642 52.7088 204.488 52.6319 207.338 52.6348C210.187 52.6377 213.033 52.7146 215.876 52.8654C218.739 53.0072 221.589 53.289 224.414 53.7093C221.589 54.1296 218.739 54.4113 215.876 54.5532C213.03 54.7098 210.184 54.7852 207.338 54.7794C204.492 54.7736 201.646 54.6967 198.8 54.5488C195.937 54.4066 193.086 54.1263 190.262 53.7093Z" fill="url(#paint7_linear_301_2)"/>
<path d="M175.982 1.37445C181.189 0.939446 186.39 0.695841 191.596 0.539241C196.802 0.382641 202.003 0.304346 207.204 0.299996C212.405 0.295646 217.612 0.36525 222.818 0.5349C228.024 0.70455 233.225 0.926396 238.426 1.37445C233.225 1.80945 228.019 2.05305 222.818 2.20965C217.617 2.36625 212.411 2.44454 207.204 2.44454C201.998 2.44454 196.797 2.3793 191.596 2.2053C186.395 2.0313 181.189 1.81815 175.982 1.37445Z" fill="url(#paint8_linear_301_2)"/>
<path d="M190.262 420.884C193.087 420.468 195.937 420.186 198.8 420.04C201.642 419.884 204.488 419.807 207.338 419.81C210.18 419.81 213.002 419.879 215.876 420.04C218.739 420.182 221.589 420.464 224.414 420.884C221.589 421.3 218.738 421.582 215.876 421.728C213.03 421.885 210.184 421.96 207.338 421.954C204.492 421.948 201.646 421.872 198.8 421.724C195.937 421.581 193.086 421.301 190.262 420.884Z" fill="url(#paint9_linear_301_2)"/>
<path d="M190.262 368.38C193.086 367.963 195.937 367.682 198.8 367.54C201.642 367.384 204.488 367.307 207.338 367.31C210.18 367.31 213.002 367.379 215.876 367.54C218.738 367.683 221.589 367.963 224.414 368.38C221.589 368.8 218.739 369.082 215.876 369.224C213.028 369.385 210.18 369.454 207.338 369.454C204.495 369.454 201.642 369.38 198.8 369.224C195.937 369.082 193.086 368.8 190.262 368.38Z" fill="url(#paint10_linear_301_2)"/>
<path d="M190.262 316.045C193.086 315.628 195.937 315.348 198.8 315.205C201.642 315.049 204.488 314.972 207.338 314.975C210.187 314.978 213.033 315.053 215.876 315.201C218.738 315.345 221.589 315.627 224.414 316.045C221.589 316.465 218.739 316.747 215.876 316.889C213.03 317.045 210.184 317.122 207.338 317.119C204.492 317.116 201.646 317.039 198.8 316.889C195.937 316.743 193.087 316.461 190.262 316.045Z" fill="url(#paint11_linear_301_2)"/>
<path d="M190.262 263.545C193.086 263.128 195.937 262.848 198.8 262.705C201.642 262.549 204.488 262.472 207.338 262.475C210.187 262.478 213.033 262.553 215.876 262.701C218.738 262.845 221.589 263.127 224.414 263.545C221.589 263.965 218.739 264.247 215.876 264.389C213.03 264.545 210.184 264.622 207.338 264.619C204.492 264.616 201.646 264.539 198.8 264.389C195.937 264.243 193.087 263.961 190.262 263.545Z" fill="url(#paint12_linear_301_2)"/>
<path d="M190.262 211.045C193.086 210.628 195.937 210.348 198.8 210.205C201.642 210.049 204.488 209.972 207.338 209.975C210.187 209.978 213.033 210.053 215.876 210.201C218.739 210.343 221.589 210.625 224.414 211.045C221.589 211.465 218.739 211.747 215.876 211.889C213.03 212.045 210.184 212.122 207.338 212.119C204.49 212.119 201.642 212.045 198.8 211.884C195.937 211.742 193.086 211.462 190.262 211.045Z" fill="url(#paint13_linear_301_2)"/>
<path d="M190.262 158.71C193.086 158.293 195.937 158.013 198.8 157.87C201.642 157.714 204.464 157.64 207.338 157.635C210.211 157.631 213.002 157.709 215.876 157.866C218.739 158.008 221.589 158.29 224.414 158.71C221.589 159.13 218.739 159.412 215.876 159.554C213.03 159.71 210.184 159.787 207.338 159.784C204.49 159.784 201.642 159.706 198.8 159.549C195.937 159.407 193.086 159.127 190.262 158.71Z" fill="url(#paint14_linear_301_2)"/>
<path d="M190.262 106.209C193.086 105.792 195.937 105.512 198.8 105.37C201.642 105.209 204.464 105.139 207.338 105.135C210.211 105.131 213.002 105.209 215.876 105.366C218.739 105.507 221.589 105.789 224.414 106.209C221.589 106.63 218.739 106.911 215.876 107.053C213.03 107.21 210.184 107.285 207.338 107.279C204.492 107.274 201.646 107.197 198.8 107.049C195.937 106.907 193.086 106.626 190.262 106.209Z" fill="url(#paint15_linear_301_2)"/>
<path d="M448.467 473.385C451.292 472.968 454.142 472.687 457.005 472.541C459.851 472.384 462.697 472.307 465.543 472.31C468.389 472.313 471.235 472.39 474.081 472.541C476.944 472.683 479.795 472.964 482.619 473.385C479.794 473.803 476.943 474.085 474.081 474.229C471.231 474.385 468.385 474.46 465.543 474.455C462.7 474.449 459.854 474.372 457.005 474.224C454.142 474.082 451.292 473.802 448.467 473.385Z" fill="url(#paint16_linear_301_2)"/>
<path d="M448.467 53.7093C451.292 53.293 454.142 53.0113 457.005 52.8654C459.851 52.7088 462.697 52.6319 465.543 52.6348C468.389 52.6377 471.235 52.7146 474.081 52.8654C476.944 53.0072 479.795 53.289 482.619 53.7093C479.795 54.1296 476.944 54.4113 474.081 54.5532C471.231 54.7098 468.385 54.7852 465.543 54.7794C462.7 54.7736 459.854 54.6967 457.005 54.5488C454.142 54.4066 451.292 54.1263 448.467 53.7093Z" fill="url(#paint17_linear_301_2)"/>
<path d="M434.188 1.37445C439.394 0.939446 444.595 0.695841 449.801 0.539241C455.007 0.382641 460.208 0.304346 465.415 0.299996C470.621 0.295646 475.822 0.36525 481.023 0.5349C486.224 0.70455 491.43 0.926396 496.636 1.37445C491.43 1.80945 486.229 2.05305 481.023 2.20965C475.817 2.36625 470.616 2.44454 465.415 2.44454C460.213 2.44454 455.002 2.3793 449.801 2.2053C444.6 2.0313 439.394 1.81815 434.188 1.37445Z" fill="url(#paint18_linear_301_2)"/>
<path d="M448.467 420.884C451.292 420.468 454.142 420.186 457.005 420.04C459.851 419.884 462.697 419.807 465.543 419.81C468.391 419.81 471.233 419.879 474.081 420.04C476.944 420.182 479.795 420.464 482.619 420.884C479.794 421.3 476.943 421.582 474.081 421.728C471.231 421.885 468.385 421.96 465.543 421.954C462.7 421.948 459.854 421.872 457.005 421.724C454.142 421.581 451.292 421.301 448.467 420.884Z" fill="url(#paint19_linear_301_2)"/>
<path d="M448.467 368.38C451.292 367.963 454.142 367.682 457.005 367.54C459.851 367.384 462.697 367.307 465.543 367.31C468.391 367.31 471.233 367.379 474.081 367.54C476.943 367.683 479.794 367.963 482.619 368.38C479.795 368.8 476.944 369.082 474.081 369.224C471.233 369.385 468.416 369.454 465.543 369.454C462.669 369.454 459.878 369.38 457.005 369.224C454.142 369.082 451.291 368.8 448.467 368.38Z" fill="url(#paint20_linear_301_2)"/>
<path d="M448.467 316.045C451.292 315.628 454.142 315.348 457.005 315.205C459.851 315.049 462.697 314.972 465.543 314.975C468.389 314.978 471.235 315.053 474.081 315.201C476.943 315.345 479.794 315.627 482.619 316.045C479.795 316.465 476.944 316.747 474.081 316.889C471.231 317.045 468.385 317.122 465.543 317.119C462.7 317.116 459.854 317.039 457.005 316.889C454.142 316.743 451.292 316.461 448.467 316.045Z" fill="url(#paint21_linear_301_2)"/>
<path d="M448.467 263.545C451.292 263.128 454.142 262.848 457.005 262.705C459.851 262.549 462.697 262.472 465.543 262.475C468.389 262.478 471.235 262.553 474.081 262.701C476.943 262.845 479.794 263.127 482.619 263.545C479.795 263.965 476.944 264.247 474.081 264.389C471.231 264.545 468.385 264.622 465.543 264.619C462.7 264.616 459.854 264.539 457.005 264.389C454.142 264.243 451.292 263.961 448.467 263.545Z" fill="url(#paint22_linear_301_2)"/>
<path d="M448.467 211.045C451.292 210.628 454.142 210.348 457.005 210.205C459.851 210.049 462.697 209.972 465.543 209.975C468.389 209.978 471.235 210.053 474.081 210.201C476.944 210.343 479.795 210.625 482.619 211.045C479.795 211.465 476.944 211.747 474.081 211.889C471.231 212.045 468.385 212.122 465.543 212.119C462.695 212.119 459.878 212.045 457.005 211.884C454.142 211.742 451.292 211.462 448.467 211.045Z" fill="url(#paint23_linear_301_2)"/>
<path d="M448.467 158.71C451.292 158.293 454.142 158.013 457.005 157.87C459.853 157.714 462.669 157.64 465.543 157.635C468.416 157.631 471.233 157.709 474.081 157.866C476.944 158.008 479.795 158.29 482.619 158.71C479.795 159.13 476.944 159.412 474.081 159.554C471.231 159.71 468.385 159.787 465.543 159.784C462.695 159.784 459.878 159.706 457.005 159.549C454.142 159.407 451.292 159.127 448.467 158.71Z" fill="url(#paint24_linear_301_2)"/>
<path d="M448.467 106.209C451.292 105.792 454.142 105.512 457.005 105.37C459.853 105.209 462.669 105.139 465.543 105.135C468.416 105.131 471.233 105.209 474.081 105.366C476.944 105.507 479.795 105.789 482.619 106.209C479.795 106.63 476.944 106.911 474.081 107.053C471.231 107.21 468.385 107.285 465.543 107.279C462.7 107.274 459.854 107.197 457.005 107.049C454.142 106.907 451.292 106.626 448.467 106.209Z" fill="url(#paint25_linear_301_2)"/>
<path d="M706.672 473.385C709.497 472.969 712.347 472.687 715.21 472.541C718.059 472.384 720.905 472.307 723.748 472.31C726.59 472.313 729.436 472.39 732.286 472.541C735.149 472.682 738 472.964 740.824 473.385C737.999 473.803 735.149 474.085 732.286 474.229C729.436 474.385 726.59 474.46 723.748 474.455C720.905 474.449 718.059 474.372 715.21 474.224C712.347 474.082 709.497 473.801 706.672 473.385Z" fill="url(#paint26_linear_301_2)"/>
<path d="M706.672 53.7093C709.497 53.2933 712.347 53.0116 715.21 52.8654C718.059 52.7088 720.905 52.6319 723.748 52.6348C726.59 52.6377 729.436 52.7146 732.286 52.8654C735.149 53.007 738 53.2888 740.824 53.7093C738 54.1298 735.149 54.4116 732.286 54.5532C729.436 54.7098 726.59 54.7852 723.748 54.7794C720.905 54.7736 718.059 54.6967 715.21 54.5488C712.347 54.4063 709.497 54.126 706.672 53.7093Z" fill="url(#paint27_linear_301_2)"/>
<path d="M692.396 1.37445C697.598 0.939446 702.804 0.695841 708.005 0.539241C713.206 0.382641 718.412 0.304346 723.618 0.299996C728.825 0.295646 734.026 0.36525 739.227 0.5349C744.428 0.70455 749.634 0.926396 754.84 1.37445C749.634 1.80945 744.433 2.05305 739.227 2.20965C734.021 2.36625 728.819 2.44454 723.618 2.44454C718.417 2.44454 713.211 2.3793 708.005 2.2053C702.799 2.0313 697.603 1.81815 692.396 1.37445Z" fill="url(#paint28_linear_301_2)"/>
<path d="M706.672 420.884C709.497 420.468 712.347 420.186 715.21 420.04C718.059 419.884 720.905 419.807 723.748 419.81C726.596 419.81 729.412 419.879 732.286 420.04C735.149 420.182 738 420.464 740.824 420.884C737.999 421.3 735.148 421.582 732.286 421.728C729.436 421.885 726.59 421.96 723.748 421.954C720.905 421.948 718.059 421.872 715.21 421.724C712.347 421.581 709.497 421.301 706.672 420.884Z" fill="url(#paint29_linear_301_2)"/>
<path d="M706.672 368.38C709.497 367.963 712.347 367.683 715.21 367.54C718.059 367.384 720.905 367.307 723.748 367.31C726.596 367.31 729.412 367.379 732.286 367.54C735.148 367.682 737.999 367.963 740.824 368.38C738 368.8 735.149 369.082 732.286 369.224C729.438 369.385 726.621 369.454 723.748 369.454C720.874 369.454 718.083 369.38 715.21 369.224C712.347 369.082 709.496 368.8 706.672 368.38Z" fill="url(#paint30_linear_301_2)"/>
<path d="M706.672 316.045C709.497 315.628 712.347 315.348 715.21 315.205C718.059 315.049 720.905 314.972 723.748 314.975C726.59 314.978 729.436 315.053 732.286 315.201C735.149 315.345 737.999 315.626 740.824 316.045C738 316.465 735.149 316.747 732.286 316.889C729.436 317.045 726.59 317.122 723.748 317.119C720.905 317.116 718.059 317.039 715.21 316.889C712.347 316.743 709.497 316.461 706.672 316.045Z" fill="url(#paint31_linear_301_2)"/>
<path d="M706.672 263.545C709.497 263.128 712.347 262.848 715.21 262.705C718.059 262.549 720.905 262.472 723.748 262.475C726.59 262.478 729.436 262.553 732.286 262.701C735.149 262.845 737.999 263.126 740.824 263.545C738 263.965 735.149 264.247 732.286 264.389C729.436 264.545 726.59 264.622 723.748 264.619C720.905 264.616 718.059 264.539 715.21 264.389C712.347 264.243 709.497 263.961 706.672 263.545Z" fill="url(#paint32_linear_301_2)"/>
<path d="M706.672 211.045C709.497 210.628 712.347 210.348 715.21 210.205C718.059 210.049 720.905 209.972 723.748 209.975C726.59 209.978 729.436 210.053 732.286 210.201C735.149 210.342 738 210.624 740.824 211.045C738 211.465 735.149 211.747 732.286 211.889C729.436 212.045 726.59 212.122 723.748 212.119C720.905 212.119 718.083 212.045 715.21 211.884C712.347 211.742 709.497 211.462 706.672 211.045Z" fill="url(#paint33_linear_301_2)"/>
<path d="M706.672 158.71C709.497 158.293 712.347 158.013 715.21 157.87C718.058 157.714 720.905 157.64 723.748 157.635C726.59 157.631 729.412 157.709 732.286 157.866C735.149 158.008 738 158.289 740.824 158.71C738 159.13 735.149 159.412 732.286 159.554C729.436 159.71 726.59 159.787 723.748 159.784C720.905 159.784 718.083 159.706 715.21 159.549C712.347 159.407 709.497 159.127 706.672 158.71Z" fill="url(#paint34_linear_301_2)"/>
<path d="M706.672 106.209C709.497 105.793 712.347 105.512 715.21 105.37C718.058 105.209 720.905 105.139 723.748 105.135C726.59 105.131 729.412 105.209 732.286 105.366C735.149 105.507 738 105.789 740.824 106.209C738 106.63 735.149 106.912 732.286 107.053C729.436 107.21 726.59 107.285 723.748 107.279C720.905 107.274 718.059 107.197 715.21 107.049C712.347 106.906 709.497 106.626 706.672 106.209Z" fill="url(#paint35_linear_301_2)"/>
<g opacity="0.5">
<path d="M258.205 534.632L271.156 534.471L284.107 534.345L310.005 534.101L361.809 533.801C379.076 533.679 396.343 533.671 413.609 533.605L465.414 533.544L517.214 533.605L543.116 533.679L556.067 533.723L569.013 533.797L620.818 534.101L646.72 534.345L659.666 534.471L672.618 534.632L659.666 534.797L646.72 534.923L620.818 535.167L569.013 535.471L556.067 535.545L543.116 535.585L517.214 535.663L465.414 535.719L413.609 535.659C396.343 535.598 379.076 535.589 361.809 535.467L310.005 535.163L284.107 534.919L271.156 534.797L258.205 534.632Z" fill="white"/>
</g>
<path d="M0 534.632L58.1748 534.306L87.2648 534.162L116.35 534.049L232.704 533.706L349.059 533.571L465.414 533.58L581.764 533.754L639.944 533.932L698.118 534.067L930.823 534.632L698.118 535.202L639.944 535.337L581.764 535.511L465.414 535.685L349.059 535.698L232.704 535.559L116.35 535.219L87.2648 535.106L58.1748 534.963L0 534.632Z" fill="white"/>
<defs>
<linearGradient id="paint0_linear_301_2" x1="0" y1="534.633" x2="930.823" y2="534.633" gradientUnits="userSpaceOnUse">
<stop stop-color="#89D0F4" stop-opacity="0.3"/>
<stop offset="0.39" stop-color="#9BC7EF"/>
<stop offset="1" stop-color="#36ADE8"/>
</linearGradient>
<linearGradient id="paint1_linear_301_2" x1="0" y1="1.3746" x2="930.823" y2="1.3746" gradientUnits="userSpaceOnUse">
<stop stop-color="#73BCE3"/>
<stop offset="0.49" stop-color="#9BC7EF"/>
<stop offset="1" stop-color="#51ADE8"/>
</linearGradient>
<linearGradient id="paint2_linear_301_2" x1="0" y1="420.884" x2="930.823" y2="420.884" gradientUnits="userSpaceOnUse">
<stop stop-color="#73BCE3"/>
<stop offset="0.49" stop-color="#9BC7EF"/>
<stop offset="1" stop-color="#51ADE8"/>
</linearGradient>
<linearGradient id="paint3_linear_301_2" x1="0" y1="316.045" x2="930.823" y2="316.045" gradientUnits="userSpaceOnUse">
<stop stop-color="#73BCE3"/>
<stop offset="0.49" stop-color="#9BC7EF"/>
<stop offset="1" stop-color="#51ADE8"/>
</linearGradient>
<linearGradient id="paint4_linear_301_2" x1="0" y1="211.045" x2="930.823" y2="211.045" gradientUnits="userSpaceOnUse">
<stop stop-color="#73BCE3"/>
<stop offset="0.49" stop-color="#9BC7EF"/>
<stop offset="1" stop-color="#51ADE8"/>
</linearGradient>
<linearGradient id="paint5_linear_301_2" x1="0" y1="106.21" x2="930.823" y2="106.21" gradientUnits="userSpaceOnUse">
<stop stop-color="#73BCE3"/>
<stop offset="0.49" stop-color="#9BC7EF"/>
<stop offset="1" stop-color="#51ADE8"/>
</linearGradient>
<linearGradient id="paint6_linear_301_2" x1="190.262" y1="473.385" x2="224.414" y2="473.385" gradientUnits="userSpaceOnUse">
<stop stop-color="#ABE1F5"/>
<stop offset="0.52" stop-color="white"/>
<stop offset="1" stop-color="#B8E9F7"/>
</linearGradient>
<linearGradient id="paint7_linear_301_2" x1="190.262" y1="53.7093" x2="224.414" y2="53.7093" gradientUnits="userSpaceOnUse">
<stop stop-color="#ABE1F5"/>
<stop offset="0.52" stop-color="white"/>
<stop offset="1" stop-color="#B8E9F7"/>
</linearGradient>
<linearGradient id="paint8_linear_301_2" x1="175.982" y1="1.37444" x2="238.426" y2="1.37444" gradientUnits="userSpaceOnUse">
<stop stop-color="#ABE1F5"/>
<stop offset="0.52" stop-color="white"/>
<stop offset="1" stop-color="#B8E9F7"/>
</linearGradient>
<linearGradient id="paint9_linear_301_2" x1="190.262" y1="420.884" x2="224.414" y2="420.884" gradientUnits="userSpaceOnUse">
<stop stop-color="#ABE1F5"/>
<stop offset="0.52" stop-color="white"/>
<stop offset="1" stop-color="#B8E9F7"/>
</linearGradient>
<linearGradient id="paint10_linear_301_2" x1="190.262" y1="368.38" x2="224.414" y2="368.38" gradientUnits="userSpaceOnUse">
<stop stop-color="#ABE1F5"/>
<stop offset="0.52" stop-color="white"/>
<stop offset="1" stop-color="#B8E9F7"/>
</linearGradient>
<linearGradient id="paint11_linear_301_2" x1="190.262" y1="316.045" x2="224.414" y2="316.045" gradientUnits="userSpaceOnUse">
<stop stop-color="#ABE1F5"/>
<stop offset="0.52" stop-color="white"/>
<stop offset="1" stop-color="#B8E9F7"/>
</linearGradient>
<linearGradient id="paint12_linear_301_2" x1="190.262" y1="263.545" x2="224.414" y2="263.545" gradientUnits="userSpaceOnUse">
<stop stop-color="#ABE1F5"/>
<stop offset="0.52" stop-color="white"/>
<stop offset="1" stop-color="#B8E9F7"/>
</linearGradient>
<linearGradient id="paint13_linear_301_2" x1="190.262" y1="211.045" x2="224.414" y2="211.045" gradientUnits="userSpaceOnUse">
<stop stop-color="#ABE1F5"/>
<stop offset="0.52" stop-color="white"/>
<stop offset="1" stop-color="#B8E9F7"/>
</linearGradient>
<linearGradient id="paint14_linear_301_2" x1="190.262" y1="158.71" x2="224.414" y2="158.71" gradientUnits="userSpaceOnUse">
<stop stop-color="#ABE1F5"/>
<stop offset="0.52" stop-color="white"/>
<stop offset="1" stop-color="#B8E9F7"/>
</linearGradient>
<linearGradient id="paint15_linear_301_2" x1="190.262" y1="106.209" x2="224.414" y2="106.209" gradientUnits="userSpaceOnUse">
<stop stop-color="#ABE1F5"/>
<stop offset="0.52" stop-color="white"/>
<stop offset="1" stop-color="#B8E9F7"/>
</linearGradient>
<linearGradient id="paint16_linear_301_2" x1="448.467" y1="473.385" x2="482.619" y2="473.385" gradientUnits="userSpaceOnUse">
<stop stop-color="#ABE1F5"/>
<stop offset="0.52" stop-color="white"/>
<stop offset="1" stop-color="#B8E9F7"/>
</linearGradient>
<linearGradient id="paint17_linear_301_2" x1="448.467" y1="53.7093" x2="482.619" y2="53.7093" gradientUnits="userSpaceOnUse">
<stop stop-color="#ABE1F5"/>
<stop offset="0.52" stop-color="white"/>
<stop offset="1" stop-color="#B8E9F7"/>
</linearGradient>
<linearGradient id="paint18_linear_301_2" x1="434.188" y1="1.37444" x2="496.636" y2="1.37444" gradientUnits="userSpaceOnUse">
<stop stop-color="#ABE1F5"/>
<stop offset="0.52" stop-color="white"/>
<stop offset="1" stop-color="#B8E9F7"/>
</linearGradient>
<linearGradient id="paint19_linear_301_2" x1="448.467" y1="420.884" x2="482.619" y2="420.884" gradientUnits="userSpaceOnUse">
<stop stop-color="#ABE1F5"/>
<stop offset="0.52" stop-color="white"/>
<stop offset="1" stop-color="#B8E9F7"/>
</linearGradient>
<linearGradient id="paint20_linear_301_2" x1="448.467" y1="368.38" x2="482.619" y2="368.38" gradientUnits="userSpaceOnUse">
<stop stop-color="#ABE1F5"/>
<stop offset="0.52" stop-color="white"/>
<stop offset="1" stop-color="#B8E9F7"/>
</linearGradient>
<linearGradient id="paint21_linear_301_2" x1="448.467" y1="316.045" x2="482.619" y2="316.045" gradientUnits="userSpaceOnUse">
<stop stop-color="#ABE1F5"/>
<stop offset="0.52" stop-color="white"/>
<stop offset="1" stop-color="#B8E9F7"/>
</linearGradient>
<linearGradient id="paint22_linear_301_2" x1="448.467" y1="263.545" x2="482.619" y2="263.545" gradientUnits="userSpaceOnUse">
<stop stop-color="#ABE1F5"/>
<stop offset="0.52" stop-color="white"/>
<stop offset="1" stop-color="#B8E9F7"/>
</linearGradient>
<linearGradient id="paint23_linear_301_2" x1="448.467" y1="211.045" x2="482.619" y2="211.045" gradientUnits="userSpaceOnUse">
<stop stop-color="#ABE1F5"/>
<stop offset="0.52" stop-color="white"/>
<stop offset="1" stop-color="#B8E9F7"/>
</linearGradient>
<linearGradient id="paint24_linear_301_2" x1="448.467" y1="158.71" x2="482.619" y2="158.71" gradientUnits="userSpaceOnUse">
<stop stop-color="#ABE1F5"/>
<stop offset="0.52" stop-color="white"/>
<stop offset="1" stop-color="#B8E9F7"/>
</linearGradient>
<linearGradient id="paint25_linear_301_2" x1="448.467" y1="106.209" x2="482.619" y2="106.209" gradientUnits="userSpaceOnUse">
<stop stop-color="#ABE1F5"/>
<stop offset="0.52" stop-color="white"/>
<stop offset="1" stop-color="#B8E9F7"/>
</linearGradient>
<linearGradient id="paint26_linear_301_2" x1="706.672" y1="473.385" x2="740.824" y2="473.385" gradientUnits="userSpaceOnUse">
<stop stop-color="#ABE1F5"/>
<stop offset="0.52" stop-color="white"/>
<stop offset="1" stop-color="#B8E9F7"/>
</linearGradient>
<linearGradient id="paint27_linear_301_2" x1="706.672" y1="53.7093" x2="740.824" y2="53.7093" gradientUnits="userSpaceOnUse">
<stop stop-color="#ABE1F5"/>
<stop offset="0.52" stop-color="white"/>
<stop offset="1" stop-color="#B8E9F7"/>
</linearGradient>
<linearGradient id="paint28_linear_301_2" x1="692.396" y1="1.37444" x2="754.84" y2="1.37444" gradientUnits="userSpaceOnUse">
<stop stop-color="#ABE1F5"/>
<stop offset="0.52" stop-color="white"/>
<stop offset="1" stop-color="#B8E9F7"/>
</linearGradient>
<linearGradient id="paint29_linear_301_2" x1="706.672" y1="420.884" x2="740.824" y2="420.884" gradientUnits="userSpaceOnUse">
<stop stop-color="#ABE1F5"/>
<stop offset="0.52" stop-color="white"/>
<stop offset="1" stop-color="#B8E9F7"/>
</linearGradient>
<linearGradient id="paint30_linear_301_2" x1="706.672" y1="368.38" x2="740.824" y2="368.38" gradientUnits="userSpaceOnUse">
<stop stop-color="#ABE1F5"/>
<stop offset="0.52" stop-color="white"/>
<stop offset="1" stop-color="#B8E9F7"/>
</linearGradient>
<linearGradient id="paint31_linear_301_2" x1="706.672" y1="316.045" x2="740.824" y2="316.045" gradientUnits="userSpaceOnUse">
<stop stop-color="#ABE1F5"/>
<stop offset="0.52" stop-color="white"/>
<stop offset="1" stop-color="#B8E9F7"/>
</linearGradient>
<linearGradient id="paint32_linear_301_2" x1="706.672" y1="263.545" x2="740.824" y2="263.545" gradientUnits="userSpaceOnUse">
<stop stop-color="#ABE1F5"/>
<stop offset="0.52" stop-color="white"/>
<stop offset="1" stop-color="#B8E9F7"/>
</linearGradient>
<linearGradient id="paint33_linear_301_2" x1="706.672" y1="211.045" x2="740.824" y2="211.045" gradientUnits="userSpaceOnUse">
<stop stop-color="#ABE1F5"/>
<stop offset="0.52" stop-color="white"/>
<stop offset="1" stop-color="#B8E9F7"/>
</linearGradient>
<linearGradient id="paint34_linear_301_2" x1="706.672" y1="158.71" x2="740.824" y2="158.71" gradientUnits="userSpaceOnUse">
<stop stop-color="#ABE1F5"/>
<stop offset="0.52" stop-color="white"/>
<stop offset="1" stop-color="#B8E9F7"/>
</linearGradient>
<linearGradient id="paint35_linear_301_2" x1="706.672" y1="106.209" x2="740.824" y2="106.209" gradientUnits="userSpaceOnUse">
<stop stop-color="#ABE1F5"/>
<stop offset="0.52" stop-color="white"/>
<stop offset="1" stop-color="#B8E9F7"/>
</linearGradient>
</defs>
</svg>
